<svg x="0px" y="0px"
	 viewBox="0 0 1366 768" style="enable-background:new 0 0 1366 768;" xml:space="preserve">

<style type="text/css">
	.st0{fill:#BFD6FF;}
</style>

<g class="Email">

<g class="_x31_3">
	
	<path class="st0" d="M661,171H253c-6.6,0-12-5.4-12-12v-35c0-6.6,5.4-12,12-12h408c6.6,0,12,5.4,12,12v35
	C673,165.6,667.6,171,661,171z"/>
	
	<g class="_x31_2">
	
	<path d="M122.9,153.9l0.1-0.8l0.6-0.2c0.4-0.2,0.8-0.3,1.2-0.5c0.7-2.9,1.6-7.8,2.7-14.5c0.6-3.5,0.9-5.5,0.9-6.1
	c0-0.4-0.1-0.7-0.4-0.8c-0.3-0.1-1.2-0.3-2.7-0.4l0.2-1c2,0.1,3.8,0.1,5.2,0.1l7.7-0.1c1.2,0,2.3,0,3.3,0.1
	c-0.3,1.5-0.5,3.2-0.6,5.1h-1c-0.1-2.1-0.2-3.2-0.4-3.4c-0.3-0.3-2-0.4-5-0.4c-1,0-2,0-3.1,0.1c-0.6,3-1.2,6.2-1.7,9.4
	c1.5,0.1,2.9,0.1,4.1,0.1c1.4,0,3-0.1,4.8-0.3l0.2,0.2c-0.2,0.5-0.5,1.1-0.7,1.7c-1.6-0.1-3.7-0.2-6.1-0.2l-2.4,0
	c-0.8,4.5-1.3,7.8-1.6,10c1.9,0.2,3.9,0.3,5.9,0.3c1.4,0,2.6-0.1,3.7-0.2c0.4,0,0.6-0.1,0.8-0.2c0.2-0.1,0.3-0.3,0.4-0.6
	c0.1-0.2,0.4-1.3,0.9-3.2h1l-0.3,1.9c-0.2,1.1-0.4,2.4-0.5,3.7c-0.9,0.1-1.8,0.2-2.7,0.2c-0.6,0-1.5,0-2.7-0.1
	c-2.6-0.1-4.5-0.1-6-0.1C126.7,153.8,124.8,153.8,122.9,153.9z"/>
	
	<path d="M144.1,141l-0.3-0.7c1.9-1.3,3.2-2.2,4.1-2.7c0.6-0.3,1-0.4,1.4-0.4c0.3,0,0.5,0.1,0.6,0.2s0.2,0.4,0.2,0.7
	c0,0.2-0.1,0.9-0.3,1.9c-0.2,1-0.5,2.5-0.9,4.3c1.5-2.3,3.2-4.1,4.9-5.3c1.7-1.2,3.1-1.8,4-1.8c0.3,0,0.5,0.1,0.7,0.3
	s0.3,0.4,0.3,0.7c0,0.5-0.4,2.6-1.2,6.3c1.2-1.7,2.4-3.1,3.5-4.1s2.4-1.8,3.7-2.5c1-0.5,1.8-0.7,2.4-0.7c0.3,0,0.5,0.1,0.6,0.2
	c0.2,0.2,0.2,0.4,0.2,0.7c0,0.7-0.7,3.5-2,8.6c-0.7,2.6-1,4.2-1,4.6c0,0.2,0,0.4,0.1,0.5c0.1,0.1,0.2,0.2,0.4,0.2
	c0.2,0,0.4-0.1,0.6-0.2c0.4-0.2,1.2-0.7,2.2-1.4l0.3,0.7c-2,1.4-3.4,2.3-4.2,2.7c-0.5,0.3-0.9,0.4-1.3,0.4c-0.3,0-0.6-0.1-0.8-0.4
	c-0.2-0.2-0.3-0.6-0.3-1c0-0.5,0.4-2.1,1.2-4.8c1.2-4,1.8-6.7,1.8-8.1c0-0.2,0-0.4-0.1-0.5s-0.2-0.2-0.4-0.2
	c-0.7,0-1.6,0.5-2.9,1.5c-1.7,1.3-2.9,2.9-3.9,4.7c-0.8,1.6-1.5,4.3-2.1,8.2c-0.7,0.1-1.5,0.3-2.4,0.5l-0.3-0.2
	c1.2-4.5,2-7.7,2.3-9.6s0.5-3.3,0.5-4.2c0-0.3,0-0.5-0.1-0.6c-0.1-0.1-0.2-0.2-0.4-0.2c-0.6,0-1.3,0.4-2.3,1.2
	c-1.7,1.4-2.9,3-3.8,4.7c-0.8,1.8-1.6,4.6-2.2,8.4c-0.8,0.1-1.5,0.3-2.4,0.5l-0.2-0.3c1-3.4,1.7-6.4,2.2-9.2
	c0.4-2.1,0.6-3.6,0.6-4.3c0-0.3-0.1-0.6-0.2-0.7s-0.2-0.2-0.4-0.2C146.4,139.5,145.5,140,144.1,141z"/>
	
	<path d="M184.3,137.2l0.4,0.3c-1.1,3.9-2,7.3-2.6,10.3c-0.4,1.7-0.5,2.9-0.5,3.4c0,0.2,0,0.4,0.1,0.5c0.1,0.1,0.2,0.2,0.4,0.2
	c0.4,0,1.2-0.5,2.5-1.6l0.2,0.8c-1.2,1.1-2.4,1.9-3.6,2.6c-0.6,0.3-1,0.5-1.4,0.5c-0.3,0-0.5-0.1-0.7-0.3
	c-0.1-0.2-0.2-0.5-0.2-0.9c0-0.9,0.4-2.9,1.2-5.8l-0.1,0c-1.6,2.3-3.3,4.2-5.2,5.7c-1.2,1-2.1,1.5-2.7,1.5c-0.3,0-0.6-0.2-0.8-0.5
	c-0.3-0.5-0.4-1.3-0.4-2.3c0-1.7,0.3-3.7,1-6c0.7-2.3,1.4-4,2.1-5c0.5-0.8,1.6-1.6,3.1-2.4c1-0.5,2-0.8,3-0.8c0.5,0,0.9,0,1.5,0.1
	c0.5,0.1,1.1,0.2,1.7,0.4L184.3,137.2z M181.7,139.4c-0.5-0.2-1-0.3-1.4-0.4c-0.4-0.1-0.9-0.1-1.3-0.1c-0.9,0-1.7,0.2-2.4,0.5
	c-0.2,0.1-0.5,0.5-0.8,1.1c-0.6,1.3-1.2,3-1.7,5c-0.5,2-0.8,3.8-0.8,5.3c0,0.4,0.1,0.7,0.2,0.9c0.1,0.2,0.3,0.3,0.4,0.3
	c0.5,0,1.3-0.6,2.6-1.8s2.2-2.4,2.9-3.7C180.4,144.6,181.2,142.3,181.7,139.4z"/>
	
	<path d="M187.1,141l-0.3-0.7c2.8-2.1,4.7-3.2,5.6-3.2c0.3,0,0.5,0.1,0.6,0.2c0.1,0.2,0.2,0.4,0.2,0.7c0,0.7-0.3,2.1-0.8,4
	c-1.3,5-2,8.1-2,9.1c0,0.4,0.2,0.6,0.5,0.6c0.4,0,1.3-0.5,2.8-1.5l0.3,0.7c-1.6,1.3-3,2.3-4,2.9c-0.4,0.3-0.8,0.4-1.2,0.4
	c-0.3,0-0.6-0.1-0.8-0.4s-0.3-0.7-0.3-1.2c0-0.7,0.3-2.2,0.9-4.5c1.2-4.4,1.8-7,1.8-7.9c0-0.4-0.2-0.6-0.5-0.6
	C189.4,139.5,188.5,140,187.1,141z M191.4,131.2c0-0.6,0.2-1.1,0.6-1.5s0.9-0.7,1.4-0.7c0.4,0,0.7,0.1,0.9,0.4
	c0.2,0.3,0.3,0.6,0.3,1.1c0,0.6-0.2,1.2-0.6,1.6c-0.4,0.4-0.8,0.6-1.3,0.6c-0.4,0-0.7-0.1-1-0.4
	C191.5,132,191.4,131.7,191.4,131.2z"/>
	
	<path d="M198,130.5l0.1-0.7c2.4-0.3,4.2-0.8,5.6-1.4l0.5,0.3l-2.1,9.9l-0.3,1.7l-1.8,8.8c-0.2,1.2-0.3,2-0.3,2.4
	c0,0.2,0,0.4,0.1,0.5c0.1,0.1,0.2,0.2,0.4,0.2c0.5,0,1.5-0.7,3.1-2l0.4,0.7c-1.4,1.2-2.8,2.2-4.1,2.9c-0.7,0.4-1.2,0.6-1.6,0.6
	c-0.3,0-0.6-0.1-0.8-0.4c-0.2-0.2-0.3-0.6-0.3-1c0-0.1,0-0.4,0.1-0.8l0.6-3c0.6-3,1.2-5.6,1.7-7.8l0.4-1.7
	c0.4-1.8,0.7-3.9,1.1-6.1c0.1-1.1,0.2-1.8,0.2-2.3c0-0.4-0.1-0.6-0.3-0.7C200.3,130.5,199.5,130.5,198,130.5z"/>
	
	<path d="M208.8,154.2c-0.5,0-0.8-0.2-1.1-0.5c-0.3-0.3-0.4-0.7-0.4-1.3c0-0.7,0.2-1.3,0.6-1.8c0.4-0.5,0.9-0.7,1.5-0.7
	c0.5,0,0.8,0.2,1.1,0.5c0.3,0.3,0.4,0.7,0.4,1.2c0,0.7-0.2,1.3-0.6,1.8C209.8,154,209.3,154.2,208.8,154.2z M210.9,141.4
	c-0.5,0-0.8-0.2-1.1-0.5c-0.3-0.3-0.4-0.7-0.4-1.3c0-0.7,0.2-1.3,0.6-1.8c0.4-0.5,0.9-0.7,1.5-0.7c0.5,0,0.8,0.2,1.1,0.5
	c0.3,0.3,0.4,0.7,0.4,1.3c0,0.7-0.2,1.3-0.6,1.8C211.9,141.1,211.4,141.4,210.9,141.4z"/>
	
	</g>
	
<g class="_x31_1">
	
	<path d="M266.7,143l-0.3-0.7c1.9-1.3,3.2-2.2,4.1-2.7c0.6-0.3,1-0.4,1.4-0.4c0.3,0,0.5,0.1,0.6,0.2s0.2,0.4,0.2,0.7
	c0,0.2-0.1,0.9-0.3,1.9c-0.2,1-0.5,2.5-0.9,4.3c1.5-2.3,3.2-4.1,4.9-5.3c1.7-1.2,3.1-1.8,4-1.8c0.3,0,0.5,0.1,0.7,0.3
	s0.3,0.4,0.3,0.7c0,0.5-0.4,2.6-1.2,6.3c1.2-1.7,2.4-3.1,3.5-4.1s2.4-1.8,3.7-2.5c1-0.5,1.8-0.7,2.4-0.7c0.3,0,0.5,0.1,0.6,0.2
	c0.2,0.2,0.2,0.4,0.2,0.7c0,0.7-0.7,3.5-2,8.6c-0.7,2.6-1,4.2-1,4.6c0,0.2,0,0.4,0.1,0.5c0.1,0.1,0.2,0.2,0.4,0.2
	c0.2,0,0.4-0.1,0.6-0.2c0.4-0.2,1.2-0.7,2.2-1.4l0.3,0.7c-2,1.4-3.4,2.3-4.2,2.7c-0.5,0.3-0.9,0.4-1.3,0.4c-0.3,0-0.6-0.1-0.8-0.4
	c-0.2-0.2-0.3-0.6-0.3-1c0-0.5,0.4-2.1,1.2-4.8c1.2-4,1.8-6.7,1.8-8.1c0-0.2,0-0.4-0.1-0.5s-0.2-0.2-0.4-0.2
	c-0.7,0-1.6,0.5-2.9,1.5c-1.7,1.3-2.9,2.9-3.9,4.7c-0.8,1.6-1.5,4.3-2.1,8.2c-0.7,0.1-1.5,0.3-2.4,0.5l-0.3-0.2
	c1.2-4.5,2-7.7,2.3-9.6s0.5-3.3,0.5-4.2c0-0.3,0-0.5-0.1-0.6c-0.1-0.1-0.2-0.2-0.4-0.2c-0.6,0-1.3,0.4-2.3,1.2
	c-1.7,1.4-2.9,3-3.8,4.7c-0.8,1.8-1.6,4.6-2.2,8.4c-0.8,0.1-1.5,0.3-2.4,0.5l-0.2-0.3c1-3.4,1.7-6.4,2.2-9.2
	c0.4-2.1,0.6-3.6,0.6-4.3c0-0.3-0.1-0.6-0.2-0.7s-0.2-0.2-0.4-0.2C269,141.5,268.1,142,266.7,143z"/>
	
	<path d="M306.9,139.2l0.4,0.3c-1.1,3.9-2,7.3-2.6,10.3c-0.4,1.7-0.5,2.9-0.5,3.4c0,0.2,0,0.4,0.1,0.5c0.1,0.1,0.2,0.2,0.4,0.2
	c0.4,0,1.2-0.5,2.5-1.6l0.2,0.8c-1.2,1.1-2.4,1.9-3.6,2.6c-0.6,0.3-1,0.5-1.4,0.5c-0.3,0-0.5-0.1-0.7-0.3
	c-0.1-0.2-0.2-0.5-0.2-0.9c0-0.9,0.4-2.9,1.2-5.8l-0.1,0c-1.6,2.3-3.3,4.2-5.2,5.7c-1.2,1-2.1,1.5-2.7,1.5c-0.3,0-0.6-0.2-0.8-0.5
	c-0.3-0.5-0.4-1.3-0.4-2.3c0-1.7,0.3-3.7,1-6c0.7-2.3,1.4-4,2.1-5c0.5-0.8,1.6-1.6,3.1-2.4c1-0.5,2-0.8,3-0.8c0.5,0,0.9,0,1.5,0.1
	c0.5,0.1,1.1,0.2,1.7,0.4L306.9,139.2z M304.3,141.4c-0.5-0.2-1-0.3-1.4-0.4c-0.4-0.1-0.9-0.1-1.3-0.1c-0.9,0-1.7,0.2-2.4,0.5
	c-0.2,0.1-0.5,0.5-0.8,1.1c-0.6,1.3-1.2,3-1.7,5c-0.5,2-0.8,3.8-0.8,5.3c0,0.4,0.1,0.7,0.2,0.9c0.1,0.2,0.3,0.3,0.4,0.3
	c0.5,0,1.3-0.6,2.6-1.8s2.2-2.4,2.9-3.7C303,146.6,303.8,144.3,304.3,141.4z"/>
	
	<path d="M325.4,142.7l-2.3,0c0.1,0.5,0.1,0.9,0.1,1.2c0,0.9-0.3,1.8-0.8,2.9c-0.5,1-1.1,1.9-1.9,2.5s-1.9,1.2-3.3,1.7
	c-0.5,0.5-0.8,1-0.8,1.5c0,0.3,0.1,0.6,0.3,0.9c0.2,0.3,0.7,0.8,1.6,1.5c1.7,1.4,2.7,2.3,3.1,2.8c0.6,0.8,0.9,1.6,0.9,2.5
	c0,1.4-0.7,2.6-2,3.5c-1.8,1.3-4,1.9-6.5,1.9c-2.1,0-3.6-0.4-4.6-1.2s-1.5-1.8-1.5-2.9c0-1.2,0.5-2.4,1.6-3.6
	c1.1-1.2,2.8-2.1,5.1-2.8c-0.4-0.4-0.6-0.7-0.6-1.1c0-0.3,0.1-0.6,0.3-0.9c0.2-0.3,0.9-0.9,2-1.9c-0.4,0-0.7,0.1-1,0.1
	c-1.4,0-2.4-0.4-3.2-1.2c-0.8-0.8-1.2-1.8-1.2-3.2c0-2.1,0.8-3.9,2.3-5.4c1.5-1.5,3.4-2.2,5.5-2.2c1,0,1.8,0.2,2.4,0.5
	c0.6,0.3,1.2,0.8,1.6,1.5c0.9,0,2-0.1,3.1-0.2L325.4,142.7z M315.3,155.9c-1.8,0.5-3.2,1.2-4.1,2.1c-0.9,0.9-1.3,1.9-1.3,2.9
	c0,1.1,0.4,1.9,1.3,2.6c0.8,0.7,2.1,1,3.6,1c1.6,0,2.9-0.3,3.8-1c0.9-0.7,1.4-1.5,1.4-2.4c0-0.5-0.1-0.9-0.4-1.3
	c-0.4-0.6-1-1.2-1.8-2L315.3,155.9z M320.6,144.1c0-1-0.1-1.7-0.4-2.2c-0.2-0.5-0.6-0.9-1.1-1.2c-0.5-0.3-1-0.4-1.7-0.4
	c-1.2,0-2.2,0.5-2.9,1.4c-0.9,1.1-1.3,2.6-1.3,4.5c0,1.3,0.3,2.3,0.9,2.9c0.6,0.6,1.4,1,2.4,1c0.8,0,1.4-0.2,2-0.6
	c0.6-0.4,1-1.1,1.5-2.1C320.4,146.3,320.6,145.2,320.6,144.1z"/>
	
	<path d="M327.2,143l-0.3-0.7c2.8-2.1,4.7-3.2,5.6-3.2c0.3,0,0.5,0.1,0.6,0.2c0.1,0.2,0.2,0.4,0.2,0.7c0,0.7-0.3,2.1-0.8,4
	c-1.3,5-2,8.1-2,9.1c0,0.4,0.2,0.6,0.5,0.6c0.4,0,1.3-0.5,2.8-1.5l0.3,0.7c-1.6,1.3-3,2.3-4,2.9c-0.4,0.3-0.8,0.4-1.2,0.4
	c-0.3,0-0.6-0.1-0.8-0.4s-0.3-0.7-0.3-1.2c0-0.7,0.3-2.2,0.9-4.5c1.2-4.4,1.8-7,1.8-7.9c0-0.4-0.2-0.6-0.5-0.6
	C329.5,141.5,328.6,142,327.2,143z M331.5,133.2c0-0.6,0.2-1.1,0.6-1.5s0.9-0.7,1.4-0.7c0.4,0,0.7,0.1,0.9,0.4
	c0.2,0.3,0.3,0.6,0.3,1.1c0,0.6-0.2,1.2-0.6,1.6c-0.4,0.4-0.8,0.6-1.3,0.6c-0.4,0-0.7-0.1-1-0.4
	C331.6,134,331.5,133.7,331.5,133.2z"/>
	
	<path d="M336,155.9v-0.7c5.1-5.2,8.4-9.1,10-11.8c1.2-2,1.8-3.8,1.8-5.5c0-1.3-0.3-2.4-1-3.1c-0.7-0.7-1.6-1.1-2.8-1.1
	c-1,0-1.9,0.3-2.7,0.8c-0.8,0.6-1.6,1.6-2.4,3.1l-0.8-0.4l2.1-4.1c0.7-0.5,1.5-1,2.3-1.2c0.8-0.3,1.6-0.4,2.4-0.4
	c1.8,0,3.2,0.5,4.3,1.6s1.6,2.4,1.6,4.2c0,0.8-0.1,1.6-0.3,2.3c-0.2,0.7-0.6,1.6-1.2,2.5s-1.6,2.3-3.2,4l-6.7,7.1v0.2h5.2
	c2.1,0,4.1-0.1,5.9-0.2l0.2,0.2c-0.1,0.3-0.3,1.1-0.6,2.4c-2.4-0.1-4.9-0.1-7.5-0.1C340.4,155.8,338.2,155.8,336,155.9z"/>
	
	<path d="M354.6,149.6l0.9,0.1c-0.1,0.7-0.2,1.3-0.2,1.6c0,1,0.4,1.9,1.2,2.5c0.8,0.7,1.8,1,3.1,1c1.6,0,3-0.7,4.2-2
	c1.1-1.3,1.7-3,1.7-5c0-1.5-0.4-2.7-1.2-3.5c-0.8-0.8-2-1.2-3.6-1.2c-0.8,0-1.7,0.1-2.7,0.4l-0.2-0.1l0.6-1.7
	c0.9,0.1,1.4,0.2,1.7,0.2c0.9,0,1.8-0.2,2.7-0.7c0.9-0.5,1.5-1.1,2-1.9c0.5-0.8,0.7-1.6,0.7-2.4c0-1-0.3-1.8-0.9-2.4
	c-0.6-0.6-1.5-0.9-2.6-0.9c-0.9,0-1.6,0.2-2.3,0.6s-1.4,1.2-2.3,2.3l-0.7-0.5c0.8-1.2,1.4-2.3,2-3.4c0.7-0.4,1.5-0.6,2.1-0.8
	c0.7-0.2,1.4-0.3,2-0.3c1.7,0,3,0.4,3.9,1.3s1.4,2,1.4,3.3c0,0.7-0.1,1.4-0.4,2.1c-0.3,0.7-0.7,1.3-1.2,1.7
	c-0.5,0.5-1.6,1.2-3.3,2.2c1.6,0.4,2.6,0.8,3.2,1.2c0.6,0.4,1.1,1,1.5,1.8s0.6,1.6,0.6,2.6c0,1.4-0.4,2.8-1.3,4.1
	c-0.8,1.3-2,2.4-3.5,3.2c-1.5,0.8-3.1,1.2-4.9,1.2c-1,0-1.9-0.1-2.7-0.4c-0.8-0.2-1.7-0.7-2.6-1.3
	C354,152.9,354.3,151.2,354.6,149.6z"/>
	
	<path d="M374.1,156.2c-0.5,0-0.8-0.2-1.1-0.5c-0.3-0.3-0.4-0.7-0.4-1.3c0-0.7,0.2-1.3,0.6-1.8c0.4-0.5,0.9-0.7,1.4-0.7
	c0.4,0,0.8,0.2,1.1,0.5c0.3,0.3,0.4,0.7,0.4,1.2c0,0.7-0.2,1.3-0.6,1.8C375.2,156,374.7,156.2,374.1,156.2z"/>
	
	<path d="M391,151.9l0.2,0.7c-1.6,1.4-3,2.3-4,2.8c-1.1,0.5-2.1,0.7-3,0.7c-1.3,0-2.4-0.4-3.1-1.2c-0.7-0.8-1.1-1.9-1.1-3.4
	c0-1.5,0.3-3.3,0.9-5.2c0.6-1.9,1.3-3.3,2.1-4.1c0.8-0.8,2.1-1.7,3.8-2.5c1-0.5,1.8-0.7,2.6-0.7c0.9,0,1.7,0.3,2.2,0.8
	c0.5,0.5,0.8,1.2,0.8,1.9c0,3.1-3.2,5.3-9.6,6.5c-0.2,1.4-0.3,2.4-0.3,3c0,0.9,0.3,1.7,0.8,2.2c0.5,0.6,1.2,0.8,2,0.8
	c0.6,0,1.3-0.2,2.1-0.5C388.3,153.7,389.5,153,391,151.9z M383,147.6c2.3-0.4,4-1.1,5.1-2c1.1-0.9,1.6-2,1.6-3.1
	c0-0.6-0.1-1.1-0.4-1.4c-0.3-0.3-0.7-0.5-1.2-0.5c-0.7,0-1.4,0.2-2.1,0.6c-0.7,0.4-1.2,1.1-1.6,1.9
	C383.9,144.3,383.4,145.8,383,147.6z"/>
	
	<path d="M395.5,132.5l0.1-0.7c2.4-0.3,4.2-0.8,5.6-1.4l0.5,0.3l-2.1,9.9l-0.3,1.7l-1.8,8.8c-0.2,1.2-0.3,2-0.3,2.4
	c0,0.2,0,0.4,0.1,0.5c0.1,0.1,0.2,0.2,0.4,0.2c0.5,0,1.5-0.7,3.1-2l0.4,0.7c-1.4,1.2-2.8,2.2-4.1,2.9c-0.7,0.4-1.2,0.6-1.6,0.6
	c-0.3,0-0.6-0.1-0.8-0.4c-0.2-0.2-0.3-0.6-0.3-1c0-0.1,0-0.4,0.1-0.8l0.6-3c0.6-3,1.2-5.6,1.7-7.8l0.4-1.7
	c0.4-1.8,0.7-3.9,1.1-6.1c0.1-1.1,0.2-1.8,0.2-2.3c0-0.4-0.1-0.6-0.3-0.7C397.8,132.5,397,132.5,395.5,132.5z"/>
	
	<path d="M404,143l-0.3-0.7c2.8-2.1,4.7-3.2,5.6-3.2c0.3,0,0.5,0.1,0.6,0.2c0.1,0.2,0.2,0.4,0.2,0.7c0,0.7-0.3,2.1-0.8,4
	c-1.3,5-2,8.1-2,9.1c0,0.4,0.2,0.6,0.5,0.6c0.4,0,1.3-0.5,2.8-1.5l0.3,0.7c-1.6,1.3-3,2.3-4,2.9c-0.4,0.3-0.8,0.4-1.2,0.4
	c-0.3,0-0.6-0.1-0.8-0.4s-0.3-0.7-0.3-1.2c0-0.7,0.3-2.2,0.9-4.5c1.2-4.4,1.8-7,1.8-7.9c0-0.4-0.2-0.6-0.5-0.6
	C406.4,141.5,405.5,142,404,143z M408.3,133.2c0-0.6,0.2-1.1,0.6-1.5s0.9-0.7,1.4-0.7c0.4,0,0.7,0.1,0.9,0.4
	c0.2,0.3,0.3,0.6,0.3,1.1c0,0.6-0.2,1.2-0.6,1.6c-0.4,0.4-0.8,0.6-1.3,0.6c-0.4,0-0.7-0.1-1-0.4
	C408.4,134,408.3,133.7,408.3,133.2z"/>
	
	<path d="M426.5,139.2l0.4,0.3c-1.1,3.9-2,7.3-2.6,10.3c-0.4,1.7-0.5,2.9-0.5,3.4c0,0.2,0,0.4,0.1,0.5c0.1,0.1,0.2,0.2,0.4,0.2
	c0.4,0,1.2-0.5,2.5-1.6l0.2,0.8c-1.2,1.1-2.4,1.9-3.6,2.6c-0.6,0.3-1,0.5-1.4,0.5c-0.3,0-0.5-0.1-0.7-0.3
	c-0.1-0.2-0.2-0.5-0.2-0.9c0-0.9,0.4-2.9,1.2-5.8l-0.1,0c-1.6,2.3-3.3,4.2-5.2,5.7c-1.2,1-2.1,1.5-2.7,1.5c-0.3,0-0.6-0.2-0.8-0.5
	c-0.3-0.5-0.4-1.3-0.4-2.3c0-1.7,0.3-3.7,1-6c0.7-2.3,1.4-4,2.1-5c0.5-0.8,1.6-1.6,3.1-2.4c1-0.5,2-0.8,3-0.8c0.5,0,0.9,0,1.5,0.1
	c0.5,0.1,1.1,0.2,1.7,0.4L426.5,139.2z M423.9,141.4c-0.5-0.2-1-0.3-1.4-0.4c-0.4-0.1-0.9-0.1-1.3-0.1c-0.9,0-1.7,0.2-2.4,0.5
	c-0.2,0.1-0.5,0.5-0.8,1.1c-0.6,1.3-1.2,3-1.7,5c-0.5,2-0.8,3.8-0.8,5.3c0,0.4,0.1,0.7,0.2,0.9c0.1,0.2,0.3,0.3,0.4,0.3
	c0.5,0,1.3-0.6,2.6-1.8s2.2-2.4,2.9-3.7C422.6,146.6,423.3,144.3,423.9,141.4z"/>
	
	<path d="M429.4,150.7h0.9l0,1.6l0,1.3c0.6,0.4,1.1,0.8,1.8,1c0.6,0.2,1.3,0.3,1.9,0.3c1.1,0,2-0.4,2.7-1.1
	c0.7-0.7,1.1-1.6,1.1-2.6c0-0.8-0.2-1.3-0.5-1.7c-0.4-0.4-1.1-0.6-2.3-0.8c-2-0.3-3.3-0.7-3.9-1.1c-0.8-0.6-1.2-1.5-1.2-2.7
	c0-0.9,0.3-1.7,0.8-2.5c0.5-0.8,1.5-1.5,2.9-2.4c1-0.6,2.1-0.9,3.1-0.9c0.5,0,1.1,0.1,1.7,0.2c0.6,0.1,1.2,0.4,1.7,0.7
	c-0.3,1-0.5,2.3-0.6,3.9h-0.8c0-0.5,0-0.9,0-1.3c0-0.6-0.1-0.9-0.4-1.1c-0.7-0.6-1.7-0.9-2.8-0.9c-1.2,0-2.1,0.3-2.7,0.9
	c-0.6,0.6-0.9,1.3-0.9,2.3c0,0.8,0.3,1.4,0.8,1.7c0.4,0.3,1.3,0.5,2.8,0.8c1.7,0.3,2.8,0.6,3.3,1c0.7,0.5,1,1.3,1,2.4
	c0,1.5-0.8,2.9-2.3,4.3c-1.6,1.4-3.3,2.1-5.2,2.1c-0.6,0-1.2-0.1-1.9-0.2c-0.6-0.2-1.2-0.4-1.8-0.7
	C429,154,429.2,152.4,429.4,150.7z"/>
	
	<path d="M464.6,149.3h1.7c-0.7,1.3-1.4,2.3-2.1,3c-1.2,1.2-2.5,2.2-4,2.9c-1.5,0.7-3.1,1-4.8,1c-2.4,0-4.5-0.5-6.5-1.6
	s-3.5-2.6-4.6-4.5c-1.1-1.9-1.6-4-1.6-6.2c0-2.3,0.6-4.4,1.7-6.4c1.1-2,2.6-3.5,4.5-4.6c1.9-1.1,4-1.7,6.2-1.7
	c2.8,0,5.5,0.9,7.8,2.7s3.5,4.2,3.5,7.3c0,1.8-0.4,3.4-1.1,4.8c-0.7,1.4-1.8,2.6-3.1,3.5c-1.4,0.9-2.6,1.4-3.6,1.4
	c-0.7,0-1.3-0.2-1.8-0.7c-0.5-0.5-0.8-1.2-0.9-2.1c-0.7,1-1.4,1.6-2,2c-0.6,0.4-1.3,0.6-2,0.6c-1.3,0-2.4-0.5-3.3-1.4
	s-1.4-2.2-1.4-3.6c0-1.4,0.3-2.7,1-3.9c0.7-1.2,1.6-2.2,2.8-2.9c1.2-0.7,2.4-1.1,3.6-1.1c0.8,0,1.5,0.2,2,0.6
	c0.5,0.4,0.9,1,1.1,1.8l0.6-2.1h2.4l-2.5,9.5c-0.1,0.5-0.2,0.9-0.2,1.3c0,0.3,0.1,0.6,0.3,0.8c0.2,0.2,0.4,0.3,0.7,0.3
	c0.8,0,1.6-0.4,2.6-1.1s1.8-1.8,2.4-3.2c0.6-1.4,1-2.8,1-4.3c0-2.3-0.9-4.3-2.8-6c-1.9-1.7-4.2-2.6-6.9-2.6
	c-2.1,0-3.9,0.5-5.6,1.4s-3,2.3-4,4c-1,1.7-1.5,3.6-1.5,5.7c0,2,0.5,3.9,1.4,5.5s2.3,3,4.1,3.9c1.8,1,3.7,1.5,5.8,1.5
	c1.2,0,2.4-0.2,3.4-0.6c1.1-0.4,2.1-1,3-1.8C463,151.6,463.8,150.6,464.6,149.3z M457,141.3c0-0.8-0.2-1.4-0.6-1.9
	c-0.4-0.4-0.8-0.7-1.4-0.7c-0.7,0-1.5,0.3-2.3,0.9c-0.8,0.6-1.5,1.6-2.1,2.9c-0.6,1.4-0.9,2.6-0.9,3.9c0,0.9,0.3,1.7,0.8,2.3
	c0.5,0.6,1.1,0.9,1.8,0.9c0.6,0,1.3-0.3,2-0.8c0.7-0.6,1.3-1.6,1.9-3.2C456.7,144,457,142.6,457,141.3z"/>
	
	<path d="M484.7,142.7l-2.3,0c0.1,0.5,0.1,0.9,0.1,1.2c0,0.9-0.3,1.8-0.8,2.9c-0.5,1-1.1,1.9-1.9,2.5s-1.9,1.2-3.3,1.7
	c-0.5,0.5-0.8,1-0.8,1.5c0,0.3,0.1,0.6,0.3,0.9c0.2,0.3,0.7,0.8,1.6,1.5c1.7,1.4,2.7,2.3,3.1,2.8c0.6,0.8,0.9,1.6,0.9,2.5
	c0,1.4-0.7,2.6-2,3.5c-1.8,1.3-4,1.9-6.5,1.9c-2.1,0-3.6-0.4-4.6-1.2s-1.5-1.8-1.5-2.9c0-1.2,0.5-2.4,1.6-3.6
	c1.1-1.2,2.8-2.1,5.1-2.8c-0.4-0.4-0.6-0.7-0.6-1.1c0-0.3,0.1-0.6,0.3-0.9c0.2-0.3,0.9-0.9,2-1.9c-0.4,0-0.7,0.1-1,0.1
	c-1.4,0-2.4-0.4-3.2-1.2c-0.8-0.8-1.2-1.8-1.2-3.2c0-2.1,0.8-3.9,2.3-5.4c1.5-1.5,3.4-2.2,5.5-2.2c1,0,1.8,0.2,2.4,0.5
	c0.6,0.3,1.2,0.8,1.6,1.5c0.9,0,2-0.1,3.1-0.2L484.7,142.7z M474.6,155.9c-1.8,0.5-3.2,1.2-4.1,2.1c-0.9,0.9-1.3,1.9-1.3,2.9
	c0,1.1,0.4,1.9,1.3,2.6c0.8,0.7,2.1,1,3.6,1c1.6,0,2.9-0.3,3.8-1c0.9-0.7,1.4-1.5,1.4-2.4c0-0.5-0.1-0.9-0.4-1.3
	c-0.4-0.6-1-1.2-1.8-2L474.6,155.9z M480,144.1c0-1-0.1-1.7-0.4-2.2c-0.2-0.5-0.6-0.9-1.1-1.2c-0.5-0.3-1-0.4-1.7-0.4
	c-1.2,0-2.2,0.5-2.9,1.4c-0.9,1.1-1.3,2.6-1.3,4.5c0,1.3,0.3,2.3,0.9,2.9c0.6,0.6,1.4,1,2.4,1c0.8,0,1.4-0.2,2-0.6
	c0.6-0.4,1-1.1,1.5-2.1C479.7,146.3,480,145.2,480,144.1z"/>
	
	<path d="M486.3,143l-0.3-0.7c1.9-1.3,3.2-2.2,4.1-2.7c0.6-0.3,1-0.4,1.4-0.4c0.3,0,0.5,0.1,0.6,0.2s0.2,0.4,0.2,0.7
	c0,0.2-0.1,0.9-0.3,1.9c-0.2,1-0.5,2.5-0.9,4.3c1.5-2.3,3.2-4.1,4.9-5.3c1.7-1.2,3.1-1.8,4-1.8c0.3,0,0.5,0.1,0.7,0.3
	s0.3,0.4,0.3,0.7c0,0.5-0.4,2.6-1.2,6.3c1.2-1.7,2.4-3.1,3.5-4.1s2.4-1.8,3.7-2.5c1-0.5,1.8-0.7,2.4-0.7c0.3,0,0.5,0.1,0.6,0.2
	c0.2,0.2,0.2,0.4,0.2,0.7c0,0.7-0.7,3.5-2,8.6c-0.7,2.6-1,4.2-1,4.6c0,0.2,0,0.4,0.1,0.5c0.1,0.1,0.2,0.2,0.4,0.2
	c0.2,0,0.4-0.1,0.6-0.2c0.4-0.2,1.2-0.7,2.2-1.4l0.3,0.7c-2,1.4-3.4,2.3-4.2,2.7c-0.5,0.3-0.9,0.4-1.3,0.4c-0.3,0-0.6-0.1-0.8-0.4
	c-0.2-0.2-0.3-0.6-0.3-1c0-0.5,0.4-2.1,1.2-4.8c1.2-4,1.8-6.7,1.8-8.1c0-0.2,0-0.4-0.1-0.5s-0.2-0.2-0.4-0.2
	c-0.7,0-1.6,0.5-2.9,1.5c-1.7,1.3-2.9,2.9-3.9,4.7c-0.8,1.6-1.5,4.3-2.1,8.2c-0.7,0.1-1.5,0.3-2.4,0.5l-0.3-0.2
	c1.2-4.5,2-7.7,2.3-9.6s0.5-3.3,0.5-4.2c0-0.3,0-0.5-0.1-0.6c-0.1-0.1-0.2-0.2-0.4-0.2c-0.6,0-1.3,0.4-2.3,1.2
	c-1.7,1.4-2.9,3-3.8,4.7c-0.8,1.8-1.6,4.6-2.2,8.4c-0.8,0.1-1.5,0.3-2.4,0.5l-0.2-0.3c1-3.4,1.7-6.4,2.2-9.2
	c0.4-2.1,0.6-3.6,0.6-4.3c0-0.3-0.1-0.6-0.2-0.7s-0.2-0.2-0.4-0.2C488.6,141.5,487.7,142,486.3,143z"/>
	
	<path d="M526.5,139.2l0.4,0.3c-1.1,3.9-2,7.3-2.6,10.3c-0.4,1.7-0.5,2.9-0.5,3.4c0,0.2,0,0.4,0.1,0.5c0.1,0.1,0.2,0.2,0.4,0.2
	c0.4,0,1.2-0.5,2.5-1.6l0.2,0.8c-1.2,1.1-2.4,1.9-3.6,2.6c-0.6,0.3-1,0.5-1.4,0.5c-0.3,0-0.5-0.1-0.7-0.3
	c-0.1-0.2-0.2-0.5-0.2-0.9c0-0.9,0.4-2.9,1.2-5.8l-0.1,0c-1.6,2.3-3.3,4.2-5.2,5.7c-1.2,1-2.1,1.5-2.7,1.5c-0.3,0-0.6-0.2-0.8-0.5
	c-0.3-0.5-0.4-1.3-0.4-2.3c0-1.7,0.3-3.7,1-6c0.7-2.3,1.4-4,2.1-5c0.5-0.8,1.6-1.6,3.1-2.4c1-0.5,2-0.8,3-0.8c0.5,0,0.9,0,1.5,0.1
	c0.5,0.1,1.1,0.2,1.7,0.4L526.5,139.2z M523.9,141.4c-0.5-0.2-1-0.3-1.4-0.4c-0.4-0.1-0.9-0.1-1.3-0.1c-0.9,0-1.7,0.2-2.4,0.5
	c-0.2,0.1-0.5,0.5-0.8,1.1c-0.6,1.3-1.2,3-1.7,5c-0.5,2-0.8,3.8-0.8,5.3c0,0.4,0.1,0.7,0.2,0.9c0.1,0.2,0.3,0.3,0.4,0.3
	c0.5,0,1.3-0.6,2.6-1.8s2.2-2.4,2.9-3.7C522.6,146.6,523.4,144.3,523.9,141.4z"/>
	
	<path d="M529.3,143l-0.3-0.7c2.8-2.1,4.7-3.2,5.6-3.2c0.3,0,0.5,0.1,0.6,0.2c0.1,0.2,0.2,0.4,0.2,0.7c0,0.7-0.3,2.1-0.8,4
	c-1.3,5-2,8.1-2,9.1c0,0.4,0.2,0.6,0.5,0.6c0.4,0,1.3-0.5,2.8-1.5l0.3,0.7c-1.6,1.3-3,2.3-4,2.9c-0.4,0.3-0.8,0.4-1.2,0.4
	c-0.3,0-0.6-0.1-0.8-0.4s-0.3-0.7-0.3-1.2c0-0.7,0.3-2.2,0.9-4.5c1.2-4.4,1.8-7,1.8-7.9c0-0.4-0.2-0.6-0.5-0.6
	C531.7,141.5,530.7,142,529.3,143z M533.6,133.2c0-0.6,0.2-1.1,0.6-1.5s0.9-0.7,1.4-0.7c0.4,0,0.7,0.1,0.9,0.4
	c0.2,0.3,0.3,0.6,0.3,1.1c0,0.6-0.2,1.2-0.6,1.6c-0.4,0.4-0.8,0.6-1.3,0.6c-0.4,0-0.7-0.1-1-0.4
	C533.7,134,533.6,133.7,533.6,133.2z"/>
	
	<path d="M540.2,132.5l0.1-0.7c2.4-0.3,4.2-0.8,5.6-1.4l0.5,0.3l-2.1,9.9l-0.3,1.7l-1.8,8.8c-0.2,1.2-0.3,2-0.3,2.4
	c0,0.2,0,0.4,0.1,0.5c0.1,0.1,0.2,0.2,0.4,0.2c0.5,0,1.5-0.7,3.1-2l0.4,0.7c-1.4,1.2-2.8,2.2-4.1,2.9c-0.7,0.4-1.2,0.6-1.6,0.6
	c-0.3,0-0.6-0.1-0.8-0.4c-0.2-0.2-0.3-0.6-0.3-1c0-0.1,0-0.4,0.1-0.8l0.6-3c0.6-3,1.2-5.6,1.7-7.8l0.4-1.7
	c0.4-1.8,0.7-3.9,1.1-6.1c0.1-1.1,0.2-1.8,0.2-2.3c0-0.4-0.1-0.6-0.3-0.7C542.6,132.5,541.7,132.5,540.2,132.5z"/>
	
	<path d="M551,156.2c-0.5,0-0.8-0.2-1.1-0.5c-0.3-0.3-0.4-0.7-0.4-1.3c0-0.7,0.2-1.3,0.6-1.8c0.4-0.5,0.9-0.7,1.4-0.7
	c0.4,0,0.8,0.2,1.1,0.5c0.3,0.3,0.4,0.7,0.4,1.2c0,0.7-0.2,1.3-0.6,1.8C552,156,551.5,156.2,551,156.2z"/>
	
	<path d="M569.4,144.4h-0.8c0-0.9,0.1-1.5,0.1-1.9c0-0.4-0.2-0.8-0.6-1c-0.6-0.4-1.4-0.6-2.3-0.6c-1.2,0-2.1,0.3-2.8,0.8
	c-0.7,0.5-1.3,1.7-1.9,3.4c-0.6,1.8-0.9,3.6-0.9,5.6c0,1.2,0.3,2.1,0.8,2.7c0.6,0.6,1.3,0.9,2.1,0.9c0.8,0,1.6-0.2,2.4-0.5
	c0.9-0.3,2-1,3.3-2l0.3,0.7c-1.7,1.5-3.1,2.4-4.2,2.9s-2.1,0.8-3.1,0.8c-1.4,0-2.4-0.4-3.2-1.3c-0.7-0.9-1.1-2.1-1.1-3.8
	c0-1.7,0.3-3.3,0.8-5c0.6-1.7,1.3-3,2.2-3.9c0.9-0.9,2.3-1.7,4.1-2.5c0.8-0.4,1.7-0.5,2.6-0.5c0.5,0,1,0.1,1.4,0.2
	c0.4,0.1,0.9,0.4,1.5,0.7C569.8,141.4,569.5,142.9,569.4,144.4z"/>
	
	<path d="M571.2,150.7c0-3.6,0.9-6.5,2.8-8.5c1.9-2,3.9-3,6.2-3c1.5,0,2.7,0.4,3.5,1.3c0.8,0.9,1.2,2.2,1.2,3.9
	c0,2.1-0.5,4.1-1.4,6c-0.9,1.9-2.1,3.4-3.5,4.3c-1.4,1-2.8,1.4-4.3,1.4c-1.4,0-2.6-0.5-3.4-1.4C571.6,154,571.2,152.6,571.2,150.7
	z M573.9,150.5c0,1.6,0.3,2.7,0.8,3.4c0.6,0.7,1.4,1,2.4,1c1.5,0,2.7-0.8,3.5-2.5c1.1-2.2,1.6-4.6,1.6-7.4c0-1.6-0.3-2.8-0.9-3.5
	c-0.6-0.7-1.4-1-2.5-1c-0.9,0-1.6,0.3-2.3,0.9c-0.7,0.6-1.3,1.8-1.9,3.5C574.2,146.5,573.9,148.4,573.9,150.5z"/>
	
	<path d="M587.1,143l-0.3-0.7c1.9-1.3,3.2-2.2,4.1-2.7c0.6-0.3,1-0.4,1.4-0.4c0.3,0,0.5,0.1,0.6,0.2s0.2,0.4,0.2,0.7
	c0,0.2-0.1,0.9-0.3,1.9c-0.2,1-0.5,2.5-0.9,4.3c1.5-2.3,3.2-4.1,4.9-5.3c1.7-1.2,3.1-1.8,4-1.8c0.3,0,0.5,0.1,0.7,0.3
	s0.3,0.4,0.3,0.7c0,0.5-0.4,2.6-1.2,6.3c1.2-1.7,2.4-3.1,3.5-4.1s2.4-1.8,3.7-2.5c1-0.5,1.8-0.7,2.4-0.7c0.3,0,0.5,0.1,0.6,0.2
	c0.2,0.2,0.2,0.4,0.2,0.7c0,0.7-0.7,3.5-2,8.6c-0.7,2.6-1,4.2-1,4.6c0,0.2,0,0.4,0.1,0.5c0.1,0.1,0.2,0.2,0.4,0.2
	c0.2,0,0.4-0.1,0.6-0.2c0.4-0.2,1.2-0.7,2.2-1.4l0.3,0.7c-2,1.4-3.4,2.3-4.2,2.7c-0.5,0.3-0.9,0.4-1.3,0.4c-0.3,0-0.6-0.1-0.8-0.4
	c-0.2-0.2-0.3-0.6-0.3-1c0-0.5,0.4-2.1,1.2-4.8c1.2-4,1.8-6.7,1.8-8.1c0-0.2,0-0.4-0.1-0.5s-0.2-0.2-0.4-0.2
	c-0.7,0-1.6,0.5-2.9,1.5c-1.7,1.3-2.9,2.9-3.9,4.7c-0.8,1.6-1.5,4.3-2.1,8.2c-0.7,0.1-1.5,0.3-2.4,0.5l-0.3-0.2
	c1.2-4.5,2-7.7,2.3-9.6s0.5-3.3,0.5-4.2c0-0.3,0-0.5-0.1-0.6c-0.1-0.1-0.2-0.2-0.4-0.2c-0.6,0-1.3,0.4-2.3,1.2
	c-1.7,1.4-2.9,3-3.8,4.7c-0.8,1.8-1.6,4.6-2.2,8.4c-0.8,0.1-1.5,0.3-2.4,0.5l-0.2-0.3c1-3.4,1.7-6.4,2.2-9.2
	c0.4-2.1,0.6-3.6,0.6-4.3c0-0.3-0.1-0.6-0.2-0.7s-0.2-0.2-0.4-0.2C589.4,141.5,588.5,142,587.1,143z"/>
	
</g>

<g class="Phone">

<g class="_x32_3">

	<path class="st0" d="M664,262H256c-6.6,0-12-5.4-12-12v-35c0-6.6,5.4-12,12-12h408c6.6,0,12,5.4,12,12v35
	C676,256.6,670.6,262,664,262z"/>
	
<g class="_x32_2">
	
	<path d="M125.4,245.9v-1l1.1-0.1c0.7,0,1.2-0.1,1.4-0.3c0.2-0.2,0.4-0.5,0.5-1.1c0.3-1.4,1-4.8,1.9-10.5c0.9-5.6,1.4-8.7,1.4-9.2
	c0-0.5-0.1-0.8-0.4-0.9c-0.3-0.2-1.2-0.3-2.7-0.4v-0.9c2.4,0.1,3.9,0.2,4.7,0.2c0.7,0,1.8,0,3.2-0.1c1.3-0.1,2.2-0.1,2.8-0.1
	c1.6,0,2.8,0.2,3.7,0.6c0.8,0.4,1.5,1,2,1.8c0.5,0.8,0.7,1.8,0.7,3c0,1.5-0.4,2.9-1.2,4.3c-0.8,1.4-1.8,2.5-3,3.3
	c-1.2,0.8-2.6,1.1-4,1.1c-1.1,0-2.1-0.3-3.1-0.8v-1.1c1,0.4,1.9,0.6,2.6,0.6c1.7,0,3.1-0.7,4.1-2c1-1.3,1.6-3,1.6-4.9
	c0-1.5-0.4-2.6-1.3-3.4s-2.1-1.2-3.7-1.2c-0.7,0-1.6,0.1-2.8,0.3c-1,5.1-1.9,10.1-2.7,15.1c-0.5,2.8-0.7,4.6-0.7,5.3
	c0,0.4,0.1,0.7,0.4,0.9s1.3,0.3,3.1,0.4v1c-2.5-0.1-4.3-0.1-5.5-0.1C128.1,245.8,126.7,245.8,125.4,245.9z"/>
	
	<path d="M146.4,246.2l-0.3-0.3c0.9-3.1,2.1-8.4,3.5-15.9c0.8-4,1.2-6.2,1.2-6.6c0-0.5-0.2-0.8-0.5-0.9c-0.2-0.1-1-0.1-2.4-0.1
	l0.1-0.7c1.9-0.2,3.8-0.7,5.7-1.4l0.4,0.4c-1.9,8.4-3,13.7-3.3,15.8c2.2-2.8,4.2-4.7,5.9-5.8s3.1-1.6,4.1-1.6
	c0.3,0,0.6,0.1,0.8,0.3c0.2,0.2,0.3,0.5,0.3,0.9c0,0.4,0,0.9-0.1,1.3c-0.2,1.1-0.7,3.3-1.6,6.6c-0.7,2.8-1.1,4.5-1.1,5.1
	c0,0.4,0.2,0.6,0.5,0.6c0.2,0,0.4,0,0.6-0.1s0.7-0.4,1.4-0.9l1-0.7l0.3,0.6c-2.1,1.6-3.6,2.5-4.2,2.9c-0.5,0.3-0.9,0.4-1.3,0.4
	c-0.3,0-0.6-0.1-0.8-0.4s-0.3-0.6-0.3-1c0-0.5,0.3-1.8,0.8-3.8c1.3-5,1.9-7.9,1.9-8.7c0-0.3-0.1-0.6-0.2-0.7s-0.3-0.2-0.6-0.2
	c-0.7,0-1.7,0.5-3.1,1.6c-1.8,1.4-3.2,3-4.1,4.8c-0.9,1.8-1.6,4.4-2.2,7.9C147.9,245.8,147.1,245.9,146.4,246.2z"/>
	
	<path d="M164.3,240.7c0-3.6,0.9-6.5,2.8-8.5c1.9-2,3.9-3,6.2-3c1.5,0,2.7,0.4,3.5,1.3c0.8,0.9,1.2,2.2,1.2,3.9
	c0,2.1-0.5,4.1-1.4,6c-0.9,1.9-2.1,3.4-3.5,4.3c-1.4,1-2.8,1.4-4.3,1.4c-1.4,0-2.6-0.5-3.4-1.4C164.7,244,164.3,242.6,164.3,240.7
	z M167,240.5c0,1.6,0.3,2.7,0.8,3.4c0.6,0.7,1.4,1,2.4,1c1.5,0,2.7-0.8,3.5-2.5c1.1-2.2,1.6-4.6,1.6-7.4c0-1.6-0.3-2.8-0.9-3.5
	c-0.6-0.7-1.4-1-2.5-1c-0.9,0-1.6,0.3-2.3,0.9c-0.7,0.6-1.3,1.8-1.9,3.5C167.2,236.5,167,238.4,167,240.5z"/>
	
	<path d="M180.1,233.1l-0.3-0.7c1.8-1.3,3.3-2.3,4.3-2.8c0.5-0.3,0.9-0.4,1.3-0.4c0.3,0,0.5,0.1,0.6,0.2c0.1,0.2,0.2,0.4,0.2,0.7
	c0,0.2,0,0.6-0.1,1l-1.3,5.9c1-1.6,2.2-3,3.5-4.3c1.3-1.3,2.6-2.2,3.8-2.8c1.2-0.6,2.2-0.9,2.8-0.9c0.3,0,0.6,0.1,0.7,0.3
	s0.3,0.5,0.3,0.8c0,0.3,0,0.7-0.1,1c-0.1,0.6-0.7,2.9-1.6,6.9c-0.7,3-1.1,4.7-1.1,5.2c0,0.3,0.2,0.5,0.5,0.5c0.3,0,1-0.3,2-1
	l1.1-0.7l0.3,0.7c-2.8,2.2-4.7,3.2-5.6,3.2c-0.3,0-0.6-0.1-0.8-0.3c-0.2-0.2-0.3-0.5-0.3-0.9c0-0.7,0.4-2.5,1.1-5.3
	c1.1-4,1.6-6.5,1.6-7.5c0-0.2-0.1-0.4-0.2-0.6c-0.1-0.1-0.3-0.2-0.5-0.2c-0.7,0-1.6,0.5-2.8,1.4c-1.7,1.4-3.1,3-4,4.9
	s-1.7,4.6-2.2,8c-0.6,0.1-1.4,0.3-2.4,0.5l-0.3-0.3c0.8-2.8,1.6-5.8,2.2-9c0.5-2.5,0.7-4,0.7-4.7c0-0.2,0-0.4-0.1-0.5
	c-0.1-0.1-0.2-0.2-0.4-0.2C182.5,231.5,181.6,232.1,180.1,233.1z"/>
	
	<path d="M210.1,241.9l0.2,0.7c-1.6,1.4-3,2.3-4,2.8c-1.1,0.5-2.1,0.7-3,0.7c-1.3,0-2.4-0.4-3.1-1.2c-0.7-0.8-1.1-1.9-1.1-3.4
	c0-1.5,0.3-3.3,0.9-5.2c0.6-1.9,1.3-3.3,2.1-4.1c0.8-0.8,2.1-1.7,3.8-2.5c1-0.5,1.8-0.7,2.6-0.7c0.9,0,1.7,0.3,2.2,0.8
	c0.5,0.5,0.8,1.2,0.8,1.9c0,3.1-3.2,5.3-9.6,6.5c-0.2,1.4-0.3,2.4-0.3,3c0,0.9,0.3,1.7,0.8,2.2c0.5,0.6,1.2,0.8,2,0.8
	c0.6,0,1.3-0.2,2.1-0.5C207.4,243.7,208.6,243,210.1,241.9z M202.2,237.6c2.3-0.4,4-1.1,5.1-2c1.1-0.9,1.6-2,1.6-3.1
	c0-0.6-0.1-1.1-0.4-1.4c-0.3-0.3-0.7-0.5-1.2-0.5c-0.7,0-1.4,0.2-2.1,0.6c-0.7,0.4-1.2,1.1-1.6,1.9
	C203,234.3,202.6,235.8,202.2,237.6z"/>
	
	<path d="M215.7,246.2c-0.5,0-0.8-0.2-1.1-0.5c-0.3-0.3-0.4-0.7-0.4-1.3c0-0.7,0.2-1.3,0.6-1.8c0.4-0.5,0.9-0.7,1.5-0.7
	c0.5,0,0.8,0.2,1.1,0.5c0.3,0.3,0.4,0.7,0.4,1.2c0,0.7-0.2,1.3-0.6,1.8C216.7,246,216.2,246.2,215.7,246.2z M217.8,233.4
	c-0.5,0-0.8-0.2-1.1-0.5c-0.3-0.3-0.4-0.7-0.4-1.3c0-0.7,0.2-1.3,0.6-1.8c0.4-0.5,0.9-0.7,1.5-0.7c0.5,0,0.8,0.2,1.1,0.5
	c0.3,0.3,0.4,0.7,0.4,1.3c0,0.7-0.2,1.3-0.6,1.8C218.8,233.1,218.3,233.4,217.8,233.4z"/>
	
	<g class="_x32_1">
	
	<path d="M270.6,233.9v-2.4h7.4v-7.4h2.4v7.4h7.4v2.4h-7.4v7.4H278v-7.4H270.6z"/>
	
	<path d="M290.2,244.9v-0.7c5.1-5.2,8.4-9.1,10-11.8c1.2-2,1.8-3.8,1.8-5.5c0-1.3-0.3-2.4-1-3.1c-0.7-0.7-1.6-1.1-2.8-1.1
	c-1,0-1.9,0.3-2.7,0.8c-0.8,0.6-1.6,1.6-2.4,3.1l-0.8-0.4l2.1-4.1c0.7-0.5,1.5-1,2.3-1.2c0.8-0.3,1.6-0.4,2.4-0.4
	c1.8,0,3.2,0.5,4.3,1.6s1.6,2.4,1.6,4.2c0,0.8-0.1,1.6-0.3,2.3c-0.2,0.7-0.6,1.6-1.2,2.5s-1.6,2.3-3.2,4l-6.7,7.1v0.2h5.2
	c2.1,0,4.1-0.1,5.9-0.2l0.2,0.2c-0.1,0.3-0.3,1.1-0.6,2.4c-2.4-0.1-4.9-0.1-7.5-0.1C294.6,244.8,292.4,244.8,290.2,244.9z"/>
	
	<path d="M308.3,238.7l0.9,0.1c-0.1,0.5-0.1,1-0.1,1.2c0,1.2,0.4,2,1.1,2.7c0.9,0.8,2,1.1,3.3,1.1c1.1,0,2-0.3,2.9-0.9
	c0.9-0.6,1.6-1.5,2.2-2.8s0.9-2.6,0.9-4.1c0-1.5-0.4-2.6-1.2-3.4s-1.8-1.2-3.1-1.2c-0.8,0-1.5,0.2-2.2,0.5
	c-0.7,0.3-1.4,0.9-2.1,1.7l-0.8-0.4c0.8-3.7,1.6-7.7,2.2-12l0.3-0.3c2.1,0.2,4.1,0.3,6,0.3c1.4,0,3.2-0.1,5.3-0.2l0.2,0.3
	c-0.6,1-1,1.7-1.3,2c-1.8,0.1-3.3,0.1-4.6,0.1c-1.4,0-3,0-4.9-0.1l-1.7,8.1c0.9-0.6,1.7-1.1,2.3-1.3c0.7-0.2,1.5-0.3,2.3-0.3
	c2,0,3.5,0.5,4.5,1.5c1.1,1,1.6,2.4,1.6,4.2c0,1.7-0.4,3.3-1.2,4.7c-0.8,1.4-2,2.6-3.5,3.5c-1.5,0.9-3.2,1.3-4.9,1.3
	c-1,0-1.9-0.1-2.7-0.4s-1.7-0.7-2.6-1.3C307.8,241.7,308.1,240.1,308.3,238.7z"/>
	
	<path d="M327,244.9l0.1-1l1.6-0.1c1-0.1,1.6-0.2,2-0.4c0.3-0.2,0.5-0.4,0.7-0.8s0.4-1.3,0.7-2.7l1.5-9.2c0.5-2.8,0.9-5.4,1.2-7.8
	c-1.3,0.5-3.5,1.4-6.6,2.8h-0.2c0.1-0.8,0.2-1.5,0.3-2.1c1.6-0.3,3.3-0.8,5-1.4c1.8-0.6,3.2-1.2,4.3-1.7l0.5,0.4
	c-0.9,4.6-1.6,8.1-2,10.4l-1.4,9.3c0,0.4-0.1,0.9-0.1,1.3c0,0.8,0.2,1.3,0.6,1.5c0.4,0.2,1.7,0.3,3.8,0.5l-0.2,1
	c-2.2-0.1-4-0.1-5.6-0.1C331.7,244.8,329.6,244.8,327,244.9z"/>
	
	<path d="M352.4,240.9l0.8-0.3c0.6,1.1,1.2,1.8,1.8,2.2c0.6,0.4,1.3,0.6,2.2,0.6c1.9,0,3.5-1,4.8-3c1.2-2,2.2-4.9,2.8-8.6
	c-1.2,1.4-2.2,2.3-3,2.8s-1.7,0.6-2.7,0.6c-1.6,0-2.8-0.5-3.8-1.6s-1.4-2.5-1.4-4.3c0-2.5,0.8-4.5,2.4-6.1
	c1.9-1.9,3.9-2.8,5.9-2.8c1.8,0,3.1,0.6,4.1,1.8s1.5,3.2,1.5,5.8c0,3.2-0.6,6.2-1.8,8.9c-1.2,2.7-2.7,4.8-4.4,6.1s-3.5,2-5.2,2
	c-0.4,0-0.9-0.1-1.3-0.2c-0.5-0.1-0.9-0.3-1.4-0.5C353.3,243.6,352.9,242.4,352.4,240.9z M364.9,227.1c0-1.6-0.4-2.9-1.1-3.8
	c-0.7-0.9-1.7-1.3-2.8-1.3c-1.2,0-2.3,0.6-3.2,1.8c-0.9,1.2-1.4,2.8-1.4,4.7c0,1.7,0.3,2.9,1,3.7c0.7,0.8,1.6,1.2,2.8,1.2
	c0.8,0,1.6-0.3,2.4-0.8c0.7-0.5,1.3-1.2,1.7-2.1C364.7,229.8,364.9,228.6,364.9,227.1z"/>
	
	<path d="M369,244.9v-0.7c5.1-5.2,8.4-9.1,10-11.8c1.2-2,1.8-3.8,1.8-5.5c0-1.3-0.3-2.4-1-3.1c-0.7-0.7-1.6-1.1-2.8-1.1
	c-1,0-1.9,0.3-2.7,0.8c-0.8,0.6-1.6,1.6-2.4,3.1l-0.8-0.4l2.1-4.1c0.7-0.5,1.5-1,2.3-1.2c0.8-0.3,1.6-0.4,2.4-0.4
	c1.8,0,3.2,0.5,4.3,1.6s1.6,2.4,1.6,4.2c0,0.8-0.1,1.6-0.3,2.3c-0.2,0.7-0.6,1.6-1.2,2.5s-1.6,2.3-3.2,4l-6.7,7.1v0.2h5.2
	c2.1,0,4.1-0.1,5.9-0.2l0.2,0.2c-0.1,0.3-0.3,1.1-0.6,2.4c-2.4-0.1-4.9-0.1-7.5-0.1C373.3,244.8,371.1,244.8,369,244.9z"/>
	
	<path d="M387.6,238.6l0.9,0.1c-0.1,0.7-0.2,1.3-0.2,1.6c0,1,0.4,1.9,1.2,2.5c0.8,0.7,1.8,1,3.1,1c1.6,0,3-0.7,4.2-2
	c1.1-1.3,1.7-3,1.7-5c0-1.5-0.4-2.7-1.2-3.5c-0.8-0.8-2-1.2-3.6-1.2c-0.8,0-1.7,0.1-2.7,0.4l-0.2-0.1l0.6-1.7
	c0.9,0.1,1.4,0.2,1.7,0.2c0.9,0,1.8-0.2,2.7-0.7c0.9-0.5,1.5-1.1,2-1.9c0.5-0.8,0.7-1.6,0.7-2.4c0-1-0.3-1.8-0.9-2.4
	c-0.6-0.6-1.5-0.9-2.6-0.9c-0.9,0-1.6,0.2-2.3,0.6s-1.4,1.2-2.3,2.3l-0.7-0.5c0.8-1.2,1.4-2.3,2-3.4c0.7-0.4,1.5-0.6,2.1-0.8
	c0.7-0.2,1.4-0.3,2-0.3c1.7,0,3,0.4,3.9,1.3s1.4,2,1.4,3.3c0,0.7-0.1,1.4-0.4,2.1c-0.3,0.7-0.7,1.3-1.2,1.7
	c-0.5,0.5-1.6,1.2-3.3,2.2c1.6,0.4,2.6,0.8,3.2,1.2c0.6,0.4,1.1,1,1.5,1.8s0.6,1.6,0.6,2.6c0,1.4-0.4,2.8-1.3,4.1
	c-0.8,1.3-2,2.4-3.5,3.2c-1.5,0.8-3.1,1.2-4.9,1.2c-1,0-1.9-0.1-2.7-0.4c-0.8-0.2-1.7-0.7-2.6-1.3
	C387,241.9,387.3,240.2,387.6,238.6z"/>
	
	<path d="M413.8,236.5c0-3.2,0.5-6.2,1.6-9c0.9-2.5,2-4.2,3.4-5.3c1.4-1.1,2.8-1.6,4.4-1.6c1.8,0,3.3,0.7,4.4,2s1.6,3.5,1.6,6.4
	c0,3.2-0.5,6.3-1.6,9.2c-0.9,2.5-2,4.2-3.4,5.4s-2.9,1.7-4.4,1.7c-1.8,0-3.3-0.7-4.3-2.1S413.8,239.5,413.8,236.5z M416.4,238.2
	c0,2.1,0.3,3.6,1,4.5s1.5,1.4,2.5,1.4c0.9,0,1.6-0.3,2.3-1c1.1-1.1,2.1-3.2,3-6.1s1.3-6,1.3-9.3c0-2.3-0.3-4-0.9-4.8
	c-0.6-0.9-1.5-1.3-2.5-1.3c-1.1,0-2.1,0.6-3.2,1.9c-1,1.2-1.8,3.4-2.5,6.4C416.7,232.9,416.4,235.7,416.4,238.2z"/>
	
	<path d="M430.2,244.9v-0.7c5.1-5.2,8.4-9.1,10-11.8c1.2-2,1.8-3.8,1.8-5.5c0-1.3-0.3-2.4-1-3.1c-0.7-0.7-1.6-1.1-2.8-1.1
	c-1,0-1.9,0.3-2.7,0.8c-0.8,0.6-1.6,1.6-2.4,3.1l-0.8-0.4l2.1-4.1c0.7-0.5,1.5-1,2.3-1.2c0.8-0.3,1.6-0.4,2.4-0.4
	c1.8,0,3.2,0.5,4.3,1.6s1.6,2.4,1.6,4.2c0,0.8-0.1,1.6-0.3,2.3c-0.2,0.7-0.6,1.6-1.2,2.5s-1.6,2.3-3.2,4l-6.7,7.1v0.2h5.2
	c2.1,0,4.1-0.1,5.9-0.2l0.2,0.2c-0.1,0.3-0.3,1.1-0.6,2.4c-2.4-0.1-4.9-0.1-7.5-0.1C434.6,244.8,432.4,244.8,430.2,244.9z"/>
	
	<path d="M457.4,240.9l0.8-0.3c0.6,1.1,1.2,1.8,1.8,2.2c0.6,0.4,1.3,0.6,2.2,0.6c1.9,0,3.5-1,4.8-3c1.2-2,2.2-4.9,2.8-8.6
	c-1.2,1.4-2.2,2.3-3,2.8s-1.7,0.6-2.7,0.6c-1.6,0-2.8-0.5-3.8-1.6s-1.4-2.5-1.4-4.3c0-2.5,0.8-4.5,2.4-6.1
	c1.9-1.9,3.9-2.8,5.9-2.8c1.8,0,3.1,0.6,4.1,1.8s1.5,3.2,1.5,5.8c0,3.2-0.6,6.2-1.8,8.9c-1.2,2.7-2.7,4.8-4.4,6.1s-3.5,2-5.2,2
	c-0.4,0-0.9-0.1-1.3-0.2c-0.5-0.1-0.9-0.3-1.4-0.5C458.3,243.6,457.9,242.4,457.4,240.9z M469.9,227.1c0-1.6-0.4-2.9-1.1-3.8
	c-0.7-0.9-1.7-1.3-2.8-1.3c-1.2,0-2.3,0.6-3.2,1.8c-0.9,1.2-1.4,2.8-1.4,4.7c0,1.7,0.3,2.9,1,3.7c0.7,0.8,1.6,1.2,2.8,1.2
	c0.8,0,1.6-0.3,2.4-0.8c0.7-0.5,1.3-1.2,1.7-2.1C469.7,229.8,469.9,228.6,469.9,227.1z"/>
	
	<path d="M484.7,231.6c1.5,0.8,2.5,1.5,2.9,2.1c0.7,0.9,1,1.9,1,3.2c0,1.4-0.4,2.7-1.2,4c-0.8,1.3-1.9,2.3-3.2,3.1
	c-1.4,0.8-2.8,1.2-4.2,1.2c-1.4,0-2.6-0.4-3.6-1.3c-1-0.9-1.6-2.1-1.6-3.8c0-1.4,0.5-2.8,1.4-4c0.9-1.2,2.5-2.4,4.9-3.6
	c-1.3-0.6-2.2-1.3-2.7-2.1c-0.5-0.8-0.8-1.7-0.8-2.6c0-1.8,0.8-3.5,2.4-5c1.6-1.5,3.4-2.2,5.3-2.2c1.4,0,2.6,0.4,3.4,1.2
	c0.8,0.8,1.2,1.8,1.2,3.2c0,1.2-0.3,2.2-1,3.2C488.2,229.1,486.8,230.3,484.7,231.6z M482.1,233.1c-1.2,0.6-2.1,1.2-2.8,1.8
	c-0.6,0.6-1.1,1.4-1.5,2.2c-0.4,0.8-0.5,1.7-0.5,2.5c0,1.2,0.4,2.2,1.1,3c0.7,0.8,1.6,1.1,2.8,1.1c1.4,0,2.5-0.5,3.3-1.5
	c1-1.1,1.5-2.5,1.5-4.2c0-1.2-0.3-2.2-1-2.9C484.7,234.6,483.7,233.9,482.1,233.1z M483.7,231.1c1.4-1,2.3-1.9,2.9-2.8
	c0.6-0.9,0.8-1.9,0.8-2.9c0-1-0.3-1.8-0.9-2.4c-0.6-0.6-1.4-0.9-2.4-0.9c-1.2,0-2.1,0.4-2.9,1.3c-0.8,0.9-1.2,1.9-1.2,3.2
	c0,0.9,0.2,1.7,0.7,2.4C481.2,229.5,482.2,230.3,483.7,231.1z"/>
	
	<path d="M501.3,238.6l0.9,0.1c-0.1,0.7-0.2,1.3-0.2,1.6c0,1,0.4,1.9,1.2,2.5c0.8,0.7,1.8,1,3.1,1c1.6,0,3-0.7,4.2-2
	c1.1-1.3,1.7-3,1.7-5c0-1.5-0.4-2.7-1.2-3.5c-0.8-0.8-2-1.2-3.6-1.2c-0.8,0-1.7,0.1-2.7,0.4l-0.2-0.1l0.6-1.7
	c0.9,0.1,1.4,0.2,1.7,0.2c0.9,0,1.8-0.2,2.7-0.7c0.9-0.5,1.5-1.1,2-1.9c0.5-0.8,0.7-1.6,0.7-2.4c0-1-0.3-1.8-0.9-2.4
	c-0.6-0.6-1.5-0.9-2.6-0.9c-0.9,0-1.6,0.2-2.3,0.6s-1.4,1.2-2.3,2.3l-0.7-0.5c0.8-1.2,1.4-2.3,2-3.4c0.7-0.4,1.5-0.6,2.1-0.8
	c0.7-0.2,1.4-0.3,2-0.3c1.7,0,3,0.4,3.9,1.3s1.4,2,1.4,3.3c0,0.7-0.1,1.4-0.4,2.1c-0.3,0.7-0.7,1.3-1.2,1.7
	c-0.5,0.5-1.6,1.2-3.3,2.2c1.6,0.4,2.6,0.8,3.2,1.2c0.6,0.4,1.1,1,1.5,1.8s0.6,1.6,0.6,2.6c0,1.4-0.4,2.8-1.3,4.1
	c-0.8,1.3-2,2.4-3.5,3.2c-1.5,0.8-3.1,1.2-4.9,1.2c-1,0-1.9-0.1-2.7-0.4c-0.8-0.2-1.7-0.7-2.6-1.3
	C500.7,241.9,501,240.2,501.3,238.6z"/>
	
	<path d="M518.3,238.7l0.9,0.1c-0.1,0.5-0.1,1-0.1,1.2c0,1.2,0.4,2,1.1,2.7c0.9,0.8,2,1.1,3.3,1.1c1.1,0,2-0.3,2.9-0.9
	c0.9-0.6,1.6-1.5,2.2-2.8s0.9-2.6,0.9-4.1c0-1.5-0.4-2.6-1.2-3.4s-1.8-1.2-3.1-1.2c-0.8,0-1.5,0.2-2.2,0.5
	c-0.7,0.3-1.4,0.9-2.1,1.7l-0.8-0.4c0.8-3.7,1.6-7.7,2.2-12l0.3-0.3c2.1,0.2,4.1,0.3,6,0.3c1.4,0,3.2-0.1,5.3-0.2l0.2,0.3
	c-0.6,1-1,1.7-1.3,2c-1.8,0.1-3.3,0.1-4.6,0.1c-1.4,0-3,0-4.9-0.1l-1.7,8.1c0.9-0.6,1.7-1.1,2.3-1.3c0.7-0.2,1.5-0.3,2.3-0.3
	c2,0,3.5,0.5,4.5,1.5c1.1,1,1.6,2.4,1.6,4.2c0,1.7-0.4,3.3-1.2,4.7c-0.8,1.4-2,2.6-3.5,3.5c-1.5,0.9-3.2,1.3-4.9,1.3
	c-1,0-1.9-0.1-2.7-0.4s-1.7-0.7-2.6-1.3C517.8,241.7,518.1,240.1,518.3,238.7z"/>
	
</g>

<g class="Instagram">

<g class="_x33_3">
	
	<path class="st0" d="M663,353H255c-6.6,0-12-5.4-12-12v-35c0-6.6,5.4-12,12-12h408c6.6,0,12,5.4,12,12v35
	C675,347.6,669.6,353,663,353z"/>
	
<g class="_x33_2">
	
	<path d="M67.7,333.9l0.1-1c1.4,0,2.2-0.1,2.4-0.3s0.4-0.5,0.6-1c0.3-0.8,0.9-4.2,1.9-10.1c1-5.9,1.5-9.2,1.5-9.9
	c0-0.4-0.1-0.7-0.4-0.8c-0.2-0.1-1-0.2-2.6-0.3l0.2-0.9c1.7,0.1,3.1,0.1,4.3,0.1c1.3,0,2.8,0,4.6-0.1v0.9c-1.4,0-2.2,0.1-2.5,0.2
	c-0.2,0.1-0.4,0.3-0.5,0.5s-0.4,1.3-0.7,3.2l-1.2,7.5l-1.3,8.2c-0.1,0.9-0.2,1.5-0.2,1.8c0,0.4,0.1,0.6,0.3,0.8
	c0.3,0.1,1.2,0.3,2.7,0.4l-0.1,1c-1.7-0.1-3.1-0.1-4.2-0.1C71.4,333.8,69.9,333.8,67.7,333.9z"/>
	
	<path d="M80.4,321.1l-0.3-0.7c1.8-1.3,3.3-2.3,4.3-2.8c0.5-0.3,0.9-0.4,1.3-0.4c0.3,0,0.5,0.1,0.6,0.2c0.1,0.2,0.2,0.4,0.2,0.7
	c0,0.2,0,0.6-0.1,1l-1.3,5.9c1-1.6,2.2-3,3.5-4.3c1.3-1.3,2.6-2.2,3.8-2.8c1.2-0.6,2.2-0.9,2.8-0.9c0.3,0,0.6,0.1,0.7,0.3
	s0.3,0.5,0.3,0.8c0,0.3,0,0.7-0.1,1c-0.1,0.6-0.7,2.9-1.6,6.9c-0.7,3-1.1,4.7-1.1,5.2c0,0.3,0.2,0.5,0.5,0.5c0.3,0,1-0.3,2-1
	l1.1-0.7l0.3,0.7c-2.8,2.2-4.7,3.2-5.6,3.2c-0.3,0-0.6-0.1-0.8-0.3c-0.2-0.2-0.3-0.5-0.3-0.9c0-0.7,0.4-2.5,1.1-5.3
	c1.1-4,1.6-6.5,1.6-7.5c0-0.2-0.1-0.4-0.2-0.6c-0.1-0.1-0.3-0.2-0.5-0.2c-0.7,0-1.6,0.5-2.8,1.4c-1.7,1.4-3.1,3-4,4.9
	s-1.7,4.6-2.2,8c-0.6,0.1-1.4,0.3-2.4,0.5l-0.3-0.3c0.8-2.8,1.6-5.8,2.2-9c0.5-2.5,0.7-4,0.7-4.7c0-0.2,0-0.4-0.1-0.5
	c-0.1-0.1-0.2-0.2-0.4-0.2C82.8,319.5,81.8,320.1,80.4,321.1z"/>
	
	<path d="M100.2,328.7h0.9l0,1.6l0,1.3c0.6,0.4,1.1,0.8,1.8,1c0.6,0.2,1.3,0.3,1.9,0.3c1.1,0,2-0.4,2.7-1.1
	c0.7-0.7,1.1-1.6,1.1-2.6c0-0.8-0.2-1.3-0.5-1.7c-0.4-0.4-1.1-0.6-2.3-0.8c-2-0.3-3.3-0.7-3.9-1.1c-0.8-0.6-1.2-1.5-1.2-2.7
	c0-0.9,0.3-1.7,0.8-2.5c0.5-0.8,1.5-1.5,2.9-2.4c1-0.6,2.1-0.9,3.1-0.9c0.5,0,1.1,0.1,1.7,0.2c0.6,0.1,1.2,0.4,1.7,0.7
	c-0.3,1-0.5,2.3-0.6,3.9h-0.8c0-0.5,0-0.9,0-1.3c0-0.6-0.1-0.9-0.4-1.1c-0.7-0.6-1.7-0.9-2.8-0.9c-1.2,0-2.1,0.3-2.7,0.9
	c-0.6,0.6-0.9,1.3-0.9,2.3c0,0.8,0.3,1.4,0.8,1.7c0.4,0.3,1.3,0.5,2.8,0.8c1.7,0.3,2.8,0.6,3.3,1c0.7,0.5,1,1.3,1,2.4
	c0,1.5-0.8,2.9-2.3,4.3c-1.6,1.4-3.3,2.1-5.2,2.1c-0.6,0-1.2-0.1-1.9-0.2c-0.6-0.2-1.2-0.4-1.8-0.7
	C99.8,332,100,330.4,100.2,328.7z"/>
	
	<path d="M122,329.8l0.4,0.6c-3,2.5-5.1,3.8-6.1,3.8c-0.3,0-0.6-0.1-0.9-0.4c-0.2-0.3-0.3-0.6-0.3-1.1c0-0.6,0.3-2,0.8-4.3
	c0.7-3.1,1.2-5.8,1.7-8.1l-1.3,0l-1.7,0l0.1-0.6c1.1-0.3,2.1-0.8,3.1-1.2c0.3-1.3,0.6-3.3,0.9-6c0.9-0.3,1.8-0.7,2.7-1.2l0.4,0.3
	c-0.3,1.1-0.8,3.5-1.6,7.1l1.8,0.1c0.7,0,1.4-0.1,1.9-0.2l0.2,0.2c-0.2,0.5-0.3,1.1-0.4,1.7c-1.1-0.1-2.4-0.1-3.8-0.2
	c-1.3,6.1-1.9,9.7-1.9,10.7c0,0.3,0.1,0.5,0.2,0.7c0.1,0.1,0.3,0.2,0.4,0.2C119,331.9,120.2,331.2,122,329.8z"/>
	
	<path d="M138.1,317.2l0.4,0.3c-1.1,3.9-2,7.3-2.6,10.3c-0.4,1.7-0.5,2.9-0.5,3.4c0,0.2,0,0.4,0.1,0.5c0.1,0.1,0.2,0.2,0.4,0.2
	c0.4,0,1.2-0.5,2.5-1.6l0.2,0.8c-1.2,1.1-2.4,1.9-3.6,2.6c-0.6,0.3-1,0.5-1.4,0.5c-0.3,0-0.5-0.1-0.7-0.3
	c-0.1-0.2-0.2-0.5-0.2-0.9c0-0.9,0.4-2.9,1.2-5.8l-0.1,0c-1.6,2.3-3.3,4.2-5.2,5.7c-1.2,1-2.1,1.5-2.7,1.5c-0.3,0-0.6-0.2-0.8-0.5
	c-0.3-0.5-0.4-1.3-0.4-2.3c0-1.7,0.3-3.7,1-6c0.7-2.3,1.4-4,2.1-5c0.5-0.8,1.6-1.6,3.1-2.4c1-0.5,2-0.8,3-0.8c0.5,0,0.9,0,1.5,0.1
	c0.5,0.1,1.1,0.2,1.7,0.4L138.1,317.2z M135.5,319.4c-0.5-0.2-1-0.3-1.4-0.4c-0.4-0.1-0.9-0.1-1.3-0.1c-0.9,0-1.7,0.2-2.4,0.5
	c-0.2,0.1-0.5,0.5-0.8,1.1c-0.6,1.3-1.2,3-1.7,5c-0.5,2-0.8,3.8-0.8,5.3c0,0.4,0.1,0.7,0.2,0.9c0.1,0.2,0.3,0.3,0.4,0.3
	c0.5,0,1.3-0.6,2.6-1.8s2.2-2.4,2.9-3.7C134.2,324.6,134.9,322.3,135.5,319.4z"/>
	
	<path d="M156.5,320.7l-2.3,0c0.1,0.5,0.1,0.9,0.1,1.2c0,0.9-0.3,1.8-0.8,2.9c-0.5,1-1.1,1.9-1.9,2.5s-1.9,1.2-3.3,1.7
	c-0.5,0.5-0.8,1-0.8,1.5c0,0.3,0.1,0.6,0.3,0.9c0.2,0.3,0.7,0.8,1.6,1.5c1.7,1.4,2.7,2.3,3.1,2.8c0.6,0.8,0.9,1.6,0.9,2.5
	c0,1.4-0.7,2.6-2,3.5c-1.8,1.3-4,1.9-6.5,1.9c-2.1,0-3.6-0.4-4.6-1.2s-1.5-1.8-1.5-2.9c0-1.2,0.5-2.4,1.6-3.6
	c1.1-1.2,2.8-2.1,5.1-2.8c-0.4-0.4-0.6-0.7-0.6-1.1c0-0.3,0.1-0.6,0.3-0.9c0.2-0.3,0.9-0.9,2-1.9c-0.4,0-0.7,0.1-1,0.1
	c-1.4,0-2.4-0.4-3.2-1.2c-0.8-0.8-1.2-1.8-1.2-3.2c0-2.1,0.8-3.9,2.3-5.4c1.5-1.5,3.4-2.2,5.5-2.2c1,0,1.8,0.2,2.4,0.5
	c0.6,0.3,1.2,0.8,1.6,1.5c0.9,0,2-0.1,3.1-0.2L156.5,320.7z M146.5,333.9c-1.8,0.5-3.2,1.2-4.1,2.1c-0.9,0.9-1.3,1.9-1.3,2.9
	c0,1.1,0.4,1.9,1.3,2.6c0.8,0.7,2.1,1,3.6,1c1.6,0,2.9-0.3,3.8-1c0.9-0.7,1.4-1.5,1.4-2.4c0-0.5-0.1-0.9-0.4-1.3
	c-0.4-0.6-1-1.2-1.8-2L146.5,333.9z M151.8,322.1c0-1-0.1-1.7-0.4-2.2c-0.2-0.5-0.6-0.9-1.1-1.2c-0.5-0.3-1-0.4-1.7-0.4
	c-1.2,0-2.2,0.5-2.9,1.4c-0.9,1.1-1.3,2.6-1.3,4.5c0,1.3,0.3,2.3,0.9,2.9c0.6,0.6,1.4,1,2.4,1c0.8,0,1.4-0.2,2-0.6
	c0.6-0.4,1-1.1,1.5-2.1C151.6,324.3,151.8,323.2,151.8,322.1z"/>
	
	<path d="M158.6,321.2l-0.4-0.6c2-1.5,3.5-2.5,4.5-3c0.6-0.3,1-0.4,1.4-0.4c0.2,0,0.4,0.1,0.5,0.2c0.1,0.1,0.2,0.3,0.2,0.6
	c0,0.4-0.1,0.9-0.2,1.5l-1.1,5.2c1.8-3.1,3.3-5.2,4.6-6.4c0.7-0.7,1.4-1,1.9-1c0.3,0,0.6,0.1,0.9,0.2c-0.3,1-0.5,2.3-0.6,3.7
	l-0.5,0.1c-0.3-0.4-0.7-0.6-1.1-0.6c-0.5,0-1,0.2-1.5,0.5c-0.9,0.6-1.7,1.6-2.5,2.9c-0.8,1.3-1.4,2.8-1.8,4.4
	c-0.1,0.4-0.5,2.1-1.1,5.2c-0.7,0.1-1.5,0.3-2.4,0.6l-0.3-0.3c0.9-2.9,1.5-5.7,2.1-8.5c0.5-2.8,0.8-4.5,0.8-5.2
	c0-0.5-0.1-0.7-0.4-0.7C161.2,319.5,160.2,320.1,158.6,321.2z"/>
	
	<path d="M184.7,317.2l0.4,0.3c-1.1,3.9-2,7.3-2.6,10.3c-0.4,1.7-0.5,2.9-0.5,3.4c0,0.2,0,0.4,0.1,0.5c0.1,0.1,0.2,0.2,0.4,0.2
	c0.4,0,1.2-0.5,2.5-1.6l0.2,0.8c-1.2,1.1-2.4,1.9-3.6,2.6c-0.6,0.3-1,0.5-1.4,0.5c-0.3,0-0.5-0.1-0.7-0.3
	c-0.1-0.2-0.2-0.5-0.2-0.9c0-0.9,0.4-2.9,1.2-5.8l-0.1,0c-1.6,2.3-3.3,4.2-5.2,5.7c-1.2,1-2.1,1.5-2.7,1.5c-0.3,0-0.6-0.2-0.8-0.5
	c-0.3-0.5-0.4-1.3-0.4-2.3c0-1.7,0.3-3.7,1-6c0.7-2.3,1.4-4,2.1-5c0.5-0.8,1.6-1.6,3.1-2.4c1-0.5,2-0.8,3-0.8c0.5,0,0.9,0,1.5,0.1
	c0.5,0.1,1.1,0.2,1.7,0.4L184.7,317.2z M182.1,319.4c-0.5-0.2-1-0.3-1.4-0.4c-0.4-0.1-0.9-0.1-1.3-0.1c-0.9,0-1.7,0.2-2.4,0.5
	c-0.2,0.1-0.5,0.5-0.8,1.1c-0.6,1.3-1.2,3-1.7,5c-0.5,2-0.8,3.8-0.8,5.3c0,0.4,0.1,0.7,0.2,0.9c0.1,0.2,0.3,0.3,0.4,0.3
	c0.5,0,1.3-0.6,2.6-1.8s2.2-2.4,2.9-3.7C180.9,324.6,181.6,322.3,182.1,319.4z"/>
	
	<path d="M187.3,321l-0.3-0.7c1.9-1.3,3.2-2.2,4.1-2.7c0.6-0.3,1-0.4,1.4-0.4c0.3,0,0.5,0.1,0.6,0.2s0.2,0.4,0.2,0.7
	c0,0.2-0.1,0.9-0.3,1.9c-0.2,1-0.5,2.5-0.9,4.3c1.5-2.3,3.2-4.1,4.9-5.3c1.7-1.2,3.1-1.8,4-1.8c0.3,0,0.5,0.1,0.7,0.3
	s0.3,0.4,0.3,0.7c0,0.5-0.4,2.6-1.2,6.3c1.2-1.7,2.4-3.1,3.5-4.1s2.4-1.8,3.7-2.5c1-0.5,1.8-0.7,2.4-0.7c0.3,0,0.5,0.1,0.6,0.2
	c0.2,0.2,0.2,0.4,0.2,0.7c0,0.7-0.7,3.5-2,8.6c-0.7,2.6-1,4.2-1,4.6c0,0.2,0,0.4,0.1,0.5c0.1,0.1,0.2,0.2,0.4,0.2
	c0.2,0,0.4-0.1,0.6-0.2c0.4-0.2,1.2-0.7,2.2-1.4l0.3,0.7c-2,1.4-3.4,2.3-4.2,2.7c-0.5,0.3-0.9,0.4-1.3,0.4c-0.3,0-0.6-0.1-0.8-0.4
	c-0.2-0.2-0.3-0.6-0.3-1c0-0.5,0.4-2.1,1.2-4.8c1.2-4,1.8-6.7,1.8-8.1c0-0.2,0-0.4-0.1-0.5s-0.2-0.2-0.4-0.2
	c-0.7,0-1.6,0.5-2.9,1.5c-1.7,1.3-2.9,2.9-3.9,4.7c-0.8,1.6-1.5,4.3-2.1,8.2c-0.7,0.1-1.5,0.3-2.4,0.5l-0.3-0.2
	c1.2-4.5,2-7.7,2.3-9.6s0.5-3.3,0.5-4.2c0-0.3,0-0.5-0.1-0.6c-0.1-0.1-0.2-0.2-0.4-0.2c-0.6,0-1.3,0.4-2.3,1.2
	c-1.7,1.4-2.9,3-3.8,4.7c-0.8,1.8-1.6,4.6-2.2,8.4c-0.8,0.1-1.5,0.3-2.4,0.5l-0.2-0.3c1-3.4,1.7-6.4,2.2-9.2
	c0.4-2.1,0.6-3.6,0.6-4.3c0-0.3-0.1-0.6-0.2-0.7s-0.2-0.2-0.4-0.2C189.6,319.5,188.7,320,187.3,321z"/>
	
	<path d="M217,334.2c-0.5,0-0.8-0.2-1.1-0.5c-0.3-0.3-0.4-0.7-0.4-1.3c0-0.7,0.2-1.3,0.6-1.8c0.4-0.5,0.9-0.7,1.5-0.7
	c0.5,0,0.8,0.2,1.1,0.5c0.3,0.3,0.4,0.7,0.4,1.2c0,0.7-0.2,1.3-0.6,1.8C218,334,217.5,334.2,217,334.2z M219.1,321.4
	c-0.5,0-0.8-0.2-1.1-0.5c-0.3-0.3-0.4-0.7-0.4-1.3c0-0.7,0.2-1.3,0.6-1.8c0.4-0.5,0.9-0.7,1.5-0.7c0.5,0,0.8,0.2,1.1,0.5
	c0.3,0.3,0.4,0.7,0.4,1.3c0,0.7-0.2,1.3-0.6,1.8C220.1,321.1,219.7,321.4,219.1,321.4z"/>
	
	</g>
	
	<g class="_x33_1">
	
	<path d="M267.2,336.9v-1.1c0.9,0,1.5-0.1,1.8-0.2c0.3-0.1,0.5-0.3,0.7-0.6c0.2-0.3,0.6-1.3,1.1-3.2l2.1-7.2l2.2-7.7
	c0.2-0.8,0.3-1.4,0.3-1.8c0-0.5-0.2-0.9-0.6-1.2c-0.4-0.2-1.3-0.4-2.7-0.4v-1.1c1.1,0.1,2.1,0.1,3.1,0.1c0.9,0,1.8,0,2.7-0.1
	l5.6,20.3c1.5-2.4,4.3-7.3,8.6-14.5l3.4-5.8c1.2,0.1,2.1,0.1,2.7,0.1c0.7,0,1.7,0,2.9-0.1v1.1c-1.3,0-2.1,0.1-2.4,0.3
	c-0.2,0.1-0.4,0.3-0.5,0.5c-0.1,0.3-0.2,0.8-0.3,1.5c-0.2,1.8-0.5,5-0.8,9.5c-0.4,4.5-0.5,7.4-0.5,8.7c0,0.7,0.1,1.2,0.4,1.3
	c0.3,0.2,1.2,0.3,2.6,0.4v1.1c-1.9-0.1-3.5-0.1-4.8-0.1c-1.3,0-2.8,0-4.4,0.1v-1.1c1.4,0,2.3-0.1,2.5-0.2c0.2-0.1,0.4-0.2,0.5-0.4
	s0.2-0.6,0.3-1.2c0.1-0.8,0.3-3.7,0.7-8.6l0.6-8.8c-1,1.5-2.4,3.7-4.1,6.5l-6.6,11.1c-0.6,1-1.1,2.1-1.6,3.2h-0.8l-5.6-19.9
	l-3.6,13c-0.6,2.2-0.9,3.5-0.9,4.1c0,0.5,0.2,0.8,0.5,0.9c0.2,0.1,1.1,0.2,2.5,0.2v1.1c-1.8-0.1-3.1-0.1-4-0.1
	C269.9,336.8,268.7,336.8,267.2,336.9z"/>
	
	<path d="M314.7,320.2l0.4,0.3c-1.1,3.9-2,7.3-2.6,10.3c-0.4,1.7-0.5,2.9-0.5,3.4c0,0.2,0,0.4,0.1,0.5c0.1,0.1,0.2,0.2,0.4,0.2
	c0.4,0,1.2-0.5,2.5-1.6l0.2,0.8c-1.2,1.1-2.4,1.9-3.6,2.6c-0.6,0.3-1,0.5-1.4,0.5c-0.3,0-0.5-0.1-0.7-0.3
	c-0.1-0.2-0.2-0.5-0.2-0.9c0-0.9,0.4-2.9,1.2-5.8l-0.1,0c-1.6,2.3-3.3,4.2-5.2,5.7c-1.2,1-2.1,1.5-2.7,1.5c-0.3,0-0.6-0.2-0.8-0.5
	c-0.3-0.5-0.4-1.3-0.4-2.3c0-1.7,0.3-3.7,1-6c0.7-2.3,1.4-4,2.1-5c0.5-0.8,1.6-1.6,3.1-2.4c1-0.5,2-0.8,3-0.8c0.5,0,0.9,0,1.5,0.1
	c0.5,0.1,1.1,0.2,1.7,0.4L314.7,320.2z M312.1,322.4c-0.5-0.2-1-0.3-1.4-0.4c-0.4-0.1-0.9-0.1-1.3-0.1c-0.9,0-1.7,0.2-2.4,0.5
	c-0.2,0.1-0.5,0.5-0.8,1.1c-0.6,1.3-1.2,3-1.7,5c-0.5,2-0.8,3.8-0.8,5.3c0,0.4,0.1,0.7,0.2,0.9c0.1,0.2,0.3,0.3,0.4,0.3
	c0.5,0,1.3-0.6,2.6-1.8s2.2-2.4,2.9-3.7C310.9,327.6,311.6,325.3,312.1,322.4z"/>
	
	<path d="M316.6,337.2l-0.3-0.3c0.9-3.1,2.1-8.4,3.5-15.9c0.8-4,1.2-6.2,1.2-6.6c0-0.5-0.2-0.8-0.5-0.9c-0.2-0.1-1-0.1-2.4-0.1
	l0.1-0.7c1.9-0.2,3.8-0.7,5.7-1.4l0.4,0.4c-1.9,8.4-3,13.7-3.3,15.8c2.2-2.8,4.2-4.7,5.9-5.8s3.1-1.6,4.1-1.6
	c0.3,0,0.6,0.1,0.8,0.3c0.2,0.2,0.3,0.5,0.3,0.9c0,0.4,0,0.9-0.1,1.3c-0.2,1.1-0.7,3.3-1.6,6.6c-0.7,2.8-1.1,4.5-1.1,5.1
	c0,0.4,0.2,0.6,0.5,0.6c0.2,0,0.4,0,0.6-0.1s0.7-0.4,1.4-0.9l1-0.7l0.3,0.6c-2.1,1.6-3.6,2.5-4.2,2.9c-0.5,0.3-0.9,0.4-1.3,0.4
	c-0.3,0-0.6-0.1-0.8-0.4s-0.3-0.6-0.3-1c0-0.5,0.3-1.8,0.8-3.8c1.3-5,1.9-7.9,1.9-8.7c0-0.3-0.1-0.6-0.2-0.7s-0.3-0.2-0.6-0.2
	c-0.7,0-1.7,0.5-3.1,1.6c-1.8,1.4-3.2,3-4.1,4.8c-0.9,1.8-1.6,4.4-2.2,7.9C318.1,336.8,317.3,336.9,316.6,337.2z"/>
	
	<path d="M335,324l-0.3-0.7c2.8-2.1,4.7-3.2,5.6-3.2c0.3,0,0.5,0.1,0.6,0.2c0.1,0.2,0.2,0.4,0.2,0.7c0,0.7-0.3,2.1-0.8,4
	c-1.3,5-2,8.1-2,9.1c0,0.4,0.2,0.6,0.5,0.6c0.4,0,1.3-0.5,2.8-1.5l0.3,0.7c-1.6,1.3-3,2.3-4,2.9c-0.4,0.3-0.8,0.4-1.2,0.4
	c-0.3,0-0.6-0.1-0.8-0.4s-0.3-0.7-0.3-1.2c0-0.7,0.3-2.2,0.9-4.5c1.2-4.4,1.8-7,1.8-7.9c0-0.4-0.2-0.6-0.5-0.6
	C337.4,322.5,336.5,323,335,324z M339.3,314.2c0-0.6,0.2-1.1,0.6-1.5s0.9-0.7,1.4-0.7c0.4,0,0.7,0.1,0.9,0.4
	c0.2,0.3,0.3,0.6,0.3,1.1c0,0.6-0.2,1.2-0.6,1.6c-0.4,0.4-0.8,0.6-1.3,0.6c-0.4,0-0.7-0.1-1-0.4
	C339.4,315,339.3,314.7,339.3,314.2z"/>
	
	<path d="M353.4,336.9l0.1-0.8l0.6-0.2c0.4-0.2,0.8-0.3,1.2-0.5c0.7-2.9,1.6-7.8,2.7-14.5c0.6-3.5,0.9-5.5,0.9-6.1
	c0-0.4-0.1-0.7-0.4-0.8c-0.3-0.1-1.2-0.3-2.7-0.4l0.2-1c2,0.1,3.8,0.1,5.2,0.1l7.7-0.1c1.2,0,2.3,0,3.3,0.1
	c-0.3,1.5-0.5,3.2-0.6,5.1h-1c-0.1-2.1-0.2-3.2-0.4-3.4c-0.3-0.3-2-0.4-5-0.4c-1,0-2,0-3.1,0.1c-0.6,3-1.2,6.2-1.7,9.4
	c1.5,0.1,2.9,0.1,4.1,0.1c1.4,0,3-0.1,4.8-0.3l0.2,0.2c-0.2,0.5-0.5,1.1-0.7,1.7c-1.6-0.1-3.7-0.2-6.1-0.2l-2.4,0
	c-0.8,4.5-1.3,7.8-1.6,10c1.9,0.2,3.9,0.3,5.9,0.3c1.4,0,2.6-0.1,3.7-0.2c0.4,0,0.6-0.1,0.8-0.2c0.2-0.1,0.3-0.3,0.4-0.6
	c0.1-0.2,0.4-1.3,0.9-3.2h1l-0.3,1.9c-0.2,1.1-0.4,2.4-0.5,3.7c-0.9,0.1-1.8,0.2-2.7,0.2c-0.6,0-1.5,0-2.7-0.1
	c-2.6-0.1-4.5-0.1-6-0.1C357.3,336.8,355.4,336.8,353.4,336.9z"/>
	
	<path d="M376,313.5l0.1-0.7c2.4-0.3,4.2-0.8,5.6-1.4l0.5,0.3l-2.1,9.9l-0.3,1.7L378,332c-0.2,1.2-0.3,2-0.3,2.4
	c0,0.2,0,0.4,0.1,0.5c0.1,0.1,0.2,0.2,0.4,0.2c0.5,0,1.5-0.7,3.1-2l0.4,0.7c-1.4,1.2-2.8,2.2-4.1,2.9c-0.7,0.4-1.2,0.6-1.6,0.6
	c-0.3,0-0.6-0.1-0.8-0.4c-0.2-0.2-0.3-0.6-0.3-1c0-0.1,0-0.4,0.1-0.8l0.6-3c0.6-3,1.2-5.6,1.7-7.8l0.4-1.7
	c0.4-1.8,0.7-3.9,1.1-6.1c0.1-1.1,0.2-1.8,0.2-2.3c0-0.4-0.1-0.6-0.3-0.7C378.4,313.5,377.5,313.5,376,313.5z"/>
	
	<path d="M384.6,324l-0.3-0.7c2.8-2.1,4.7-3.2,5.6-3.2c0.3,0,0.5,0.1,0.6,0.2c0.1,0.2,0.2,0.4,0.2,0.7c0,0.7-0.3,2.1-0.8,4
	c-1.3,5-2,8.1-2,9.1c0,0.4,0.2,0.6,0.5,0.6c0.4,0,1.3-0.5,2.8-1.5l0.3,0.7c-1.6,1.3-3,2.3-4,2.9c-0.4,0.3-0.8,0.4-1.2,0.4
	c-0.3,0-0.6-0.1-0.8-0.4s-0.3-0.7-0.3-1.2c0-0.7,0.3-2.2,0.9-4.5c1.2-4.4,1.8-7,1.8-7.9c0-0.4-0.2-0.6-0.5-0.6
	C386.9,322.5,386,323,384.6,324z M388.9,314.2c0-0.6,0.2-1.1,0.6-1.5s0.9-0.7,1.4-0.7c0.4,0,0.7,0.1,0.9,0.4
	c0.2,0.3,0.3,0.6,0.3,1.1c0,0.6-0.2,1.2-0.6,1.6c-0.4,0.4-0.8,0.6-1.3,0.6c-0.4,0-0.7-0.1-1-0.4C389,315,388.9,314.7,388.9,314.2z"/>

	<path d="M407,320.2l0.4,0.3c-1.1,3.9-2,7.3-2.6,10.3c-0.4,1.7-0.5,2.9-0.5,3.4c0,0.2,0,0.4,0.1,0.5c0.1,0.1,0.2,0.2,0.4,0.2
	c0.4,0,1.2-0.5,2.5-1.6l0.2,0.8c-1.2,1.1-2.4,1.9-3.6,2.6c-0.6,0.3-1,0.5-1.4,0.5c-0.3,0-0.5-0.1-0.7-0.3
	c-0.1-0.2-0.2-0.5-0.2-0.9c0-0.9,0.4-2.9,1.2-5.8l-0.1,0c-1.6,2.3-3.3,4.2-5.2,5.7c-1.2,1-2.1,1.5-2.7,1.5c-0.3,0-0.6-0.2-0.8-0.5
	c-0.3-0.5-0.4-1.3-0.4-2.3c0-1.7,0.3-3.7,1-6c0.7-2.3,1.4-4,2.1-5c0.5-0.8,1.6-1.6,3.1-2.4c1-0.5,2-0.8,3-0.8c0.5,0,0.9,0,1.5,0.1
	c0.5,0.1,1.1,0.2,1.7,0.4L407,320.2z M404.4,322.4c-0.5-0.2-1-0.3-1.4-0.4c-0.4-0.1-0.9-0.1-1.3-0.1c-0.9,0-1.7,0.2-2.4,0.5
	c-0.2,0.1-0.5,0.5-0.8,1.1c-0.6,1.3-1.2,3-1.7,5c-0.5,2-0.8,3.8-0.8,5.3c0,0.4,0.1,0.7,0.2,0.9c0.1,0.2,0.3,0.3,0.4,0.3
	c0.5,0,1.3-0.6,2.6-1.8s2.2-2.4,2.9-3.7C403.2,327.6,403.9,325.3,404.4,322.4z"/>
	
	<path d="M410,331.7h0.9l0,1.6l0,1.3c0.6,0.4,1.1,0.8,1.8,1c0.6,0.2,1.3,0.3,1.9,0.3c1.1,0,2-0.4,2.7-1.1c0.7-0.7,1.1-1.6,1.1-2.6
	c0-0.8-0.2-1.3-0.5-1.7c-0.4-0.4-1.1-0.6-2.3-0.8c-2-0.3-3.3-0.7-3.9-1.1c-0.8-0.6-1.2-1.5-1.2-2.7c0-0.9,0.3-1.7,0.8-2.5
	c0.5-0.8,1.5-1.5,2.9-2.4c1-0.6,2.1-0.9,3.1-0.9c0.5,0,1.1,0.1,1.7,0.2c0.6,0.1,1.2,0.4,1.7,0.7c-0.3,1-0.5,2.3-0.6,3.9h-0.8
	c0-0.5,0-0.9,0-1.3c0-0.6-0.1-0.9-0.4-1.1c-0.7-0.6-1.7-0.9-2.8-0.9c-1.2,0-2.1,0.3-2.7,0.9c-0.6,0.6-0.9,1.3-0.9,2.3
	c0,0.8,0.3,1.4,0.8,1.7c0.4,0.3,1.3,0.5,2.8,0.8c1.7,0.3,2.8,0.6,3.3,1c0.7,0.5,1,1.3,1,2.4c0,1.5-0.8,2.9-2.3,4.3
	c-1.6,1.4-3.3,2.1-5.2,2.1c-0.6,0-1.2-0.1-1.9-0.2c-0.6-0.2-1.2-0.4-1.8-0.7C409.6,335,409.8,333.4,410,331.7z"/>
	
</g>

<g class="Linkdin">

<g class="_x34_3">

	<path class="st0" d="M668,444H260c-6.6,0-12-5.4-12-12v-35c0-6.6,5.4-12,12-12h408c6.6,0,12,5.4,12,12v35
	C680,438.6,674.6,444,668,444z"/>
	
<g class="_x34_2">
	
	<path d="M106.6,428.3l0.1-0.8l1-0.3c0.4-0.1,0.7-0.3,0.8-0.4c0.1-0.2,0.3-0.9,0.6-2.1l1.2-6c1.1-5.8,1.6-9.1,1.6-10
	c0-0.4-0.2-0.6-0.5-0.7c-0.1,0-1-0.1-2.5-0.2l0-0.9c1.9,0.1,3.5,0.1,4.9,0.1c1.4,0,2.8,0,4.4-0.1l-0.1,0.9l-1.3,0.1
	c-0.8,0-1.3,0.1-1.5,0.3c-0.3,0.2-0.5,0.8-0.7,1.7l-1.4,7.9c-0.8,4.2-1.3,7.2-1.4,9.2c1.6,0.1,3.1,0.1,4.5,0.1
	c3,0,4.8-0.1,5.2-0.4c0.4-0.2,0.9-1.4,1.4-3.5l1,0l-0.3,1.7c-0.2,1.1-0.3,2.3-0.5,3.5l-3.3,0c-1,0-2.5,0-4.4,0
	c-1.5,0-2.8-0.1-4-0.1C109.7,428.2,108.2,428.2,106.6,428.3z"/>
	
	<path d="M126.4,416.9l-0.3-0.6c2.8-1.9,4.7-2.8,5.5-2.8c0.3,0,0.5,0.1,0.6,0.2s0.2,0.3,0.2,0.6c0,0.6-0.3,1.8-0.8,3.6
	c-1.3,4.4-2,7.1-2,8c0,0.3,0.2,0.5,0.5,0.5c0.4,0,1.3-0.5,2.7-1.4l0.3,0.6c-1.6,1.2-3,2-4,2.5c-0.4,0.2-0.8,0.3-1.2,0.3
	c-0.3,0-0.6-0.1-0.8-0.4c-0.2-0.2-0.3-0.6-0.3-1c0-0.7,0.3-2,0.9-3.9c1.2-3.9,1.8-6.2,1.8-7c0-0.4-0.2-0.6-0.5-0.6
	C128.7,415.6,127.8,416.1,126.4,416.9z M130.7,408.3c0-0.5,0.2-1,0.6-1.4c0.4-0.4,0.9-0.6,1.4-0.6c0.4,0,0.7,0.1,0.9,0.3
	c0.2,0.2,0.3,0.5,0.3,0.9c0,0.6-0.2,1-0.6,1.4c-0.4,0.4-0.8,0.6-1.3,0.6c-0.4,0-0.7-0.1-1-0.4C130.8,409,130.7,408.7,130.7,408.3z"/>

	<path d="M135.9,417l-0.3-0.6c1.8-1.2,3.3-2,4.3-2.5c0.5-0.2,0.9-0.3,1.3-0.3c0.3,0,0.5,0.1,0.6,0.2c0.1,0.1,0.2,0.4,0.2,0.6
	c0,0.2,0,0.5-0.1,0.9l-1.3,5.2c1-1.4,2.1-2.6,3.5-3.8c1.3-1.1,2.6-1.9,3.8-2.4c1.2-0.5,2.2-0.8,2.8-0.8c0.3,0,0.6,0.1,0.7,0.3
	c0.2,0.2,0.3,0.4,0.3,0.7c0,0.3,0,0.6-0.1,0.9c-0.1,0.5-0.6,2.6-1.6,6.1c-0.7,2.6-1.1,4.2-1.1,4.6c0,0.3,0.2,0.5,0.5,0.5
	c0.3,0,1-0.3,2-0.9l1.1-0.6l0.3,0.6c-2.8,1.9-4.7,2.9-5.6,2.9c-0.3,0-0.6-0.1-0.8-0.3c-0.2-0.2-0.3-0.5-0.3-0.8
	c0-0.6,0.4-2.2,1.1-4.7c1-3.6,1.6-5.8,1.6-6.6c0-0.2-0.1-0.4-0.2-0.5c-0.1-0.1-0.3-0.2-0.5-0.2c-0.7,0-1.6,0.4-2.8,1.3
	c-1.7,1.2-3.1,2.6-4,4.3c-1,1.7-1.7,4-2.2,7.1c-0.6,0.1-1.4,0.2-2.4,0.5l-0.3-0.3c0.8-2.4,1.5-5.1,2.1-7.9
	c0.5-2.2,0.7-3.5,0.7-4.1c0-0.2,0-0.4-0.1-0.5c-0.1-0.1-0.2-0.2-0.4-0.2C138.3,415.6,137.3,416.1,135.9,417z"/>
	
	<path d="M156.1,407.6l0.2-0.6c2.1-0.2,4-0.6,5.7-1.2l0.4,0.3l-2.4,9.7l-1.3,5.5c3-3.2,5.4-5.5,7.3-6.8c1-0.7,1.9-1,2.7-1
	c0.2,0,0.5,0,1,0.1c-0.2,0.7-0.4,1.4-0.6,2.2c-0.5-0.1-0.8-0.2-1.1-0.2c-0.6,0-1.3,0.2-2.2,0.7c-0.9,0.5-2,1.4-3.5,2.7
	c1.7,4.2,2.7,6.6,3.1,7.1c0.3,0.4,0.5,0.6,0.9,0.6c0.2,0,0.4,0,0.6-0.1c0.2-0.1,0.7-0.3,1.6-0.8l0.3,0.6c-2.3,1.5-3.7,2.2-4.2,2.2
	c-0.4,0-0.7-0.2-1-0.6c-0.7-0.9-1.7-3.4-3.2-7.3c-1,1-1.6,1.6-1.8,2c-0.2,0.4-0.5,0.9-0.7,1.6c-0.2,0.7-0.5,2-0.8,3.9
	c-0.9,0.2-1.7,0.4-2.3,0.6l-0.3-0.2c1-3.3,2.4-9.1,4-17.4c0.3-1.6,0.5-2.4,0.5-2.6c0-0.3-0.1-0.5-0.3-0.6
	C158.6,407.6,157.7,407.6,156.1,407.6z"/>
	
	<path d="M181,407.6l0.1-0.6c2.4-0.3,4.3-0.7,5.6-1.4l0.4,0.3c-0.9,3.5-2.1,8.5-3.6,14.9c-0.7,2.8-1,4.5-1,4.9c0,0.2,0,0.4,0.1,0.5
	c0.1,0.1,0.2,0.2,0.3,0.1c0.5,0,1.5-0.5,2.9-1.5l0.4,0.5c-2.8,2-4.6,3-5.6,3c-0.2,0-0.5-0.1-0.6-0.3c-0.2-0.2-0.2-0.4-0.2-0.8
	c0-0.3,0.1-0.8,0.2-1.3c0.1-0.5,0.5-1.9,1.1-4.2c-1.4,2-3,3.6-4.7,4.8c-1.8,1.2-3,1.8-3.8,1.8c-0.5,0-0.8-0.2-1.1-0.6
	c-0.4-0.5-0.6-1.3-0.6-2.4c0-2.2,0.5-4.4,1.6-6.7c0.8-1.6,1.9-2.9,3.4-3.9c1.5-1,2.9-1.4,4.2-1.4c0.7,0,1.6,0.1,2.7,0.4l0.6-3.5
	c0.2-1,0.3-1.7,0.3-2c0-0.3-0.1-0.4-0.3-0.5C183.3,407.7,182.4,407.6,181,407.6z M182.5,415.5c-1.2-0.5-2.4-0.8-3.4-0.8
	c-0.9,0-1.7,0.1-2.2,0.4c-0.3,0.2-0.7,0.5-1,1c-0.7,1.2-1.3,2.6-1.8,4.3c-0.5,1.7-0.7,3.1-0.7,4.2c0,0.7,0.1,1.2,0.2,1.4
	c0.1,0.2,0.4,0.3,0.6,0.3c0.7,0,1.6-0.4,2.7-1.1c1.5-1,2.7-2.4,3.7-4.1C181.6,419.5,182.2,417.6,182.5,415.5z"/>
	
	<path d="M187.4,428.1l0.1-0.9c1.4,0,2.2-0.1,2.4-0.3c0.2-0.1,0.4-0.4,0.6-0.9c0.2-0.7,0.9-3.7,1.8-8.9c1-5.2,1.5-8.1,1.5-8.7
	c0-0.4-0.1-0.6-0.4-0.7c-0.2-0.1-1-0.1-2.6-0.2l0.2-0.8c1.7,0.1,3.1,0.1,4.3,0.1c1.3,0,2.8,0,4.6-0.1l0,0.8
	c-1.4,0-2.2,0.1-2.5,0.2c-0.2,0.1-0.4,0.2-0.5,0.4c-0.1,0.2-0.4,1.1-0.7,2.8l-1.2,6.6l-1.3,7.2c-0.1,0.8-0.2,1.3-0.2,1.5
	c0,0.3,0.1,0.6,0.3,0.7c0.3,0.1,1.2,0.2,2.7,0.3l-0.1,0.9c-1.7-0.1-3.1-0.1-4.2-0.1C191.2,428,189.6,428,187.4,428.1z"/>
	
	<path d="M200,416.8l-0.3-0.6c1.8-1.2,3.3-2,4.3-2.5c0.5-0.2,0.9-0.3,1.3-0.3c0.3,0,0.5,0.1,0.6,0.2c0.1,0.1,0.2,0.4,0.2,0.6
	c0,0.2,0,0.5-0.1,0.9l-1.3,5.2c1-1.4,2.1-2.6,3.5-3.8c1.3-1.1,2.6-1.9,3.8-2.4c1.2-0.5,2.2-0.8,2.8-0.8c0.3,0,0.6,0.1,0.7,0.3
	c0.2,0.2,0.3,0.4,0.3,0.7c0,0.3,0,0.6-0.1,0.9c-0.1,0.5-0.6,2.6-1.6,6.1c-0.7,2.6-1.1,4.2-1.1,4.6c0,0.3,0.2,0.5,0.5,0.5
	c0.3,0,1-0.3,2-0.9l1.1-0.6l0.3,0.6c-2.8,1.9-4.7,2.9-5.6,2.9c-0.3,0-0.6-0.1-0.8-0.3c-0.2-0.2-0.3-0.5-0.3-0.8
	c0-0.6,0.4-2.2,1.1-4.7c1-3.6,1.6-5.8,1.6-6.6c0-0.2-0.1-0.4-0.2-0.5c-0.1-0.1-0.3-0.2-0.5-0.2c-0.7,0-1.6,0.4-2.8,1.3
	c-1.7,1.2-3.1,2.6-4,4.3c-1,1.7-1.7,4-2.2,7.1c-0.6,0.1-1.4,0.2-2.4,0.5l-0.3-0.3c0.8-2.4,1.5-5.1,2.1-7.9
	c0.5-2.2,0.7-3.5,0.7-4.1c0-0.2,0-0.4-0.1-0.5c-0.1-0.1-0.2-0.2-0.4-0.2C202.4,415.4,201.5,415.9,200,416.8z"/>
	
	<path d="M222,428.3c-0.5,0-0.8-0.1-1.1-0.4c-0.3-0.3-0.4-0.6-0.4-1.1c0-0.6,0.2-1.1,0.6-1.5c0.4-0.4,0.9-0.6,1.5-0.6
	c0.5,0,0.8,0.1,1.1,0.4c0.3,0.3,0.4,0.6,0.4,1.1c0,0.6-0.2,1.2-0.6,1.6C223.1,428.1,222.6,428.3,222,428.3z M224.1,417
	c-0.5,0-0.8-0.1-1.1-0.4c-0.3-0.3-0.4-0.6-0.4-1.1c0-0.6,0.2-1.1,0.6-1.5s0.9-0.6,1.5-0.6c0.5,0,0.8,0.1,1.1,0.4
	c0.3,0.3,0.4,0.6,0.4,1.1c0,0.6-0.2,1.2-0.6,1.6C225.1,416.8,224.6,417,224.1,417z"/>
	
	</g>
	
<g class="_x34_1">
	
	<path d="M272.2,431.9v-1.1c0.9,0,1.5-0.1,1.8-0.2c0.3-0.1,0.5-0.3,0.7-0.6c0.2-0.3,0.6-1.3,1.1-3.2l2.1-7.2l2.2-7.7
	c0.2-0.8,0.3-1.4,0.3-1.8c0-0.5-0.2-0.9-0.6-1.2c-0.4-0.2-1.3-0.4-2.7-0.4v-1.1c1.1,0.1,2.1,0.1,3.1,0.1c0.9,0,1.8,0,2.7-0.1
	l5.6,20.3c1.5-2.4,4.3-7.3,8.6-14.5l3.4-5.8c1.2,0.1,2.1,0.1,2.7,0.1c0.7,0,1.7,0,2.9-0.1v1.1c-1.3,0-2.1,0.1-2.4,0.3
	c-0.2,0.1-0.4,0.3-0.5,0.5c-0.1,0.3-0.2,0.8-0.3,1.5c-0.2,1.8-0.5,5-0.8,9.5c-0.4,4.5-0.5,7.4-0.5,8.7c0,0.7,0.1,1.2,0.4,1.3
	c0.3,0.2,1.2,0.3,2.6,0.4v1.1c-1.9-0.1-3.5-0.1-4.8-0.1c-1.3,0-2.8,0-4.4,0.1v-1.1c1.4,0,2.3-0.1,2.5-0.2s0.4-0.2,0.5-0.4
	c0.1-0.2,0.2-0.6,0.3-1.2c0.1-0.8,0.3-3.7,0.7-8.6l0.6-8.8c-1,1.5-2.4,3.7-4.1,6.5l-6.6,11.1c-0.6,1-1.1,2.1-1.6,3.2h-0.8
	l-5.6-19.9l-3.6,13c-0.6,2.2-0.9,3.5-0.9,4.1c0,0.5,0.2,0.8,0.5,0.9c0.2,0.1,1.1,0.2,2.5,0.2v1.1c-1.8-0.1-3.1-0.1-4-0.1
	C274.9,431.8,273.7,431.8,272.2,431.9z"/>
	
	<path d="M319.7,415.2l0.4,0.3c-1.1,3.9-2,7.3-2.6,10.3c-0.4,1.7-0.5,2.9-0.5,3.4c0,0.2,0,0.4,0.1,0.5c0.1,0.1,0.2,0.2,0.4,0.2
	c0.4,0,1.2-0.5,2.5-1.6l0.2,0.8c-1.2,1.1-2.4,1.9-3.6,2.6c-0.6,0.3-1,0.5-1.4,0.5c-0.3,0-0.5-0.1-0.7-0.3
	c-0.1-0.2-0.2-0.5-0.2-0.9c0-0.9,0.4-2.9,1.2-5.8l-0.1,0c-1.6,2.3-3.3,4.2-5.2,5.7c-1.2,1-2.1,1.5-2.7,1.5c-0.3,0-0.6-0.2-0.8-0.5
	c-0.3-0.5-0.4-1.3-0.4-2.3c0-1.7,0.3-3.7,1-6c0.7-2.3,1.4-4,2.1-5c0.5-0.8,1.6-1.6,3.1-2.4c1-0.5,2-0.8,3-0.8
	c0.5,0,0.9,0.1,1.5,0.2c0.5,0.1,1.1,0.3,1.7,0.4L319.7,415.2z M317.1,417.4c-0.5-0.2-1-0.3-1.4-0.4s-0.9-0.1-1.3-0.1
	c-0.9,0-1.7,0.2-2.4,0.5c-0.2,0.1-0.5,0.5-0.8,1.1c-0.6,1.3-1.2,3-1.7,5c-0.5,2-0.8,3.8-0.8,5.3c0,0.4,0.1,0.7,0.2,0.9
	c0.1,0.2,0.3,0.3,0.4,0.3c0.5,0,1.3-0.6,2.6-1.8s2.2-2.4,2.9-3.7C315.9,422.6,316.6,420.3,317.1,417.4z"/>
	
	<path d="M321.6,432.2l-0.3-0.3c0.9-3.1,2.1-8.4,3.5-15.9c0.8-4,1.2-6.2,1.2-6.6c0-0.5-0.2-0.8-0.5-0.9c-0.2-0.1-1-0.1-2.4-0.1
	l0.1-0.7c1.9-0.2,3.8-0.7,5.7-1.4l0.4,0.4c-1.9,8.4-3,13.7-3.3,15.8c2.2-2.8,4.2-4.7,5.9-5.8s3.1-1.6,4.1-1.6
	c0.3,0,0.6,0.1,0.8,0.3c0.2,0.2,0.3,0.5,0.3,0.9c0,0.4,0,0.9-0.1,1.3c-0.2,1.1-0.7,3.3-1.6,6.6c-0.7,2.8-1.1,4.5-1.1,5.1
	c0,0.4,0.2,0.6,0.5,0.6c0.2,0,0.4,0,0.6-0.1s0.7-0.4,1.4-0.9l1-0.7l0.3,0.6c-2.1,1.6-3.6,2.5-4.2,2.9c-0.5,0.3-0.9,0.4-1.3,0.4
	c-0.3,0-0.6-0.1-0.8-0.4s-0.3-0.6-0.3-1c0-0.5,0.3-1.8,0.8-3.8c1.3-5,1.9-7.9,1.9-8.7c0-0.3-0.1-0.6-0.2-0.7s-0.3-0.2-0.6-0.2
	c-0.7,0-1.7,0.5-3.1,1.6c-1.8,1.4-3.2,3-4.1,4.8c-0.9,1.8-1.6,4.4-2.2,7.9C323.1,431.8,322.3,431.9,321.6,432.2z"/>
	
	<path d="M350.3,427.9l0.2,0.7c-1.6,1.4-3,2.3-4,2.8c-1.1,0.5-2.1,0.7-3,0.7c-1.3,0-2.4-0.4-3.1-1.2c-0.7-0.8-1.1-1.9-1.1-3.4
	c0-1.5,0.3-3.3,0.9-5.2c0.6-1.9,1.3-3.3,2.1-4.1c0.8-0.8,2.1-1.7,3.8-2.5c1-0.5,1.8-0.7,2.6-0.7c0.9,0,1.7,0.3,2.2,0.8
	s0.8,1.2,0.8,1.9c0,3.1-3.2,5.3-9.6,6.5c-0.2,1.4-0.3,2.4-0.3,3c0,0.9,0.3,1.7,0.8,2.2c0.5,0.6,1.2,0.8,2,0.8
	c0.6,0,1.3-0.2,2.1-0.5C347.6,429.7,348.8,429,350.3,427.9z M342.4,423.6c2.3-0.4,4-1.1,5.1-2s1.6-2,1.6-3.1
	c0-0.6-0.1-1.1-0.4-1.4s-0.7-0.5-1.2-0.5c-0.7,0-1.4,0.2-2.1,0.6c-0.7,0.4-1.2,1.1-1.6,1.9C343.2,420.3,342.8,421.8,342.4,423.6z"/>

	<path d="M354.8,408.5l0.1-0.7c2.4-0.3,4.2-0.8,5.6-1.4l0.5,0.3l-2.1,9.9l-0.3,1.7l-1.8,8.8c-0.2,1.2-0.3,2-0.3,2.4
	c0,0.2,0,0.4,0.1,0.5c0.1,0.1,0.2,0.2,0.4,0.2c0.5,0,1.5-0.7,3.1-2l0.4,0.7c-1.4,1.2-2.8,2.2-4.1,2.9c-0.7,0.4-1.2,0.6-1.6,0.6
	c-0.3,0-0.6-0.1-0.8-0.3c-0.2-0.2-0.3-0.6-0.3-1c0-0.1,0-0.4,0.1-0.8l0.6-3c0.6-3,1.2-5.6,1.7-7.8l0.4-1.7
	c0.4-1.8,0.7-3.9,1.1-6.1c0.1-1.1,0.2-1.8,0.2-2.3c0-0.4-0.1-0.6-0.3-0.7C357.2,408.5,356.3,408.5,354.8,408.5z"/>
	
	<path d="M373.6,427.9l0.2,0.7c-1.6,1.4-3,2.3-4,2.8c-1.1,0.5-2.1,0.7-3,0.7c-1.3,0-2.4-0.4-3.1-1.2c-0.7-0.8-1.1-1.9-1.1-3.4
	c0-1.5,0.3-3.3,0.9-5.2c0.6-1.9,1.3-3.3,2.1-4.1c0.8-0.8,2.1-1.7,3.8-2.5c1-0.5,1.8-0.7,2.6-0.7c0.9,0,1.7,0.3,2.2,0.8
	s0.8,1.2,0.8,1.9c0,3.1-3.2,5.3-9.6,6.5c-0.2,1.4-0.3,2.4-0.3,3c0,0.9,0.3,1.7,0.8,2.2c0.5,0.6,1.2,0.8,2,0.8
	c0.6,0,1.3-0.2,2.1-0.5C371,429.7,372.1,429,373.6,427.9z M365.7,423.6c2.3-0.4,4-1.1,5.1-2s1.6-2,1.6-3.1c0-0.6-0.1-1.1-0.4-1.4
	s-0.7-0.5-1.2-0.5c-0.7,0-1.4,0.2-2.1,0.6c-0.7,0.4-1.2,1.1-1.6,1.9C366.6,420.3,366.1,421.8,365.7,423.6z"/>
	
	<path d="M385.3,427.8l0.4,0.7c-3,2.5-5.1,3.8-6.1,3.8c-0.3,0-0.6-0.1-0.9-0.4c-0.2-0.3-0.3-0.6-0.3-1.1c0-0.6,0.3-2,0.8-4.3
	c0.7-3.1,1.2-5.8,1.7-8.1l-1.3,0l-1.7,0l0.1-0.6c1.1-0.3,2.1-0.8,3.1-1.2c0.3-1.3,0.6-3.3,0.9-6c0.9-0.3,1.8-0.7,2.7-1.2l0.4,0.3
	c-0.3,1.1-0.8,3.5-1.6,7.1l1.8,0.1c0.7,0,1.4-0.1,1.9-0.2l0.2,0.2c-0.2,0.5-0.3,1.1-0.4,1.7c-1.1-0.1-2.4-0.1-3.8-0.2
	c-1.3,6.1-1.9,9.7-1.9,10.7c0,0.3,0.1,0.5,0.2,0.7s0.3,0.2,0.4,0.2C382.3,429.9,383.4,429.2,385.3,427.8z"/>
	
	<path d="M398.9,427.9l0.2,0.7c-1.6,1.4-3,2.3-4,2.8c-1.1,0.5-2.1,0.7-3,0.7c-1.3,0-2.4-0.4-3.1-1.2c-0.7-0.8-1.1-1.9-1.1-3.4
	c0-1.5,0.3-3.3,0.9-5.2c0.6-1.9,1.3-3.3,2.1-4.1c0.8-0.8,2.1-1.7,3.8-2.5c1-0.5,1.8-0.7,2.6-0.7c0.9,0,1.7,0.3,2.2,0.8
	s0.8,1.2,0.8,1.9c0,3.1-3.2,5.3-9.6,6.5c-0.2,1.4-0.3,2.4-0.3,3c0,0.9,0.3,1.7,0.8,2.2c0.5,0.6,1.2,0.8,2,0.8
	c0.6,0,1.3-0.2,2.1-0.5C396.2,429.7,397.4,429,398.9,427.9z M391,423.6c2.3-0.4,4-1.1,5.1-2s1.6-2,1.6-3.1c0-0.6-0.1-1.1-0.4-1.4
	s-0.7-0.5-1.2-0.5c-0.7,0-1.4,0.2-2.1,0.6c-0.7,0.4-1.2,1.1-1.6,1.9C391.8,420.3,391.4,421.8,391,423.6z"/>
	
	<path d="M410.7,431.9l0.1-0.9l1-0.4c0.4-0.1,0.7-0.3,0.8-0.5c0.1-0.2,0.3-1,0.6-2.4l1.2-6.8c1.1-6.6,1.6-10.4,1.6-11.4
	c0-0.4-0.2-0.7-0.5-0.8c-0.1,0-1-0.1-2.5-0.2v-1c1.9,0.1,3.5,0.1,4.9,0.1c1.4,0,2.8,0,4.4-0.1l-0.1,1l-1.3,0.1
	c-0.8,0-1.3,0.1-1.5,0.3c-0.3,0.3-0.5,0.9-0.7,1.9l-1.5,8.9c-0.8,4.7-1.3,8.2-1.5,10.5c1.6,0.1,3.1,0.1,4.5,0.1
	c3,0,4.8-0.1,5.2-0.4c0.4-0.3,0.9-1.6,1.4-4h1l-0.3,1.9c-0.2,1.3-0.3,2.6-0.5,4l-3.3,0c-1,0-2.5,0-4.4-0.1c-1.5,0-2.8-0.1-4-0.1
	C413.8,431.8,412.2,431.8,410.7,431.9z"/>
	
	<path d="M440.8,427.9l0.2,0.7c-1.6,1.4-3,2.3-4,2.8c-1.1,0.5-2.1,0.7-3,0.7c-1.3,0-2.4-0.4-3.1-1.2c-0.7-0.8-1.1-1.9-1.1-3.4
	c0-1.5,0.3-3.3,0.9-5.2c0.6-1.9,1.3-3.3,2.1-4.1c0.8-0.8,2.1-1.7,3.8-2.5c1-0.5,1.8-0.7,2.6-0.7c0.9,0,1.7,0.3,2.2,0.8
	s0.8,1.2,0.8,1.9c0,3.1-3.2,5.3-9.6,6.5c-0.2,1.4-0.3,2.4-0.3,3c0,0.9,0.3,1.7,0.8,2.2c0.5,0.6,1.2,0.8,2,0.8
	c0.6,0,1.3-0.2,2.1-0.5C438.1,429.7,439.3,429,440.8,427.9z M432.8,423.6c2.3-0.4,4-1.1,5.1-2s1.6-2,1.6-3.1
	c0-0.6-0.1-1.1-0.4-1.4s-0.7-0.5-1.2-0.5c-0.7,0-1.4,0.2-2.1,0.6c-0.7,0.4-1.2,1.1-1.6,1.9C433.7,420.3,433.2,421.8,432.8,423.6z"/>

	<path d="M444,419.8h-0.8l0.5-1.6l0.8-2.6c0.7-0.1,1.3-0.2,1.7-0.2c0.3,0,0.8,0.1,1.5,0.2c0.9,0.1,1.6,0.2,2.2,0.2
	c0.5,0,0.9,0,1.2-0.1c0.3,0,0.6-0.2,1-0.4l0.4,0.5c-3.1,3.6-4.7,7.3-4.7,11c0,1.3,0.2,2.2,0.5,2.7c0.4,0.5,0.8,0.8,1.3,0.8
	c0.4,0,0.8-0.1,1.2-0.4c0.6-0.4,1.4-1.2,2.1-2.3c0.8-1.1,1.4-2.6,2-4.4c0.3-1,0.8-3.4,1.6-7.3c0.7-0.2,1.5-0.4,2.5-0.7l0.3,0.2
	c-0.8,2.2-1.4,4.6-2,7.3c-0.4,1.9-0.6,3.4-0.6,4.5c0,1.1,0.2,1.9,0.6,2.4c0.4,0.5,1,0.8,1.6,0.8c0.8,0,1.5-0.3,2.2-0.9
	c1-0.9,1.9-2.3,2.6-4.1c0.7-1.8,1.1-3.6,1.1-5.4c0-0.8-0.2-1.4-0.5-1.8c-0.3-0.4-0.8-0.6-1.3-0.6c-0.3,0-0.6,0.1-1,0.3l-0.4-0.4
	c0.7-0.6,1.4-1.3,1.9-2c0.4-0.1,0.8-0.1,1.1-0.1c0.7,0,1.3,0.3,1.7,0.8c0.4,0.6,0.6,1.4,0.6,2.4c0,2-0.6,4.2-1.7,6.6
	c-1.2,2.3-2.5,4.1-4,5.3c-1.5,1.2-2.8,1.8-3.9,1.8c-0.8,0-1.5-0.3-2.1-1c-0.6-0.7-0.9-1.6-0.9-2.7c0-0.7,0.1-1.6,0.3-2.9
	c-1.1,2.3-2.3,4.1-3.7,5.3c-0.9,0.8-1.8,1.2-2.8,1.2c-0.9,0-1.6-0.4-2.2-1.2c-0.6-0.8-0.9-2-0.9-3.6c0-0.9,0.2-1.9,0.5-2.9
	c0.3-1.1,0.8-2,1.3-2.9c0.4-0.7,1.6-2.1,3.4-4.4c-1,0.2-1.9,0.2-2.8,0.2l-0.9-0.1l-0.9,0c-0.4,0-0.7,0.1-0.8,0.3
	C444.7,417.8,444.4,418.5,444,419.8z"/>
	
	<path d="M469.4,419l-0.3-0.7c2.8-2.1,4.7-3.2,5.6-3.2c0.3,0,0.5,0.1,0.6,0.2c0.1,0.2,0.2,0.4,0.2,0.7c0,0.7-0.3,2.1-0.8,4
	c-1.3,5-2,8.1-2,9.1c0,0.4,0.2,0.6,0.5,0.6c0.4,0,1.3-0.5,2.8-1.5l0.3,0.7c-1.6,1.3-3,2.3-4,2.9c-0.4,0.3-0.8,0.4-1.2,0.4
	c-0.3,0-0.6-0.1-0.8-0.4s-0.3-0.7-0.3-1.2c0-0.7,0.3-2.2,0.9-4.5c1.2-4.4,1.8-7,1.8-7.9c0-0.4-0.2-0.6-0.5-0.6
	C471.7,417.5,470.8,418,469.4,419z M473.6,409.2c0-0.6,0.2-1.1,0.6-1.5c0.4-0.4,0.9-0.7,1.4-0.7c0.4,0,0.7,0.1,0.9,0.4
	c0.2,0.3,0.3,0.6,0.3,1.1c0,0.6-0.2,1.2-0.6,1.6c-0.4,0.4-0.8,0.7-1.3,0.7c-0.4,0-0.7-0.1-1-0.4
	C473.8,410,473.6,409.7,473.6,409.2z"/>
	
</g>

<g class="Facebook">

<g class="_x35_3">

	<path class="st0" d="M672,535H264c-6.6,0-12-5.4-12-12v-35c0-6.6,5.4-12,12-12h408c6.6,0,12,5.4,12,12v35
	C684,529.6,678.6,535,672,535z"/>
	
<g class="_x35_2">
	
	<path d="M94.3,519.9l0.1-1l1.1-0.1c0.5,0,0.9-0.1,1-0.2s0.3-0.2,0.4-0.3s0.2-0.5,0.3-1c0.1-0.5,0.5-2.7,1.1-6.6l1.3-7.8
	c0.5-3,0.7-4.7,0.7-5.1c0-0.5-0.1-0.8-0.4-0.9s-1.2-0.3-2.7-0.4l0.2-1c2.2,0.1,3.8,0.1,5,0.1l8-0.1l2.8,0
	c-0.2,1.1-0.4,2.9-0.6,5.3h-0.9c-0.1-1.3-0.2-2.4-0.3-3.3c-1.2-0.4-2.7-0.5-4.6-0.5c-0.7,0-1.8,0-3.3,0.1
	c-0.7,3.5-1.3,7.1-1.8,10.6c1.5,0.1,2.9,0.1,4.3,0.1c1.7,0,3.3-0.1,4.6-0.4l0.2,0.3c-0.3,0.7-0.5,1.2-0.7,1.7
	c-1.1-0.1-2.3-0.2-3.6-0.2c-0.8,0-2.5,0-5.1,0.1c-0.9,4.8-1.3,7.5-1.3,8.3c0,0.5,0.1,0.7,0.4,0.9s1.3,0.3,3,0.4v1
	c-1.8-0.1-3.4-0.1-4.6-0.1C97.5,519.8,96,519.8,94.3,519.9z"/>
	
	<path d="M127.1,503.2l0.4,0.3c-1.1,3.9-2,7.3-2.6,10.3c-0.4,1.7-0.5,2.9-0.5,3.4c0,0.2,0,0.4,0.1,0.5c0.1,0.1,0.2,0.2,0.4,0.2
	c0.4,0,1.2-0.5,2.5-1.6l0.2,0.8c-1.2,1.1-2.4,1.9-3.6,2.6c-0.6,0.3-1,0.5-1.4,0.5c-0.3,0-0.5-0.1-0.7-0.3
	c-0.1-0.2-0.2-0.5-0.2-0.9c0-0.9,0.4-2.9,1.2-5.8l-0.1,0c-1.6,2.3-3.3,4.2-5.2,5.7c-1.2,1-2.1,1.5-2.7,1.5c-0.3,0-0.6-0.2-0.8-0.5
	c-0.3-0.5-0.4-1.3-0.4-2.3c0-1.7,0.3-3.7,1-6c0.7-2.3,1.4-4,2.1-5c0.5-0.8,1.6-1.6,3.1-2.4c1-0.5,2-0.8,3-0.8
	c0.5,0,0.9,0.1,1.5,0.2c0.5,0.1,1.1,0.3,1.7,0.4L127.1,503.2z M124.5,505.4c-0.5-0.2-1-0.3-1.4-0.4s-0.9-0.1-1.3-0.1
	c-0.9,0-1.7,0.2-2.4,0.5c-0.2,0.1-0.5,0.5-0.8,1.1c-0.6,1.3-1.2,3-1.7,5c-0.5,2-0.8,3.8-0.8,5.3c0,0.4,0.1,0.7,0.2,0.9
	c0.1,0.2,0.3,0.3,0.4,0.3c0.5,0,1.3-0.6,2.6-1.8s2.2-2.4,2.9-3.7C123.3,510.6,124,508.3,124.5,505.4z"/>
	
	<path d="M141.8,508.4H141c0-0.9,0.1-1.5,0.1-1.9c0-0.4-0.2-0.8-0.6-1c-0.6-0.4-1.4-0.6-2.3-0.6c-1.2,0-2.1,0.3-2.8,0.8
	c-0.7,0.5-1.3,1.7-1.9,3.4c-0.6,1.8-0.9,3.6-0.9,5.6c0,1.2,0.3,2.1,0.8,2.7c0.6,0.6,1.3,0.9,2.1,0.9c0.8,0,1.6-0.2,2.4-0.5
	c0.9-0.3,2-1,3.3-2l0.3,0.7c-1.7,1.5-3.1,2.4-4.2,2.9c-1.1,0.5-2.1,0.8-3.1,0.8c-1.4,0-2.4-0.4-3.2-1.3c-0.7-0.9-1.1-2.1-1.1-3.8
	c0-1.7,0.3-3.3,0.8-5c0.6-1.7,1.3-3,2.2-3.9s2.3-1.7,4.1-2.5c0.8-0.4,1.7-0.5,2.6-0.5c0.5,0,1,0.1,1.4,0.2
	c0.4,0.1,0.9,0.4,1.5,0.7C142.2,505.4,142,506.9,141.8,508.4z"/>
	
	<path d="M154.5,515.9l0.2,0.7c-1.6,1.4-3,2.3-4,2.8c-1.1,0.5-2.1,0.7-3,0.7c-1.3,0-2.4-0.4-3.1-1.2c-0.7-0.8-1.1-1.9-1.1-3.4
	c0-1.5,0.3-3.3,0.9-5.2c0.6-1.9,1.3-3.3,2.1-4.1c0.8-0.8,2.1-1.7,3.8-2.5c1-0.5,1.8-0.7,2.6-0.7c0.9,0,1.7,0.3,2.2,0.8
	s0.8,1.2,0.8,1.9c0,3.1-3.2,5.3-9.6,6.5c-0.2,1.4-0.3,2.4-0.3,3c0,0.9,0.3,1.7,0.8,2.2c0.5,0.6,1.2,0.8,2,0.8
	c0.6,0,1.3-0.2,2.1-0.5C151.8,517.7,153,517,154.5,515.9z M146.6,511.6c2.3-0.4,4-1.1,5.1-2s1.6-2,1.6-3.1c0-0.6-0.1-1.1-0.4-1.4
	s-0.7-0.5-1.2-0.5c-0.7,0-1.4,0.2-2.1,0.6c-0.7,0.4-1.2,1.1-1.6,1.9C147.4,508.3,146.9,509.8,146.6,511.6z"/>
	
	<path d="M158.4,496.5l0.1-0.7c2.3-0.2,4.2-0.7,5.8-1.4l0.4,0.4c-0.2,0.7-0.9,3.9-2.1,9.7l-0.9,4.1c1-1.7,2.2-3,3.8-3.9
	s2.9-1.4,4.2-1.4c0.7,0,1.1,0.2,1.4,0.6c0.4,0.6,0.6,1.6,0.6,2.9c0,2.4-0.5,4.7-1.5,6.8c-1,2.1-2.4,3.8-4,4.9s-3.2,1.8-4.6,1.8
	c-1,0-1.9-0.3-2.6-0.9c-0.7-0.6-1-1.3-1-2.1c0-0.7,0.3-2.4,0.9-5.4c0.7-3.6,1.5-7.7,2.2-12.3c0.2-1.2,0.3-1.9,0.3-2.2
	c0-0.4-0.2-0.7-0.5-0.8C160.7,496.6,159.9,496.6,158.4,496.5z M160.4,516.1c0,0.8,0.2,1.5,0.7,1.9c0.5,0.5,1.1,0.7,1.9,0.7
	c1,0,1.8-0.3,2.5-0.9c1-0.8,1.8-2.2,2.6-4.2c0.7-2,1.1-4,1.1-6c0-1-0.1-1.7-0.3-2c-0.2-0.2-0.5-0.4-1.1-0.4
	c-1.2,0-2.4,0.6-3.6,1.7s-2.2,2.7-2.8,4.7C160.7,513.7,160.4,515.2,160.4,516.1z"/>
	
	<path d="M173.5,514.7c0-3.6,0.9-6.5,2.8-8.5c1.9-2,3.9-3,6.2-3c1.5,0,2.7,0.4,3.5,1.3s1.2,2.2,1.2,3.9c0,2.1-0.5,4.1-1.4,6.1
	s-2.1,3.4-3.5,4.3c-1.4,1-2.8,1.4-4.3,1.4c-1.4,0-2.6-0.4-3.4-1.3C173.9,518,173.5,516.6,173.5,514.7z M176.2,514.5
	c0,1.6,0.3,2.7,0.8,3.4c0.6,0.7,1.4,1,2.4,1c1.5,0,2.7-0.8,3.5-2.5c1.1-2.2,1.6-4.6,1.6-7.4c0-1.6-0.3-2.8-0.9-3.5
	c-0.6-0.7-1.4-1-2.5-1c-0.9,0-1.6,0.3-2.3,0.9c-0.7,0.6-1.3,1.8-1.9,3.5C176.4,510.5,176.2,512.4,176.2,514.5z"/>
	
	<path d="M189,514.7c0-3.6,0.9-6.5,2.8-8.5c1.9-2,3.9-3,6.2-3c1.5,0,2.7,0.4,3.5,1.3s1.2,2.2,1.2,3.9c0,2.1-0.5,4.1-1.4,6.1
	s-2.1,3.4-3.5,4.3c-1.4,1-2.8,1.4-4.3,1.4c-1.4,0-2.6-0.4-3.4-1.3C189.4,518,189,516.6,189,514.7z M191.7,514.5
	c0,1.6,0.3,2.7,0.8,3.4c0.6,0.7,1.4,1,2.4,1c1.5,0,2.7-0.8,3.5-2.5c1.1-2.2,1.6-4.6,1.6-7.4c0-1.6-0.3-2.8-0.9-3.5
	c-0.6-0.7-1.4-1-2.5-1c-0.9,0-1.6,0.3-2.3,0.9c-0.7,0.6-1.3,1.8-1.9,3.5C192,510.5,191.7,512.4,191.7,514.5z"/>
	
	<path d="M205.6,496.5l0.2-0.7c2.1-0.3,4-0.7,5.7-1.4l0.4,0.4l-2.4,11.1l-1.3,6.3c3-3.7,5.4-6.2,7.3-7.7c1-0.8,1.9-1.2,2.7-1.2
	c0.2,0,0.5,0,1,0.1c-0.2,0.7-0.4,1.6-0.6,2.4c-0.5-0.2-0.8-0.2-1.1-0.2c-0.6,0-1.3,0.3-2.2,0.8c-0.9,0.5-2,1.5-3.5,3.1
	c1.7,4.8,2.7,7.5,3.1,8.1c0.3,0.4,0.5,0.6,0.9,0.6c0.2,0,0.4,0,0.6-0.1c0.2-0.1,0.7-0.4,1.6-0.9l0.3,0.7c-2.3,1.6-3.7,2.5-4.2,2.5
	c-0.4,0-0.7-0.2-1-0.7c-0.6-1.1-1.7-3.8-3.1-8.3c-1,1.1-1.6,1.8-1.8,2.2c-0.2,0.4-0.5,1-0.7,1.8c-0.2,0.8-0.5,2.3-0.8,4.4
	c-0.9,0.2-1.7,0.4-2.3,0.6l-0.3-0.3c1-3.8,2.4-10.4,4.1-19.7c0.3-1.8,0.5-2.8,0.5-2.9c0-0.3-0.1-0.6-0.3-0.7
	C208.1,496.5,207.2,496.4,205.6,496.5z"/>
	
	<path d="M222.8,520.2c-0.5,0-0.8-0.2-1.1-0.5c-0.3-0.3-0.4-0.7-0.4-1.3c0-0.7,0.2-1.3,0.6-1.8c0.4-0.5,0.9-0.7,1.5-0.7
	c0.5,0,0.8,0.2,1.1,0.5c0.3,0.3,0.4,0.7,0.4,1.2c0,0.7-0.2,1.3-0.6,1.8C223.9,520,223.4,520.2,222.8,520.2z M224.9,507.4
	c-0.5,0-0.8-0.2-1.1-0.5c-0.3-0.3-0.4-0.7-0.4-1.3c0-0.7,0.2-1.3,0.6-1.8c0.4-0.5,0.9-0.7,1.5-0.7c0.5,0,0.8,0.2,1.1,0.5
	c0.3,0.3,0.4,0.7,0.4,1.3c0,0.7-0.2,1.3-0.6,1.8C226,507.1,225.5,507.4,224.9,507.4z"/>
	
	</g>
	
<g class="_x35_1">

	<path d="M276.2,524.9v-1.1c0.9,0,1.5-0.1,1.8-0.2c0.3-0.1,0.5-0.3,0.7-0.6c0.2-0.3,0.6-1.3,1.1-3.2l2.1-7.2l2.2-7.7
	c0.2-0.8,0.3-1.4,0.3-1.8c0-0.5-0.2-0.9-0.6-1.2c-0.4-0.2-1.3-0.4-2.7-0.4v-1.1c1.1,0.1,2.1,0.1,3.1,0.1c0.9,0,1.8,0,2.7-0.1
	l5.6,20.3c1.5-2.4,4.3-7.3,8.6-14.5l3.4-5.8c1.2,0.1,2.1,0.1,2.7,0.1c0.7,0,1.7,0,2.9-0.1v1.1c-1.3,0-2.1,0.1-2.4,0.3
	c-0.2,0.1-0.4,0.3-0.5,0.5c-0.1,0.3-0.2,0.8-0.3,1.5c-0.2,1.8-0.5,5-0.8,9.5c-0.4,4.5-0.5,7.4-0.5,8.7c0,0.7,0.1,1.2,0.4,1.3
	c0.3,0.2,1.2,0.3,2.6,0.4v1.1c-1.9-0.1-3.5-0.1-4.8-0.1c-1.3,0-2.8,0-4.4,0.1v-1.1c1.4,0,2.3-0.1,2.5-0.2s0.4-0.2,0.5-0.4
	c0.1-0.2,0.2-0.6,0.3-1.2c0.1-0.8,0.3-3.7,0.7-8.6l0.6-8.8c-1,1.5-2.4,3.7-4.1,6.5l-6.6,11.1c-0.6,1-1.1,2.1-1.6,3.2h-0.8
	l-5.6-19.9l-3.6,13c-0.6,2.2-0.9,3.5-0.9,4.1c0,0.5,0.2,0.8,0.5,0.9c0.2,0.1,1.1,0.2,2.5,0.2v1.1c-1.8-0.1-3.1-0.1-4-0.1
	C278.9,524.8,277.7,524.8,276.2,524.9z"/>
	
	<path d="M323.7,508.2l0.4,0.3c-1.1,3.9-2,7.3-2.6,10.3c-0.4,1.7-0.5,2.9-0.5,3.4c0,0.2,0,0.4,0.1,0.5c0.1,0.1,0.2,0.2,0.4,0.2
	c0.4,0,1.2-0.5,2.5-1.6l0.2,0.8c-1.2,1.1-2.4,1.9-3.6,2.6c-0.6,0.3-1,0.5-1.4,0.5c-0.3,0-0.5-0.1-0.7-0.3
	c-0.1-0.2-0.2-0.5-0.2-0.9c0-0.9,0.4-2.9,1.2-5.8l-0.1,0c-1.6,2.3-3.3,4.2-5.2,5.7c-1.2,1-2.1,1.5-2.7,1.5c-0.3,0-0.6-0.2-0.8-0.5
	c-0.3-0.5-0.4-1.3-0.4-2.3c0-1.7,0.3-3.7,1-6c0.7-2.3,1.4-4,2.1-5c0.5-0.8,1.6-1.6,3.1-2.4c1-0.5,2-0.8,3-0.8
	c0.5,0,0.9,0.1,1.5,0.2c0.5,0.1,1.1,0.3,1.7,0.4L323.7,508.2z M321.1,510.4c-0.5-0.2-1-0.3-1.4-0.4s-0.9-0.1-1.3-0.1
	c-0.9,0-1.7,0.2-2.4,0.5c-0.2,0.1-0.5,0.5-0.8,1.1c-0.6,1.3-1.2,3-1.7,5c-0.5,2-0.8,3.8-0.8,5.3c0,0.4,0.1,0.7,0.2,0.9
	c0.1,0.2,0.3,0.3,0.4,0.3c0.5,0,1.3-0.6,2.6-1.8s2.2-2.4,2.9-3.7C319.9,515.6,320.6,513.3,321.1,510.4z"/>
	
	<path d="M325.6,525.2l-0.3-0.3c0.9-3.1,2.1-8.4,3.5-15.9c0.8-4,1.2-6.2,1.2-6.6c0-0.5-0.2-0.8-0.5-0.9c-0.2-0.1-1-0.1-2.4-0.1
	l0.1-0.7c1.9-0.2,3.8-0.7,5.7-1.4l0.4,0.4c-1.9,8.4-3,13.7-3.3,15.8c2.2-2.8,4.2-4.7,5.9-5.8s3.1-1.6,4.1-1.6
	c0.3,0,0.6,0.1,0.8,0.3c0.2,0.2,0.3,0.5,0.3,0.9c0,0.4,0,0.9-0.1,1.3c-0.2,1.1-0.7,3.3-1.6,6.6c-0.7,2.8-1.1,4.5-1.1,5.1
	c0,0.4,0.2,0.6,0.5,0.6c0.2,0,0.4,0,0.6-0.1s0.7-0.4,1.4-0.9l1-0.7l0.3,0.6c-2.1,1.6-3.6,2.5-4.2,2.9c-0.5,0.3-0.9,0.4-1.3,0.4
	c-0.3,0-0.6-0.1-0.8-0.4s-0.3-0.6-0.3-1c0-0.5,0.3-1.8,0.8-3.8c1.3-5,1.9-7.9,1.9-8.7c0-0.3-0.1-0.6-0.2-0.7s-0.3-0.2-0.6-0.2
	c-0.7,0-1.7,0.5-3.1,1.6c-1.8,1.4-3.2,3-4.1,4.8c-0.9,1.8-1.6,4.4-2.2,7.9C327.1,524.8,326.3,524.9,325.6,525.2z"/>
	
	<path d="M344,512l-0.3-0.7c2.8-2.1,4.7-3.2,5.6-3.2c0.3,0,0.5,0.1,0.6,0.2c0.1,0.2,0.2,0.4,0.2,0.7c0,0.7-0.3,2.1-0.8,4
	c-1.3,5-2,8.1-2,9.1c0,0.4,0.2,0.6,0.5,0.6c0.4,0,1.3-0.5,2.8-1.5l0.3,0.7c-1.6,1.3-3,2.3-4,2.9c-0.4,0.3-0.8,0.4-1.2,0.4
	c-0.3,0-0.6-0.1-0.8-0.4s-0.3-0.7-0.3-1.2c0-0.7,0.3-2.2,0.9-4.5c1.2-4.4,1.8-7,1.8-7.9c0-0.4-0.2-0.6-0.5-0.6
	C346.4,510.5,345.5,511,344,512z M348.3,502.2c0-0.6,0.2-1.1,0.6-1.5c0.4-0.4,0.9-0.7,1.4-0.7c0.4,0,0.7,0.1,0.9,0.4
	c0.2,0.3,0.3,0.6,0.3,1.1c0,0.6-0.2,1.2-0.6,1.6c-0.4,0.4-0.8,0.7-1.3,0.7c-0.4,0-0.7-0.1-1-0.4
	C348.4,503,348.3,502.7,348.3,502.2z"/>
	
	<path d="M362.4,524.9l0.1-0.8l0.6-0.2c0.4-0.2,0.8-0.3,1.2-0.5c0.7-2.9,1.6-7.8,2.7-14.5c0.6-3.5,0.9-5.5,0.9-6.1
	c0-0.4-0.1-0.7-0.4-0.8c-0.3-0.1-1.2-0.3-2.7-0.4l0.2-1c2,0.1,3.8,0.1,5.2,0.1l7.7-0.1c1.2,0,2.3,0,3.3,0.1
	c-0.3,1.5-0.5,3.2-0.6,5.1h-1c-0.1-2.1-0.2-3.2-0.4-3.4c-0.3-0.3-2-0.4-5-0.4c-1,0-2,0-3.1,0.1c-0.6,3-1.2,6.2-1.7,9.4
	c1.5,0.1,2.9,0.1,4.1,0.1c1.4,0,3-0.1,4.8-0.3l0.2,0.2c-0.2,0.5-0.5,1.1-0.7,1.7c-1.6-0.1-3.7-0.2-6.1-0.2l-2.4,0
	c-0.8,4.5-1.3,7.8-1.6,10c1.9,0.2,3.9,0.3,5.9,0.3c1.4,0,2.6-0.1,3.7-0.2c0.4,0,0.6-0.1,0.8-0.2c0.2-0.1,0.3-0.3,0.4-0.6
	c0.1-0.2,0.4-1.3,0.9-3.2h1l-0.3,1.9c-0.2,1.1-0.4,2.4-0.5,3.7c-0.9,0.1-1.8,0.2-2.7,0.2c-0.6,0-1.5,0-2.7-0.1
	c-2.6-0.1-4.5-0.1-6-0.1C366.3,524.8,364.4,524.8,362.4,524.9z"/>
	
	<path d="M385,501.5l0.1-0.7c2.4-0.3,4.2-0.8,5.6-1.4l0.5,0.3l-2.1,9.9l-0.3,1.7L387,520c-0.2,1.2-0.3,2-0.3,2.4
	c0,0.2,0,0.4,0.1,0.5c0.1,0.1,0.2,0.2,0.4,0.2c0.5,0,1.5-0.7,3.1-2l0.4,0.7c-1.4,1.2-2.8,2.2-4.1,2.9c-0.7,0.4-1.2,0.6-1.6,0.6
	c-0.3,0-0.6-0.1-0.8-0.3c-0.2-0.2-0.3-0.6-0.3-1c0-0.1,0-0.4,0.1-0.8l0.6-3c0.6-3,1.2-5.6,1.7-7.8l0.4-1.7
	c0.4-1.8,0.7-3.9,1.1-6.1c0.1-1.1,0.2-1.8,0.2-2.3c0-0.4-0.1-0.6-0.3-0.7C387.4,501.5,386.5,501.5,385,501.5z"/>
	
	<path d="M393.6,512l-0.3-0.7c2.8-2.1,4.7-3.2,5.6-3.2c0.3,0,0.5,0.1,0.6,0.2c0.1,0.2,0.2,0.4,0.2,0.7c0,0.7-0.3,2.1-0.8,4
	c-1.3,5-2,8.1-2,9.1c0,0.4,0.2,0.6,0.5,0.6c0.4,0,1.3-0.5,2.8-1.5l0.3,0.7c-1.6,1.3-3,2.3-4,2.9c-0.4,0.3-0.8,0.4-1.2,0.4
	c-0.3,0-0.6-0.1-0.8-0.4s-0.3-0.7-0.3-1.2c0-0.7,0.3-2.2,0.9-4.5c1.2-4.4,1.8-7,1.8-7.9c0-0.4-0.2-0.6-0.5-0.6
	C395.9,510.5,395,511,393.6,512z M397.9,502.2c0-0.6,0.2-1.1,0.6-1.5c0.4-0.4,0.9-0.7,1.4-0.7c0.4,0,0.7,0.1,0.9,0.4
	c0.2,0.3,0.3,0.6,0.3,1.1c0,0.6-0.2,1.2-0.6,1.6c-0.4,0.4-0.8,0.7-1.3,0.7c-0.4,0-0.7-0.1-1-0.4C398,503,397.9,502.7,397.9,502.2z"/>

	<path d="M416,508.2l0.4,0.3c-1.1,3.9-2,7.3-2.6,10.3c-0.4,1.7-0.5,2.9-0.5,3.4c0,0.2,0,0.4,0.1,0.5c0.1,0.1,0.2,0.2,0.4,0.2
	c0.4,0,1.2-0.5,2.5-1.6l0.2,0.8c-1.2,1.1-2.4,1.9-3.6,2.6c-0.6,0.3-1,0.5-1.4,0.5c-0.3,0-0.5-0.1-0.7-0.3
	c-0.1-0.2-0.2-0.5-0.2-0.9c0-0.9,0.4-2.9,1.2-5.8l-0.1,0c-1.6,2.3-3.3,4.2-5.2,5.7c-1.2,1-2.1,1.5-2.7,1.5c-0.3,0-0.6-0.2-0.8-0.5
	c-0.3-0.5-0.4-1.3-0.4-2.3c0-1.7,0.3-3.7,1-6c0.7-2.3,1.4-4,2.1-5c0.5-0.8,1.6-1.6,3.1-2.4c1-0.5,2-0.8,3-0.8
	c0.5,0,0.9,0.1,1.5,0.2c0.5,0.1,1.1,0.3,1.7,0.4L416,508.2z M413.4,510.4c-0.5-0.2-1-0.3-1.4-0.4s-0.9-0.1-1.3-0.1
	c-0.9,0-1.7,0.2-2.4,0.5c-0.2,0.1-0.5,0.5-0.8,1.1c-0.6,1.3-1.2,3-1.7,5c-0.5,2-0.8,3.8-0.8,5.3c0,0.4,0.1,0.7,0.2,0.9
	c0.1,0.2,0.3,0.3,0.4,0.3c0.5,0,1.3-0.6,2.6-1.8s2.2-2.4,2.9-3.7C412.2,515.6,412.9,513.3,413.4,510.4z"/>
	
	<path d="M419,519.7h0.9l0,1.6l0,1.3c0.6,0.4,1.1,0.8,1.8,1c0.6,0.2,1.3,0.3,1.9,0.3c1.1,0,2-0.4,2.7-1.1c0.7-0.7,1.1-1.6,1.1-2.6
	c0-0.8-0.2-1.3-0.5-1.7c-0.4-0.4-1.1-0.6-2.3-0.8c-2-0.3-3.3-0.7-3.9-1.1c-0.8-0.6-1.2-1.5-1.2-2.7c0-0.9,0.3-1.7,0.8-2.5
	c0.5-0.8,1.5-1.5,2.9-2.3c1-0.6,2.1-0.9,3.1-0.9c0.5,0,1.1,0.1,1.7,0.2c0.6,0.1,1.2,0.4,1.7,0.7c-0.3,1-0.5,2.3-0.6,3.9h-0.8
	c0-0.5,0-0.9,0-1.3c0-0.6-0.1-0.9-0.4-1.1c-0.7-0.6-1.7-0.9-2.8-0.9c-1.2,0-2.1,0.3-2.7,0.9c-0.6,0.6-0.9,1.3-0.9,2.3
	c0,0.8,0.3,1.4,0.8,1.7c0.4,0.3,1.3,0.5,2.8,0.8c1.7,0.3,2.8,0.6,3.3,1c0.7,0.5,1,1.3,1,2.4c0,1.5-0.8,2.9-2.3,4.3
	c-1.6,1.4-3.3,2.1-5.2,2.1c-0.6,0-1.2-0.1-1.9-0.2c-0.6-0.2-1.2-0.4-1.8-0.7C418.6,523,418.8,521.4,419,519.7z"/>
	
</g>

<g class="Pinterest">

<g class="_x23_63">

	<path class="st0" d="M674,626H266c-6.6,0-12-5.4-12-12v-35c0-6.6,5.4-12,12-12h408c6.6,0,12,5.4,12,12v35
	C686,620.6,680.6,626,674,626z"/>
	
<g class="_x23_62">

	<path d="M96.4,613.9v-1l1.1-0.1c0.7,0,1.2-0.1,1.4-0.3c0.2-0.2,0.4-0.5,0.5-1.1c0.3-1.4,1-4.8,1.9-10.5c0.9-5.6,1.4-8.7,1.4-9.2
	c0-0.5-0.1-0.8-0.4-0.9c-0.3-0.2-1.2-0.3-2.7-0.4v-0.9c2.4,0.1,3.9,0.2,4.7,0.2c0.7,0,1.8,0,3.2-0.1c1.3-0.1,2.2-0.1,2.8-0.1
	c1.6,0,2.8,0.2,3.7,0.6s1.5,1,2,1.8c0.5,0.8,0.7,1.8,0.7,3c0,1.5-0.4,2.9-1.2,4.3c-0.8,1.4-1.8,2.5-3,3.3c-1.2,0.8-2.6,1.1-4,1.1
	c-1.1,0-2.1-0.3-3.1-0.8v-1.1c1,0.4,1.9,0.6,2.6,0.6c1.7,0,3.1-0.7,4.1-2c1-1.3,1.6-3,1.6-4.9c0-1.5-0.4-2.6-1.3-3.4
	s-2.1-1.2-3.7-1.2c-0.7,0-1.6,0.1-2.8,0.3c-1,5.1-1.9,10.1-2.7,15.1c-0.5,2.8-0.7,4.6-0.7,5.3c0,0.4,0.1,0.7,0.4,0.9
	s1.3,0.3,3.1,0.4v1c-2.5-0.1-4.3-0.1-5.5-0.1C99.1,613.8,97.7,613.8,96.4,613.9z"/>
	
	<path d="M118.3,601l-0.3-0.7c2.8-2.1,4.7-3.2,5.6-3.2c0.3,0,0.5,0.1,0.6,0.2c0.1,0.2,0.2,0.4,0.2,0.7c0,0.7-0.3,2.1-0.8,4
	c-1.3,5-2,8.1-2,9.1c0,0.4,0.2,0.6,0.5,0.6c0.4,0,1.3-0.5,2.8-1.5l0.3,0.7c-1.6,1.3-3,2.3-4,2.9c-0.4,0.3-0.8,0.4-1.2,0.4
	c-0.3,0-0.6-0.1-0.8-0.4s-0.3-0.7-0.3-1.2c0-0.7,0.3-2.2,0.9-4.5c1.2-4.4,1.8-7,1.8-7.9c0-0.4-0.2-0.6-0.5-0.6
	C120.7,599.5,119.8,600,118.3,601z M122.6,591.2c0-0.6,0.2-1.1,0.6-1.5c0.4-0.4,0.9-0.7,1.4-0.7c0.4,0,0.7,0.1,0.9,0.4
	c0.2,0.3,0.3,0.6,0.3,1.1c0,0.6-0.2,1.2-0.6,1.6c-0.4,0.4-0.8,0.7-1.3,0.7c-0.4,0-0.7-0.1-1-0.4
	C122.7,592,122.6,591.7,122.6,591.2z"/>
	
	<path d="M127.8,601.1l-0.3-0.7c1.8-1.3,3.3-2.3,4.3-2.8c0.5-0.3,0.9-0.4,1.3-0.4c0.3,0,0.5,0.1,0.6,0.2c0.1,0.2,0.2,0.4,0.2,0.7
	c0,0.2,0,0.6-0.1,1l-1.3,5.9c1-1.6,2.2-3,3.5-4.3c1.3-1.3,2.6-2.2,3.8-2.8c1.2-0.6,2.2-0.9,2.8-0.9c0.3,0,0.6,0.1,0.7,0.3
	c0.2,0.2,0.3,0.5,0.3,0.8c0,0.3,0,0.7-0.1,1c-0.1,0.6-0.7,2.9-1.6,6.9c-0.7,3-1.1,4.7-1.1,5.2c0,0.3,0.2,0.5,0.5,0.5
	c0.3,0,1-0.3,2-1l1.1-0.7l0.3,0.7c-2.8,2.2-4.7,3.2-5.6,3.2c-0.3,0-0.6-0.1-0.8-0.3c-0.2-0.2-0.3-0.5-0.3-0.9
	c0-0.7,0.4-2.5,1.1-5.3c1.1-4,1.6-6.5,1.6-7.5c0-0.2-0.1-0.4-0.2-0.6s-0.3-0.2-0.5-0.2c-0.7,0-1.6,0.5-2.8,1.4
	c-1.7,1.4-3.1,3-4,4.9s-1.7,4.6-2.2,8c-0.6,0.1-1.4,0.3-2.4,0.5l-0.3-0.3c0.8-2.8,1.6-5.8,2.2-9c0.5-2.5,0.7-4,0.7-4.7
	c0-0.2,0-0.4-0.1-0.5c-0.1-0.1-0.2-0.2-0.4-0.2C130.2,599.5,129.3,600.1,127.8,601.1z"/>
	
	<path d="M155.8,609.8l0.4,0.7c-3,2.5-5.1,3.8-6.1,3.8c-0.3,0-0.6-0.1-0.9-0.4c-0.2-0.3-0.3-0.6-0.3-1.1c0-0.6,0.3-2,0.8-4.3
	c0.7-3.1,1.2-5.8,1.7-8.1l-1.3,0l-1.7,0l0.1-0.6c1.1-0.3,2.1-0.8,3.1-1.2c0.3-1.3,0.6-3.3,0.9-6c0.9-0.3,1.8-0.7,2.7-1.2l0.4,0.3
	c-0.3,1.1-0.8,3.5-1.6,7.1l1.8,0.1c0.7,0,1.4-0.1,1.9-0.2l0.2,0.2c-0.2,0.5-0.3,1.1-0.4,1.7c-1.1-0.1-2.4-0.1-3.8-0.2
	c-1.3,6.1-1.9,9.7-1.9,10.7c0,0.3,0.1,0.5,0.2,0.7s0.3,0.2,0.4,0.2C152.8,611.9,154,611.2,155.8,609.8z"/>
	
	<path d="M169.5,609.9l0.2,0.7c-1.6,1.4-3,2.3-4,2.8c-1.1,0.5-2.1,0.7-3,0.7c-1.3,0-2.4-0.4-3.1-1.2c-0.7-0.8-1.1-1.9-1.1-3.4
	c0-1.5,0.3-3.3,0.9-5.2c0.6-1.9,1.3-3.3,2.1-4.1c0.8-0.8,2.1-1.7,3.8-2.5c1-0.5,1.8-0.7,2.6-0.7c0.9,0,1.7,0.3,2.2,0.8
	s0.8,1.2,0.8,1.9c0,3.1-3.2,5.3-9.6,6.5c-0.2,1.4-0.3,2.4-0.3,3c0,0.9,0.3,1.7,0.8,2.2c0.5,0.6,1.2,0.8,2,0.8
	c0.6,0,1.3-0.2,2.1-0.5C166.8,611.7,167.9,611,169.5,609.9z M161.5,605.6c2.3-0.4,4-1.1,5.1-2s1.6-2,1.6-3.1
	c0-0.6-0.1-1.1-0.4-1.4s-0.7-0.5-1.2-0.5c-0.7,0-1.4,0.2-2.1,0.6c-0.7,0.4-1.2,1.1-1.6,1.9C162.4,602.3,161.9,603.8,161.5,605.6z"/>

	<path d="M173.1,601.2l-0.4-0.6c2-1.5,3.5-2.5,4.5-3c0.6-0.3,1-0.4,1.4-0.4c0.2,0,0.4,0.1,0.5,0.2c0.1,0.1,0.2,0.3,0.2,0.6
	c0,0.4-0.1,0.9-0.2,1.5l-1.1,5.2c1.8-3.1,3.3-5.2,4.6-6.4c0.7-0.7,1.4-1,1.9-1c0.3,0,0.6,0.1,0.9,0.2c-0.3,1-0.5,2.3-0.6,3.7
	l-0.5,0.1c-0.3-0.4-0.7-0.6-1.1-0.6c-0.5,0-1,0.2-1.5,0.5c-0.9,0.6-1.7,1.6-2.5,2.9s-1.4,2.8-1.8,4.4c-0.1,0.4-0.5,2.1-1.1,5.2
	c-0.7,0.1-1.5,0.3-2.4,0.6l-0.3-0.3c0.9-2.9,1.5-5.7,2.1-8.5c0.5-2.8,0.8-4.5,0.8-5.2c0-0.5-0.1-0.7-0.4-0.7
	C175.6,599.5,174.7,600.1,173.1,601.2z"/>
	
	<path d="M196.7,609.9l0.2,0.7c-1.6,1.4-3,2.3-4,2.8c-1.1,0.5-2.1,0.7-3,0.7c-1.3,0-2.4-0.4-3.1-1.2c-0.7-0.8-1.1-1.9-1.1-3.4
	c0-1.5,0.3-3.3,0.9-5.2c0.6-1.9,1.3-3.3,2.1-4.1c0.8-0.8,2.1-1.7,3.8-2.5c1-0.5,1.8-0.7,2.6-0.7c0.9,0,1.7,0.3,2.2,0.8
	s0.8,1.2,0.8,1.9c0,3.1-3.2,5.3-9.6,6.5c-0.2,1.4-0.3,2.4-0.3,3c0,0.9,0.3,1.7,0.8,2.2c0.5,0.6,1.2,0.8,2,0.8
	c0.6,0,1.3-0.2,2.1-0.5C194,611.7,195.2,611,196.7,609.9z M188.8,605.6c2.3-0.4,4-1.1,5.1-2s1.6-2,1.6-3.1c0-0.6-0.1-1.1-0.4-1.4
	s-0.7-0.5-1.2-0.5c-0.7,0-1.4,0.2-2.1,0.6c-0.7,0.4-1.2,1.1-1.6,1.9C189.6,602.3,189.1,603.8,188.8,605.6z"/>
	
	<path d="M200.2,608.7h0.9l0,1.6l0,1.3c0.6,0.4,1.1,0.8,1.8,1c0.6,0.2,1.3,0.3,1.9,0.3c1.1,0,2-0.4,2.7-1.1
	c0.7-0.7,1.1-1.6,1.1-2.6c0-0.8-0.2-1.3-0.5-1.7c-0.4-0.4-1.1-0.6-2.3-0.8c-2-0.3-3.3-0.7-3.9-1.1c-0.8-0.6-1.2-1.5-1.2-2.7
	c0-0.9,0.3-1.7,0.8-2.5c0.5-0.8,1.5-1.5,2.9-2.3c1-0.6,2.1-0.9,3.1-0.9c0.5,0,1.1,0.1,1.7,0.2c0.6,0.1,1.2,0.4,1.7,0.7
	c-0.3,1-0.5,2.3-0.6,3.9h-0.8c0-0.5,0-0.9,0-1.3c0-0.6-0.1-0.9-0.4-1.1c-0.7-0.6-1.7-0.9-2.8-0.9c-1.2,0-2.1,0.3-2.7,0.9
	c-0.6,0.6-0.9,1.3-0.9,2.3c0,0.8,0.3,1.4,0.8,1.7c0.4,0.3,1.3,0.5,2.8,0.8c1.7,0.3,2.8,0.6,3.3,1c0.7,0.5,1,1.3,1,2.4
	c0,1.5-0.8,2.9-2.3,4.3c-1.6,1.4-3.3,2.1-5.2,2.1c-0.6,0-1.2-0.1-1.9-0.2c-0.6-0.2-1.2-0.4-1.8-0.7
	C199.7,612,200,610.4,200.2,608.7z"/>
	
	<path d="M221.9,609.8l0.4,0.7c-3,2.5-5.1,3.8-6.1,3.8c-0.3,0-0.6-0.1-0.9-0.4c-0.2-0.3-0.3-0.6-0.3-1.1c0-0.6,0.3-2,0.8-4.3
	c0.7-3.1,1.2-5.8,1.7-8.1l-1.3,0l-1.7,0l0.1-0.6c1.1-0.3,2.1-0.8,3.1-1.2c0.3-1.3,0.6-3.3,0.9-6c0.9-0.3,1.8-0.7,2.7-1.2l0.4,0.3
	c-0.3,1.1-0.8,3.5-1.6,7.1l1.8,0.1c0.7,0,1.4-0.1,1.9-0.2l0.2,0.2c-0.2,0.5-0.3,1.1-0.4,1.7c-1.1-0.1-2.4-0.1-3.8-0.2
	c-1.3,6.1-1.9,9.7-1.9,10.7c0,0.3,0.1,0.5,0.2,0.7s0.3,0.2,0.4,0.2C219,611.9,220.1,611.2,221.9,609.8z"/>
	
	<path d="M227.5,614.2c-0.5,0-0.8-0.2-1.1-0.5c-0.3-0.3-0.4-0.7-0.4-1.3c0-0.7,0.2-1.3,0.6-1.8c0.4-0.5,0.9-0.7,1.5-0.7
	c0.5,0,0.8,0.2,1.1,0.5c0.3,0.3,0.4,0.7,0.4,1.2c0,0.7-0.2,1.3-0.6,1.8C228.6,614,228.1,614.2,227.5,614.2z M229.6,601.4
	c-0.5,0-0.8-0.2-1.1-0.5c-0.3-0.3-0.4-0.7-0.4-1.3c0-0.7,0.2-1.3,0.6-1.8c0.4-0.5,0.9-0.7,1.5-0.7c0.5,0,0.8,0.2,1.1,0.5
	c0.3,0.3,0.4,0.7,0.4,1.3c0,0.7-0.2,1.3-0.6,1.8C230.7,601.1,230.2,601.4,229.6,601.4z"/>
	
	</g>
	
<g class="_x23_61">

	<path d="M278.2,613.9v-1.1c0.9,0,1.5-0.1,1.8-0.2c0.3-0.1,0.5-0.3,0.7-0.6c0.2-0.3,0.6-1.3,1.1-3.2l2.1-7.2l2.2-7.7
	c0.2-0.8,0.3-1.4,0.3-1.8c0-0.5-0.2-0.9-0.6-1.2c-0.4-0.2-1.3-0.4-2.7-0.4v-1.1c1.1,0.1,2.1,0.1,3.1,0.1c0.9,0,1.8,0,2.7-0.1
	l5.6,20.3c1.5-2.4,4.3-7.3,8.6-14.5l3.4-5.8c1.2,0.1,2.1,0.1,2.7,0.1c0.7,0,1.7,0,2.9-0.1v1.1c-1.3,0-2.1,0.1-2.4,0.3
	c-0.2,0.1-0.4,0.3-0.5,0.5c-0.1,0.3-0.2,0.8-0.3,1.5c-0.2,1.8-0.5,5-0.8,9.5c-0.4,4.5-0.5,7.4-0.5,8.7c0,0.7,0.1,1.2,0.4,1.3
	c0.3,0.2,1.2,0.3,2.6,0.4v1.1c-1.9-0.1-3.5-0.1-4.8-0.1c-1.3,0-2.8,0-4.4,0.1v-1.1c1.4,0,2.3-0.1,2.5-0.2s0.4-0.2,0.5-0.4
	c0.1-0.2,0.2-0.6,0.3-1.2c0.1-0.8,0.3-3.7,0.7-8.6l0.6-8.8c-1,1.5-2.4,3.7-4.1,6.5l-6.6,11.1c-0.6,1-1.1,2.1-1.6,3.2h-0.8
	l-5.6-19.9l-3.6,13c-0.6,2.2-0.9,3.5-0.9,4.1c0,0.5,0.2,0.8,0.5,0.9c0.2,0.1,1.1,0.2,2.5,0.2v1.1c-1.8-0.1-3.1-0.1-4-0.1
	C280.9,613.8,279.7,613.8,278.2,613.9z"/>
	
	<path d="M325.7,597.2l0.4,0.3c-1.1,3.9-2,7.3-2.6,10.3c-0.4,1.7-0.5,2.9-0.5,3.4c0,0.2,0,0.4,0.1,0.5c0.1,0.1,0.2,0.2,0.4,0.2
	c0.4,0,1.2-0.5,2.5-1.6l0.2,0.8c-1.2,1.1-2.4,1.9-3.6,2.6c-0.6,0.3-1,0.5-1.4,0.5c-0.3,0-0.5-0.1-0.7-0.3
	c-0.1-0.2-0.2-0.5-0.2-0.9c0-0.9,0.4-2.9,1.2-5.8l-0.1,0c-1.6,2.3-3.3,4.2-5.2,5.7c-1.2,1-2.1,1.5-2.7,1.5c-0.3,0-0.6-0.2-0.8-0.5
	c-0.3-0.5-0.4-1.3-0.4-2.3c0-1.7,0.3-3.7,1-6c0.7-2.3,1.4-4,2.1-5c0.5-0.8,1.6-1.6,3.1-2.4c1-0.5,2-0.8,3-0.8
	c0.5,0,0.9,0.1,1.5,0.2c0.5,0.1,1.1,0.3,1.7,0.4L325.7,597.2z M323.1,599.4c-0.5-0.2-1-0.3-1.4-0.4s-0.9-0.1-1.3-0.1
	c-0.9,0-1.7,0.2-2.4,0.5c-0.2,0.1-0.5,0.5-0.8,1.1c-0.6,1.3-1.2,3-1.7,5c-0.5,2-0.8,3.8-0.8,5.3c0,0.4,0.1,0.7,0.2,0.9
	c0.1,0.2,0.3,0.3,0.4,0.3c0.5,0,1.3-0.6,2.6-1.8s2.2-2.4,2.9-3.7C321.9,604.6,322.6,602.3,323.1,599.4z"/>
	
	<path d="M327.6,614.2l-0.3-0.3c0.9-3.1,2.1-8.4,3.5-15.9c0.8-4,1.2-6.2,1.2-6.6c0-0.5-0.2-0.8-0.5-0.9c-0.2-0.1-1-0.1-2.4-0.1
	l0.1-0.7c1.9-0.2,3.8-0.7,5.7-1.4l0.4,0.4c-1.9,8.4-3,13.7-3.3,15.8c2.2-2.8,4.2-4.7,5.9-5.8s3.1-1.6,4.1-1.6
	c0.3,0,0.6,0.1,0.8,0.3c0.2,0.2,0.3,0.5,0.3,0.9c0,0.4,0,0.9-0.1,1.3c-0.2,1.1-0.7,3.3-1.6,6.6c-0.7,2.8-1.1,4.5-1.1,5.1
	c0,0.4,0.2,0.6,0.5,0.6c0.2,0,0.4,0,0.6-0.1s0.7-0.4,1.4-0.9l1-0.7l0.3,0.6c-2.1,1.6-3.6,2.5-4.2,2.9c-0.5,0.3-0.9,0.4-1.3,0.4
	c-0.3,0-0.6-0.1-0.8-0.4s-0.3-0.6-0.3-1c0-0.5,0.3-1.8,0.8-3.8c1.3-5,1.9-7.9,1.9-8.7c0-0.3-0.1-0.6-0.2-0.7s-0.3-0.2-0.6-0.2
	c-0.7,0-1.7,0.5-3.1,1.6c-1.8,1.4-3.2,3-4.1,4.8c-0.9,1.8-1.6,4.4-2.2,7.9C329.1,613.8,328.3,613.9,327.6,614.2z"/>
	
	<path d="M356.3,609.9l0.2,0.7c-1.6,1.4-3,2.3-4,2.8c-1.1,0.5-2.1,0.7-3,0.7c-1.3,0-2.4-0.4-3.1-1.2c-0.7-0.8-1.1-1.9-1.1-3.4
	c0-1.5,0.3-3.3,0.9-5.2c0.6-1.9,1.3-3.3,2.1-4.1c0.8-0.8,2.1-1.7,3.8-2.5c1-0.5,1.8-0.7,2.6-0.7c0.9,0,1.7,0.3,2.2,0.8
	s0.8,1.2,0.8,1.9c0,3.1-3.2,5.3-9.6,6.5c-0.2,1.4-0.3,2.4-0.3,3c0,0.9,0.3,1.7,0.8,2.2c0.5,0.6,1.2,0.8,2,0.8
	c0.6,0,1.3-0.2,2.1-0.5C353.6,611.7,354.8,611,356.3,609.9z M348.4,605.6c2.3-0.4,4-1.1,5.1-2s1.6-2,1.6-3.1
	c0-0.6-0.1-1.1-0.4-1.4s-0.7-0.5-1.2-0.5c-0.7,0-1.4,0.2-2.1,0.6c-0.7,0.4-1.2,1.1-1.6,1.9C349.2,602.3,348.8,603.8,348.4,605.6z"/>

	<path d="M360.8,590.5l0.1-0.7c2.4-0.3,4.2-0.8,5.6-1.4l0.5,0.3l-2.1,9.9l-0.3,1.7l-1.8,8.8c-0.2,1.2-0.3,2-0.3,2.4
	c0,0.2,0,0.4,0.1,0.5c0.1,0.1,0.2,0.2,0.4,0.2c0.5,0,1.5-0.7,3.1-2l0.4,0.7c-1.4,1.2-2.8,2.2-4.1,2.9c-0.7,0.4-1.2,0.6-1.6,0.6
	c-0.3,0-0.6-0.1-0.8-0.3c-0.2-0.2-0.3-0.6-0.3-1c0-0.1,0-0.4,0.1-0.8l0.6-3c0.6-3,1.2-5.6,1.7-7.8l0.4-1.7
	c0.4-1.8,0.7-3.9,1.1-6.1c0.1-1.1,0.2-1.8,0.2-2.3c0-0.4-0.1-0.6-0.3-0.7C363.2,590.5,362.3,590.5,360.8,590.5z"/>
	
	<path d="M379.6,609.9l0.2,0.7c-1.6,1.4-3,2.3-4,2.8c-1.1,0.5-2.1,0.7-3,0.7c-1.3,0-2.4-0.4-3.1-1.2c-0.7-0.8-1.1-1.9-1.1-3.4
	c0-1.5,0.3-3.3,0.9-5.2c0.6-1.9,1.3-3.3,2.1-4.1c0.8-0.8,2.1-1.7,3.8-2.5c1-0.5,1.8-0.7,2.6-0.7c0.9,0,1.7,0.3,2.2,0.8
	s0.8,1.2,0.8,1.9c0,3.1-3.2,5.3-9.6,6.5c-0.2,1.4-0.3,2.4-0.3,3c0,0.9,0.3,1.7,0.8,2.2c0.5,0.6,1.2,0.8,2,0.8
	c0.6,0,1.3-0.2,2.1-0.5C377,611.7,378.1,611,379.6,609.9z M371.7,605.6c2.3-0.4,4-1.1,5.1-2s1.6-2,1.6-3.1c0-0.6-0.1-1.1-0.4-1.4
	s-0.7-0.5-1.2-0.5c-0.7,0-1.4,0.2-2.1,0.6c-0.7,0.4-1.2,1.1-1.6,1.9C372.6,602.3,372.1,603.8,371.7,605.6z"/>
	
	<path d="M391.3,609.8l0.4,0.7c-3,2.5-5.1,3.8-6.1,3.8c-0.3,0-0.6-0.1-0.9-0.4c-0.2-0.3-0.3-0.6-0.3-1.1c0-0.6,0.3-2,0.8-4.3
	c0.7-3.1,1.2-5.8,1.7-8.1l-1.3,0l-1.7,0l0.1-0.6c1.1-0.3,2.1-0.8,3.1-1.2c0.3-1.3,0.6-3.3,0.9-6c0.9-0.3,1.8-0.7,2.7-1.2l0.4,0.3
	c-0.3,1.1-0.8,3.5-1.6,7.1l1.8,0.1c0.7,0,1.4-0.1,1.9-0.2l0.2,0.2c-0.2,0.5-0.3,1.1-0.4,1.7c-1.1-0.1-2.4-0.1-3.8-0.2
	c-1.3,6.1-1.9,9.7-1.9,10.7c0,0.3,0.1,0.5,0.2,0.7s0.3,0.2,0.4,0.2C388.3,611.9,389.4,611.2,391.3,609.8z"/>
	
	<path d="M404.9,609.9l0.2,0.7c-1.6,1.4-3,2.3-4,2.8c-1.1,0.5-2.1,0.7-3,0.7c-1.3,0-2.4-0.4-3.1-1.2c-0.7-0.8-1.1-1.9-1.1-3.4
	c0-1.5,0.3-3.3,0.9-5.2c0.6-1.9,1.3-3.3,2.1-4.1c0.8-0.8,2.1-1.7,3.8-2.5c1-0.5,1.8-0.7,2.6-0.7c0.9,0,1.7,0.3,2.2,0.8
	s0.8,1.2,0.8,1.9c0,3.1-3.2,5.3-9.6,6.5c-0.2,1.4-0.3,2.4-0.3,3c0,0.9,0.3,1.7,0.8,2.2c0.5,0.6,1.2,0.8,2,0.8
	c0.6,0,1.3-0.2,2.1-0.5C402.2,611.7,403.4,611,404.9,609.9z M397,605.6c2.3-0.4,4-1.1,5.1-2s1.6-2,1.6-3.1c0-0.6-0.1-1.1-0.4-1.4
	s-0.7-0.5-1.2-0.5c-0.7,0-1.4,0.2-2.1,0.6c-0.7,0.4-1.2,1.1-1.6,1.9C397.8,602.3,397.4,603.8,397,605.6z"/>
	
	<path d="M416.9,613.9l0.1-0.8l0.6-0.2c0.4-0.2,0.8-0.3,1.2-0.5c0.7-2.9,1.6-7.8,2.7-14.5c0.6-3.5,0.9-5.5,0.9-6.1
	c0-0.4-0.1-0.7-0.4-0.8c-0.3-0.1-1.2-0.3-2.7-0.4l0.2-1c2,0.1,3.8,0.1,5.2,0.1l7.7-0.1c1.2,0,2.3,0,3.3,0.1
	c-0.3,1.5-0.5,3.2-0.6,5.1h-1c-0.1-2.1-0.2-3.2-0.4-3.4c-0.3-0.3-2-0.4-5-0.4c-1,0-2,0-3.1,0.1c-0.6,3-1.2,6.2-1.7,9.4
	c1.5,0.1,2.9,0.1,4.1,0.1c1.4,0,3-0.1,4.8-0.3l0.2,0.2c-0.2,0.5-0.5,1.1-0.7,1.7c-1.6-0.1-3.7-0.2-6.1-0.2l-2.4,0
	c-0.8,4.5-1.3,7.8-1.6,10c1.9,0.2,3.9,0.3,5.9,0.3c1.4,0,2.6-0.1,3.7-0.2c0.4,0,0.6-0.1,0.8-0.2c0.2-0.1,0.3-0.3,0.4-0.6
	c0.1-0.2,0.4-1.3,0.9-3.2h1l-0.3,1.9c-0.2,1.1-0.4,2.4-0.5,3.7c-0.9,0.1-1.8,0.2-2.7,0.2c-0.6,0-1.5,0-2.7-0.1
	c-2.6-0.1-4.5-0.1-6-0.1C420.8,613.8,418.9,613.8,416.9,613.9z"/>
	
	<path d="M439.6,590.5l0.1-0.7c2.4-0.3,4.2-0.8,5.6-1.4l0.5,0.3l-2.1,9.9l-0.3,1.7l-1.8,8.8c-0.2,1.2-0.3,2-0.3,2.4
	c0,0.2,0,0.4,0.1,0.5c0.1,0.1,0.2,0.2,0.4,0.2c0.5,0,1.5-0.7,3.1-2l0.4,0.7c-1.4,1.2-2.8,2.2-4.1,2.9c-0.7,0.4-1.2,0.6-1.6,0.6
	c-0.3,0-0.6-0.1-0.8-0.3c-0.2-0.2-0.3-0.6-0.3-1c0-0.1,0-0.4,0.1-0.8l0.6-3c0.6-3,1.2-5.6,1.7-7.8l0.4-1.7
	c0.4-1.8,0.7-3.9,1.1-6.1c0.1-1.1,0.2-1.8,0.2-2.3c0-0.4-0.1-0.6-0.3-0.7C441.9,590.5,441.1,590.5,439.6,590.5z"/>
	
	<path d="M448.1,601l-0.3-0.7c2.8-2.1,4.7-3.2,5.6-3.2c0.3,0,0.5,0.1,0.6,0.2c0.1,0.2,0.2,0.4,0.2,0.7c0,0.7-0.3,2.1-0.8,4
	c-1.3,5-2,8.1-2,9.1c0,0.4,0.2,0.6,0.5,0.6c0.4,0,1.3-0.5,2.8-1.5l0.3,0.7c-1.6,1.3-3,2.3-4,2.9c-0.4,0.3-0.8,0.4-1.2,0.4
	c-0.3,0-0.6-0.1-0.8-0.4s-0.3-0.7-0.3-1.2c0-0.7,0.3-2.2,0.9-4.5c1.2-4.4,1.8-7,1.8-7.9c0-0.4-0.2-0.6-0.5-0.6
	C450.5,599.5,449.5,600,448.1,601z M452.4,591.2c0-0.6,0.2-1.1,0.6-1.5c0.4-0.4,0.9-0.7,1.4-0.7c0.4,0,0.7,0.1,0.9,0.4
	c0.2,0.3,0.3,0.6,0.3,1.1c0,0.6-0.2,1.2-0.6,1.6c-0.4,0.4-0.8,0.7-1.3,0.7c-0.4,0-0.7-0.1-1-0.4
	C452.5,592,452.4,591.7,452.4,591.2z"/>
	
	<path d="M470.6,597.2l0.4,0.3c-1.1,3.9-2,7.3-2.6,10.3c-0.4,1.7-0.5,2.9-0.5,3.4c0,0.2,0,0.4,0.1,0.5c0.1,0.1,0.2,0.2,0.4,0.2
	c0.4,0,1.2-0.5,2.5-1.6l0.2,0.8c-1.2,1.1-2.4,1.9-3.6,2.6c-0.6,0.3-1,0.5-1.4,0.5c-0.3,0-0.5-0.1-0.7-0.3
	c-0.1-0.2-0.2-0.5-0.2-0.9c0-0.9,0.4-2.9,1.2-5.8l-0.1,0c-1.6,2.3-3.3,4.2-5.2,5.7c-1.2,1-2.1,1.5-2.7,1.5c-0.3,0-0.6-0.2-0.8-0.5
	c-0.3-0.5-0.4-1.3-0.4-2.3c0-1.7,0.3-3.7,1-6c0.7-2.3,1.4-4,2.1-5c0.5-0.8,1.6-1.6,3.1-2.4c1-0.5,2-0.8,3-0.8
	c0.5,0,0.9,0.1,1.5,0.2c0.5,0.1,1.1,0.3,1.7,0.4L470.6,597.2z M467.9,599.4c-0.5-0.2-1-0.3-1.4-0.4s-0.9-0.1-1.3-0.1
	c-0.9,0-1.7,0.2-2.4,0.5c-0.2,0.1-0.5,0.5-0.8,1.1c-0.6,1.3-1.2,3-1.7,5c-0.5,2-0.8,3.8-0.8,5.3c0,0.4,0.1,0.7,0.2,0.9
	c0.1,0.2,0.3,0.3,0.4,0.3c0.5,0,1.3-0.6,2.6-1.8s2.2-2.4,2.9-3.7C466.7,604.6,467.4,602.3,467.9,599.4z"/>
	
	<path d="M473.5,608.7h0.9l0,1.6l0,1.3c0.6,0.4,1.1,0.8,1.8,1c0.6,0.2,1.3,0.3,1.9,0.3c1.1,0,2-0.4,2.7-1.1
	c0.7-0.7,1.1-1.6,1.1-2.6c0-0.8-0.2-1.3-0.5-1.7c-0.4-0.4-1.1-0.6-2.3-0.8c-2-0.3-3.3-0.7-3.9-1.1c-0.8-0.6-1.2-1.5-1.2-2.7
	c0-0.9,0.3-1.7,0.8-2.5c0.5-0.8,1.5-1.5,2.9-2.3c1-0.6,2.1-0.9,3.1-0.9c0.5,0,1.1,0.1,1.7,0.2c0.6,0.1,1.2,0.4,1.7,0.7
	c-0.3,1-0.5,2.3-0.6,3.9h-0.8c0-0.5,0-0.9,0-1.3c0-0.6-0.1-0.9-0.4-1.1c-0.7-0.6-1.7-0.9-2.8-0.9c-1.2,0-2.1,0.3-2.7,0.9
	c-0.6,0.6-0.9,1.3-0.9,2.3c0,0.8,0.3,1.4,0.8,1.7c0.4,0.3,1.3,0.5,2.8,0.8c1.7,0.3,2.8,0.6,3.3,1c0.7,0.5,1,1.3,1,2.4
	c0,1.5-0.8,2.9-2.3,4.3c-1.6,1.4-3.3,2.1-5.2,2.1c-0.6,0-1.2-0.1-1.9-0.2c-0.6-0.2-1.2-0.4-1.8-0.7
	C473.1,612,473.3,610.4,473.5,608.7z"/>
	
</g>
</svg>
