<svg x="0px" y="0px"
	 viewBox="0 0 1366 768" style="enable-background:new 0 0 1366 768;"-->
	 xml:space="preserve">

<style type="text/css">
	.st0{opacity:0.15;fill:#E1FF15;}
	.st1{fill:#00A99D;}
	.st2{opacity:0.15;fill:#7F1100;}
	.st3{opacity:0.15;fill:#EA2AFF;}
	.st4{opacity:0.15;fill:#0EFF00;}
	.st5{opacity:0.15;fill:#7FE7FF;}
	.st6{fill:#22B573;}
</style>

<a href="Home.html">

<g class="Home">

	<path class="Home_x23_5" class="st0" d="M-0.5,415.6V0.5h629.8c0.7,6.9,1.2,17.1,0,29.2c-6.2,64.2-54.7,132.8-128.2,165.4
	c-71.6,31.7-101.5,0.2-148.8,29.2C279.2,269,331,356.4,269.6,410.2c-33.1,29-102,50.8-256.3,25.9L-0.5,415.6z"/>
	
	<path class="st1" d="M151,179.4l-0.8-1.9c1.9-1,3-1.6,3.2-1.9c0.2-0.3,0.2-0.7,0.1-1.3c-0.2-0.9-1.1-3-2.5-6.3l-5.4-12.2
	c-1.8-4.1-2.9-6.3-3.2-6.6c-0.2-0.2-0.4-0.3-0.6-0.3c-0.4-0.1-1.6,0.3-3.7,1.1l-0.8-1.9c3-1.2,5.4-2.2,7.2-3
	c2.8-1.2,5.3-2.4,7.5-3.5l0.8,1.9c-1.8,0.9-2.8,1.5-3.1,1.8c-0.2,0.2-0.2,0.4-0.2,0.6c0,0.3,0.3,1.3,0.8,2.7
	c0.9,2.2,1.8,4.4,2.8,6.6l0.8,1.9c1.6-0.6,4-1.7,7.4-3.1c3-1.3,5.2-2.3,6.5-3c-2.1-4.8-3.6-8-4.4-9.6c-0.4-0.8-0.8-1.3-1.2-1.4
	c-0.5-0.1-1.7,0.2-3.7,1l-0.8-1.9c3.7-1.5,6.3-2.6,7.6-3.2c2.2-1,4.6-2.1,7-3.3l0.8,1.9c-1.9,1-2.9,1.6-3.1,1.9
	c-0.1,0.2-0.2,0.4-0.2,0.6c0,0.4,0.4,1.6,1.3,3.8c1.3,3.3,2.4,5.9,3.3,7.9l4.6,10.1c1,2.3,1.7,3.6,2,3.9c0.3,0.3,0.5,0.5,0.8,0.5
	c0.3,0,1.5-0.3,3.5-1.1l0.8,1.9l-2.5,1c-1.9,0.8-3.4,1.4-4.4,1.8c-2.2,1-4.8,2.2-7.7,3.6l-0.8-1.9c1.9-1,3-1.6,3.2-2
	c0.2-0.4,0.1-1-0.3-2.1c-0.6-1.7-2.2-5.4-4.6-10.9c-1.7,0.7-3.5,1.6-5.5,2.5c-3.2,1.4-6,2.7-8.4,3.8l0.7,1.5
	c1.7,3.9,3.1,6.8,4,8.7c0.7,1.3,1.2,2,1.5,2.1c0.4,0.1,1.6-0.2,3.6-1l0.8,1.9L163,174c-1.7,0.7-3.2,1.3-4.5,1.9L151,179.4z"/>
	
	<path class="st1" d="M184.7,151.8c-1.6-3.5-1.9-6.5-1.1-9.1c1-3,3.4-5.3,7.2-7c3.7-1.6,6.8-2,9.3-1.1c2.5,0.9,4.5,3.2,6.1,6.8
	c1.7,3.7,2,7.1,0.9,10c-1.1,2.9-3.4,5.1-6.9,6.7c-3.5,1.5-6.5,1.7-9.1,0.7C188.4,157.7,186.3,155.4,184.7,151.8z M190.2,147.5
	c1.8,4,3.5,6.6,5.3,7.8c1.4,0.9,2.8,1.1,4.4,0.4c1.4-0.6,2.2-1.6,2.5-3.1c0.3-1.4-0.3-3.6-1.5-6.5c-1.8-4-3.5-6.6-5.1-7.7
	c-1.3-0.9-2.8-1-4.4-0.3c-1.4,0.6-2.2,1.7-2.5,3.1C188.5,142.8,189,144.8,190.2,147.5z"/>
	
	<path class="st1" d="M214.4,151.3l-0.8-1.8c1.5-0.7,2.3-1.2,2.5-1.5c0.2-0.2,0.2-0.6,0.1-1c-0.2-0.8-0.9-2.5-2.1-5.3
	c-2.5-5.7-4-8.8-4.4-9.2c-0.3-0.3-0.9-0.3-1.8,0.1l-1.5,0.6l-0.8-1.7c1.7-1,3.2-1.9,4.4-2.8c1.2-0.9,2.2-1.7,3-2.6
	c0.2-0.2,0.3-0.3,0.4-0.3c0.2-0.1,0.4,0,0.6,0.4c0.1,0.3,0.3,0.7,0.5,1.2c0.1,0.2,0.2,0.6,0.5,1.1l0.4,0.8l2.4-4.4
	c0.5-0.9,1.6-1.7,3.1-2.4c1.6-0.7,3-1,4.2-0.8c1.2,0.2,2.4,0.9,3.5,2l2.5-4.7c0.5-0.9,1.4-1.6,2.7-2.2c2.3-1,4.3-1.2,5.9-0.6
	c1.6,0.7,3,2.3,4.1,4.9l0.8,1.9c0.9,2.1,1.6,3.9,2.4,5.5c0.9,2.1,1.6,3.5,2,4c0.2,0.3,0.5,0.5,0.8,0.5c0.3,0,1.2-0.2,2.7-0.8
	l0.8,1.8c-1.9,0.7-3.5,1.4-4.9,2c-1.3,0.6-2.7,1.2-4.1,2l-0.5-0.3c-1-3.4-2.2-6.6-3.6-9.6c-1.6-3.6-2.9-5.8-3.8-6.4
	c-1-0.7-2.1-0.7-3.6,0c-0.9,0.4-1.6,1-2.1,1.8c-0.5,0.8-0.7,1.5-0.7,2.2c0,0.5,0.5,1.8,1.5,4c1.7,3.9,3,6.6,3.8,8.1
	c0.3,0.7,0.7,1,1,1.1c0.3,0.1,1.3-0.2,3-0.8l0.8,1.8c-2,0.8-3.9,1.6-5.8,2.4c-2.3,1-4.4,2-6.2,2.9l-0.8-1.8
	c1.5-0.7,2.2-1.2,2.3-1.8c0.1-0.5-0.6-2.5-2.1-5.8c-1.7-3.8-2.8-6.1-3.4-6.9c-0.6-0.9-1.2-1.4-2-1.6c-0.8-0.2-1.7-0.1-2.7,0.3
	c-0.7,0.3-1.3,0.8-1.8,1.4s-0.8,1.3-0.9,2.1c-0.1,0.4,0,1,0.3,1.7l0.4,0.8c0.2,0.4,0.8,1.6,1.6,3.5l1.1,2.7c1.1,2.5,1.8,4,2.1,4.4
	c0.2,0.3,0.4,0.4,0.7,0.5c0.3,0,1.1-0.2,2.6-0.7l0.8,1.8c-1.8,0.7-3.8,1.5-5.9,2.5C219.6,148.9,217.6,149.8,214.4,151.3z"/>
		
	<path class="st1" d="M271.6,120.8l0.9,0.4l-0.1,2.6c-0.8,1.1-1.7,2.1-2.8,3c-1.1,0.9-2.3,1.6-3.7,2.2c-3.2,1.4-6.2,1.6-8.9,0.6
	c-2.7-1.1-4.8-3.3-6.3-6.7c-1-2.2-1.5-4.1-1.6-5.7c-0.1-1.3,0.2-2.6,0.9-3.8s1.5-2.5,2.6-3.7c1-1.3,2.3-2.3,3.9-3
	c2.4-1.1,4.8-1.3,7-0.6c2.2,0.7,4,2.5,5.3,5.5c0.2,0.4,0.4,1,0.7,1.7l-3.4,2.3c-1.1,0.6-2.7,1.3-4.9,2.3l-4.8,2.1
	c1.4,2.5,3,4.1,4.9,4.8c1.9,0.7,3.8,0.6,5.9-0.3c0.8-0.4,1.6-0.9,2.4-1.5C270.4,122.3,271,121.6,271.6,120.8z M255.4,117.6
	c1.4-0.5,2.8-1,4.1-1.6c1.2-0.5,2.4-1.1,3.6-1.8l-0.4-1.1c-0.8-1.8-1.7-3-2.8-3.6c-1-0.5-2.1-0.6-3.3-0.1
	c-0.8,0.4-1.4,0.9-1.8,1.5c-0.4,0.7-0.6,1.4-0.6,2.2C254.2,114.1,254.6,115.6,255.4,117.6z"/>
	
</g></a>

<a href="Contact.html">

<g class="Contact">

	<path class="Contacts_x23_4" class="st2" d="M1366,411c0.3,119.2,0.7,238.3,1,357.5H703.8c-1.1-5.2-2.4-10.6-4-16.2
	c-4-13.8-13.5-46.2-37.2-72.7c-5.3-5.9-10.5-13.4-21.1-28.3c-1.9-2.7-4.8-6.9-6-13.1c-1.7-8.9,1.3-16.3,2-18.2
	c5.2-13,16.3-14.5,46.2-34.3c7.8-5.1,13.1-11.4,21.1-19.2c14.6-14.2,13.8-20.7,14.1-23.2c0.7-7.2-1.2-12.4-6-21.2
	c-5.1-9.2-13.8-21.9-30.1-27.3c-12-3.9-21.8-2-22.1-2c-17.1,1,10.1-5.1,28.1-6.1c4.1-0.2,14.7,1.3,24.1,1c50.3-1.3,95.5,3,95.5,3
	c33.9,3.2,29.4,5.4,69.3,10.1c24.6,2.9,54.3,4,92.4,4c3,0,48.4,0.6,105.5-13.1c0,0,14.7-4.4,34.2-16.2c10-6.1,12.7-10.1,14.1-14.1
	c2.6-7.8,0.1-15.6,4-18.2c2.1-1.4,5,1,6,1c12.1,0,26.1,1.5,39.2,1c25.1-1,58.2-6.6,63.3-8.1c28.6-8.3,34.4-17,61.3-20.2
	c1.5-0.2,8.4-0.8,24.1-2c16.7-1.3,30.3-2.3,39.2-3L1366,411z"/>
	
	<path class="st1" d="M976.7,680.5l0.7,0.4c-0.2,0.9-0.3,1.8-0.3,2.7c-1.5,1.5-3,2.7-4.6,3.6c-1.6,0.9-3.4,1.7-5.6,2.4
	c-4.1,1.3-7.7,1.6-11,1c-3.3-0.6-6-1.9-8.4-4c-2.3-2.1-4-4.9-5-8.2c-1.5-4.8-1-9.3,1.5-13.5c2.5-4.1,6.7-7.1,12.8-9
	c2-0.6,4-1,6.1-1.3c2.1-0.2,4.2-0.3,6.4-0.2l0.3,0.3c0,0.9,0,1.8,0.2,2.6c0.2,1.4,0.6,3.1,1.1,5.2l-2,0.6c-0.8-2.4-1.4-3.8-1.5-4
	c-0.2-0.2-0.7-0.5-1.7-0.8c-0.9-0.3-2.1-0.5-3.5-0.5c-1.4,0-2.9,0.3-4.5,0.8c-3.7,1.1-6.3,3.2-7.8,6.2c-1.5,3-1.6,6.5-0.3,10.6
	c1.4,4.4,3.8,7.6,7.3,9.6c3.2,1.8,7,2,11.2,0.7c1.6-0.5,3.1-1.2,4.5-1.9S975.2,681.9,976.7,680.5z"/>
	
	<path class="st1" d="M978.8,673.2c-1.1-3.7-1.1-6.7,0-9.1c1.4-2.8,4-4.9,7.9-6.1c3.9-1.2,7-1.2,9.3,0c2.3,1.2,4.1,3.7,5.3,7.5
	c1.2,3.9,1.1,7.2-0.3,10c-1.4,2.8-3.9,4.7-7.6,5.8c-3.6,1.1-6.7,1-9.1-0.4C981.8,679.6,980,677,978.8,673.2z M984.8,669.6
	c1.3,4.1,2.7,6.9,4.3,8.4c1.2,1.1,2.7,1.4,4.3,0.9c1.4-0.4,2.4-1.4,2.8-2.8c0.4-1.4,0.2-3.6-0.8-6.7c-1.3-4.2-2.7-6.9-4.1-8.2
	c-1.2-1-2.6-1.3-4.3-0.8c-1.4,0.4-2.4,1.4-2.9,2.8S983.9,666.8,984.8,669.6z"/>
	
	<path class="st1" d="M1008.2,676.3l-0.6-1.9c1.7-0.6,2.6-1,2.7-1.3c0.2-0.2,0.2-0.7,0-1.3c-0.4-1.6-1.2-4.4-2.4-8.4
	c-0.6-2-1.2-3.6-1.7-5c-0.3-0.9-0.5-1.4-0.7-1.5c-0.1-0.1-0.3-0.2-0.5-0.2c-0.2,0-1.1,0.2-2.8,0.7l-0.6-1.8
	c0.8-0.3,2.1-0.8,3.8-1.8c1.7-0.9,3-1.8,4.1-2.6l0.6-0.4c0.2-0.1,0.4,0.1,0.5,0.4l0,0.2c0.1,0.5,0.4,1.6,1,3.4l2.7-4.1
	c0.3-0.5,0.7-0.9,1.2-1.2c0.6-0.4,1.4-0.7,2.4-1c1.6-0.5,3.1-0.6,4.3-0.4c1.2,0.2,2.2,0.8,3,1.7c0.8,0.9,1.5,2.3,2.2,4.5
	c0.3,0.9,0.6,2,0.9,3.3c0.7,2.6,1.3,4.7,1.9,6.6c0.3,1,0.6,1.7,0.9,2.1c0.2,0.2,0.4,0.4,0.7,0.4c0.3,0,1.1-0.1,2.7-0.4l0.6,1.9
	l-2.9,0.8l-1.9,0.5l-4.8,1.6l-0.4-0.2c-0.5-3.1-1.2-6.2-2.2-9.3c-1.2-4-2.2-6.3-3-7.1c-1-1-2.3-1.2-4-0.7
	c-1.1,0.3-1.9,0.9-2.5,1.7c-0.6,0.8-0.9,1.5-1,2.2c0,0.3,0.2,1.1,0.6,2.4c1.7,5.6,2.8,8.9,3.1,9.7c0.3,0.8,0.6,1.3,0.9,1.4
	c0.4,0.1,1.4,0,3.3-0.5l0.6,1.9c-2.7,0.7-5,1.4-6.9,2C1013.1,674.7,1011.1,675.3,1008.2,676.3z"/>
	
	<path class="st1" d="M1030.8,648.8l2.5-3c-0.9-2.7-1.7-5.1-2.5-7.2c1.9-1.3,3.7-2.7,5.3-4.2l0.9,0.3c0.4,2.4,1,5.5,2.1,9.3
	c0.8-0.1,1.5-0.3,2.2-0.5c1.6-0.5,3-1,4.2-1.6l0.3,0.1l0,0.9c0,0.9,0.1,1.8,0.2,2.6c-1.9,0.4-3.2,0.8-4.1,1
	c-0.6,0.2-1.3,0.4-1.8,0.7c0.5,1.6,0.9,3,1.2,4.2c1.6,5.2,2.7,8.2,3.2,8.8c0.5,0.6,1.4,0.8,2.5,0.4c0.3-0.1,0.7-0.3,1.1-0.5
	c0.4-0.2,0.8-0.4,1.2-0.7l0.7,0.8c-0.6,1.3-1.2,2.7-1.7,4.1c-0.5,0.3-1.1,0.5-1.5,0.7s-0.9,0.4-1.3,0.5c-1.3,0.4-2.5,0.5-3.5,0.3
	c-1-0.2-1.8-0.6-2.5-1.2c-0.6-0.6-1.1-1.6-1.6-3c-0.2-0.7-0.8-2.7-1.7-5.9c-0.8-2.8-1.4-5-1.9-6.6l-1.2,0.3
	c-0.5,0.2-1.1,0.4-1.9,0.7L1030.8,648.8z"/>
	
	<path class="st1" d="M1074.3,653.9l0.6,1.9l-1.8,0.5c-1,0.2-1.9,0.5-2.9,0.8c-1.5,0.5-2.8,0.9-4.1,1.4l-0.3-0.2l-0.8-3.3l-3.7,5.1
	c-0.8,0.5-1.5,0.8-2.2,1c-1.6,0.5-3.1,0.4-4.3-0.3c-1.2-0.7-2.1-2-2.7-3.9c-0.7-2.3-0.6-4.1,0.3-5.5c1.2-1.7,4.4-3.9,9.5-6.6
	c-0.6-1.8-1.3-3.1-2.2-3.7c-1.2-0.9-2.7-1-4.5-0.5c-0.4,0.1-0.8,0.3-1.2,0.5c-0.4,0.2-0.8,0.5-1.2,0.9l-0.3,2.8l-1.7,0.1l-0.3-1.1
	l-0.3-1l-0.3-0.9c1.9-2.2,3.4-3.7,4.3-4.4c0.7-0.5,1.7-1,3-1.4c1.8-0.6,3.4-0.7,4.7-0.5c1.3,0.2,2.4,0.7,3.2,1.5
	c0.8,0.8,1.5,2.1,2.1,3.9c0.2,0.8,0.6,2.1,1.2,4.1c0.6,2,1,3.7,1.4,4.9c0.6,1.9,1,3.1,1.3,3.5c0.1,0.2,0.4,0.4,0.6,0.4
	C1071.9,654.3,1072.8,654.2,1074.3,653.9z M1062.5,647c-2.5,1.4-4.1,2.6-4.7,3.6c-0.6,0.9-0.7,2-0.4,3.2c0.3,1,0.8,1.6,1.5,2
	c0.7,0.4,1.4,0.5,2.3,0.2c1.2-0.4,2.3-1.5,3.1-3.2L1062.5,647z"/>
	
	<path class="st1" d="M1089.9,635.5l-1.9,0.6c-0.7-1.8-1.1-2.8-1.4-3.1c-0.3-0.4-0.9-0.6-1.7-0.8c-0.8-0.1-1.8,0-2.8,0.3
	c-1.7,0.5-2.7,1.4-3.2,2.5c-0.5,1.2-0.3,3,0.4,5.4c1,3.1,2.4,5.3,4.3,6.5c1.9,1.3,4,1.5,6.2,0.9c0.8-0.3,1.5-0.5,2.2-0.9
	c0.6-0.3,1.2-0.7,1.7-1.2l0.6,0.4c-0.1,0.8-0.2,1.7-0.3,2.5c-0.9,0.8-1.8,1.5-2.8,2.1c-1,0.6-2,1-3.1,1.4c-3.4,1-6.3,0.9-8.8-0.4
	c-2.5-1.3-4.2-3.7-5.3-7.1c-0.4-1.3-0.6-2.5-0.7-3.6c-0.1-1.1,0-2.1,0.2-3c0.2-0.9,0.5-1.6,0.9-2.2c0.2-0.3,1.3-1.6,3.2-3.8
	c1.1-1.3,2-2.1,2.5-2.5c0.6-0.4,1.4-0.8,2.4-1.1c0.9-0.3,1.9-0.5,2.8-0.6c0.9-0.1,1.9-0.2,2.8-0.2l0.5,0.3
	C1088.9,630.9,1089.3,633.3,1089.9,635.5z"/>
	
	<path class="st1" d="M1091.9,630l2.5-3c-0.9-2.7-1.7-5.1-2.5-7.2c1.9-1.3,3.7-2.7,5.3-4.2l0.9,0.3c0.4,2.4,1,5.5,2.1,9.3
	c0.8-0.1,1.5-0.3,2.2-0.5c1.6-0.5,3-1,4.2-1.6l0.3,0.1l0,0.9c0,0.9,0.1,1.8,0.2,2.6c-1.9,0.4-3.2,0.8-4.1,1
	c-0.6,0.2-1.3,0.4-1.8,0.7c0.5,1.6,0.9,3,1.2,4.2c1.6,5.2,2.7,8.2,3.2,8.8s1.4,0.8,2.5,0.4c0.3-0.1,0.7-0.3,1.1-0.5
	c0.4-0.2,0.8-0.4,1.2-0.7l0.7,0.8c-0.6,1.3-1.2,2.7-1.7,4.1c-0.5,0.3-1.1,0.5-1.5,0.7s-0.9,0.4-1.3,0.5c-1.3,0.4-2.5,0.5-3.5,0.3
	c-1-0.2-1.8-0.6-2.5-1.2c-0.6-0.6-1.1-1.6-1.6-3c-0.2-0.7-0.8-2.7-1.7-5.9c-0.8-2.8-1.4-5-1.9-6.6l-1.2,0.3
	c-0.5,0.2-1.1,0.4-1.9,0.7L1091.9,630z"/>
	
</g></a>

<a href="Works.html">

<g class="Works">

	<path class="Works_x23_2" class="st3" d="M0.5,422.5v345h704c-1.3-7-3.6-17.6-8-30c-20.4-58-56.2-72.5-60-100
	c-5.9-42.5,87.9-59.2,86-96c-1-19.8-26-52.2-54-46c-3.2-0.5-8-1.1-14-1c-16,0.2-25.8,4.7-46,11c-14.7,4.6-22,6.8-29,8
	c-14.2,2.5-25.2,2.3-39,2c-21.3-0.5-37.8-2.9-45-4c-11.8-1.8-40.1-6.9-75-20c-7.5-2.8-40.2-15.4-79-40c0,0-12.6-8-62-44
	c-0.7-1-1.8-2.1-3-2c-2.3,0.1-3.7,4.2-4,5c-3.3,8.6-22.4,16.7-29,19c-31,11-47,15-47,15c-43,4-104,3-175-6c-5-0.6-6.6-5.1-9-6
	l-11-15L0.5,422.5z"/>
	
	<path class="st1" d="M163,559.4l0.7-1.9c2.5,1,4.8,1.8,6.7,2.5c2.1,0.7,4.5,1.5,7.2,2.3l-0.7,1.9c-1.7-0.5-2.7-0.7-3.1-0.6
	c-0.4,0.1-0.7,0.3-0.8,0.8c-0.2,0.5-0.6,3.2-1.1,8l-1.5,13l10.1-10.2c3.9-4,6.8-7,8.6-8.9l2.1,0.7l1.4,27.3l8.8-13
	c1.9-2.8,3-4.8,3.4-6c0.2-0.5,0.1-0.9-0.2-1.1c-0.3-0.3-1.3-0.7-3.2-1.4l0.7-1.9c2.8,1.1,4.6,1.8,5.4,2c0.9,0.3,2.6,0.8,5,1.5
	l-0.7,1.9c-1.3-0.3-2.2-0.4-2.6-0.2c-0.5,0.2-1,0.7-1.8,1.7c-1.1,1.5-4.2,5.8-9.1,13.1l-8.2,12.3l-4.4-1.5l-1.3-26.5l-10.2,10.5
	c-3.2,3.3-6.1,6.3-8.6,9.2l-3.3-1.1c0.2-2,0.9-8.2,2.1-18.6l1.2-11.7c0.1-1.2,0.1-1.9-0.1-2.2S164.4,560,163,559.4z"/>
		
	<path class="st1" d="M206.3,595.9c1.2-3.7,3-6.1,5.4-7.4c2.8-1.5,6.1-1.6,10-0.2c3.9,1.3,6.4,3.1,7.5,5.5c1.2,2.3,1.1,5.4-0.2,9.2
	c-1.3,3.9-3.4,6.5-6.1,7.9c-2.8,1.4-6,1.5-9.6,0.2c-3.6-1.2-6-3.1-7.2-5.7C205,602.8,205,599.7,206.3,595.9z M213.2,596.5
	c-1.4,4.1-1.9,7.2-1.4,9.3c0.4,1.6,1.4,2.7,3,3.3c1.4,0.5,2.7,0.3,3.9-0.6c1.2-0.9,2.3-2.8,3.3-5.8c1.4-4.1,1.9-7.2,1.5-9.1
	c-0.4-1.5-1.4-2.6-3-3.2c-1.4-0.5-2.8-0.3-4,0.6C215.3,591.9,214.2,593.8,213.2,596.5z"/>
	
	<path class="st1" d="M227.4,615.4l0.6-1.9c1.6,0.5,2.5,0.7,2.8,0.6c0.2,0,0.4-0.1,0.6-0.3c0.3-0.3,0.7-1.1,1.1-2.3
	c0.8-2.2,1.6-4.3,2.2-6.1c1.2-3.6,1.9-5.7,2-6.4c0.1-0.4,0-0.7-0.1-1c-0.2-0.2-1.1-0.7-2.8-1.3l0.6-1.8c3.2,0.8,5.5,1.2,7,1.2
	l2.7-0.1c0.2,0.1,0.3,0.3,0.2,0.5l-0.1,0.3c-0.4,1-0.9,2.3-1.5,4.2c1-0.5,2.2-1.1,3.6-2c1-0.6,1.8-1,2.4-1.1
	c0.6-0.1,1.4,0,2.2,0.3c0.5,0.2,1,0.4,1.4,0.8c-0.7,1.5-1.5,3.6-2.4,6.2l-1.2,0c-0.1-0.7-0.4-1.3-0.7-1.7
	c-0.3-0.4-0.9-0.7-1.5-0.9c-0.9-0.3-1.8-0.3-2.6-0.1c-0.8,0.3-1.4,0.7-1.8,1.2c-0.3,0.4-0.9,2-1.8,4.7c-1.3,3.9-2.1,6.2-2.2,6.9
	c-0.1,0.5,0,0.8,0.1,1c0.3,0.4,1.4,0.9,3.3,1.7l-0.6,1.9l-2.6-1c-1.6-0.6-3-1.1-4.3-1.5c-1.1-0.4-2.5-0.8-4-1.3L227.4,615.4z"/>
	
	<path class="st1" d="M246.5,621.9l0.6-1.9c1.7,0.5,2.7,0.7,3,0.7c0.2,0,0.3-0.1,0.5-0.3c0.2-0.3,0.9-1.8,1.8-4.6
	c1-2.7,2-5.6,3-8.6c0.8-2.4,1.8-5.5,3.1-9.3c0.9-2.8,1.3-4.3,1.3-4.6c0-0.3-0.1-0.6-0.3-0.8s-1.1-0.6-2.6-1.2l0.6-1.7
	c2.1,0.5,3.9,0.8,5.3,1c1.4,0.2,2.7,0.2,3.9,0.1c0.3,0,0.6,0,0.7,0c0.2,0.1,0.3,0.3,0.1,0.7l-0.4,1c-0.4,1.1-2,5.4-4.6,13
	l-2.3,6.5l-0.4,1.3c4.2-1.6,8.7-3.8,13.5-6.5c1.1,0.5,2,0.8,2.9,1.1c1,0.4,2.1,0.7,3.3,1l-0.6,1.9c-1.7-0.5-2.8-0.7-3.2-0.7
	s-1,0.1-1.9,0.4c-0.9,0.3-3.4,1.3-7.5,3.1l2.1,4.9c2.4,5.7,3.8,8.9,4.3,9.7c0.3,0.5,0.8,1,1.6,1.3l-0.6,1.9
	c-1.7-0.7-3.3-1.3-4.7-1.8c-1.1-0.4-2.2-0.7-3.4-1c-0.8-2.5-1.7-4.9-2.7-7.2c-1.3-3.1-2.4-5.5-3.3-7.2l-1.3,3.7
	c-0.7,2.2-1.1,3.7-1.2,4.5c0,0.4,0,0.7,0.2,0.9c0.2,0.2,1.1,0.6,2.7,1.3l-0.6,1.9c-2.9-1.1-4.9-1.8-5.9-2.2
	C252.5,623.8,250.2,623.1,246.5,621.9z"/>
	
	<path class="st1" d="M281,625.4c-0.6,2-0.9,3.2-0.8,3.4c0.1,0.7,0.6,1.5,1.3,2.3c0.8,0.8,1.8,1.4,3,1.8c1.5,0.5,2.7,0.6,3.7,0.2
	c1-0.4,1.6-1.1,2-2.1c0.3-0.9,0.3-1.7-0.1-2.4c-0.4-0.7-1.4-1.5-3-2.5c-2.5-1.5-4-2.6-4.7-3.3c-0.7-0.7-1.1-1.6-1.3-2.6
	c-0.2-1-0.1-2.1,0.3-3.3c0.5-1.4,1.3-2.6,2.3-3.4c1.1-0.9,2.4-1.4,3.9-1.5c1.5-0.2,3.4,0.1,5.6,0.9c2.3,0.8,4.3,1.9,6,3.3
	c-0.6,1.2-1.4,3.1-2.4,5.7l-1.8-0.6c0.5-1.7,0.7-2.7,0.6-3.1c-0.1-0.5-0.4-1.1-0.9-1.6c-0.8-0.7-1.6-1.3-2.7-1.6
	c-1.3-0.4-2.4-0.5-3.3-0.2c-0.9,0.3-1.5,0.9-1.8,1.8c-0.3,0.8-0.2,1.6,0.3,2.3c0.5,0.7,1.9,1.7,4.1,3c1.6,0.9,2.6,1.6,3.2,2
	c0.9,0.8,1.5,1.8,1.8,2.9c0.3,1.1,0.2,2.3-0.3,3.7c-0.9,2.6-2.6,4.3-5.1,5c-2.5,0.7-5.1,0.6-7.9-0.4c-0.9-0.3-1.9-0.8-3-1.4
	c-1-0.6-2.2-1.3-3.3-2.2l-0.2-0.5c0.6-1.3,1.5-3.3,2.5-6.2L281,625.4z"/>
	
</g></a>

<a href="About.html">

<g class="About">

	<path class="About_x23_1" class="st4" d="M629.5,0.5c85.3,0,170.7,0,256,0c-4.9,4.8-10.2,10.9-15.2,18.4
	c-13.8,20.7-17.3,40.6-18.8,49.6c-9.1,54.7,20.3,110.4,39,146c2.8,5.4,8.3,15.5,23,39c45.8,73.1,71.3,105.1,79,114
	c13.9,16.1,20.8,24.2,30,32c36.9,31.5,78.2,42,105,46c0.5,2.7,0.9,6.6,0,11c-6,28.1-58.7,38.9-80,43c-114,22.1-216.1-23.1-359-11
	c-84.3,7.1-79,25.4-143,25c-112.9-0.8-204.4-58.2-265-108c0.6-1.4,1.6-3.5,3-6c2.8-4.9,5.4-8.2,6-9c5.4-7,9.7-21.4,11-26
	c5.2-18.3,4.6-27.4,10-61c2.7-16.9,4-21.7,5-25c2.9-9.6,6.5-21.5,15-33c19.6-26.4,51.4-32,59-33c8.2-1,18-1,18-1c9,0,15.6,0.8,17,1
	c19.1,2.1,47.6-3.9,70-12c5.8-2.1,17.9-6.8,32-15c9.1-5.3,39.3-23.7,66-60c9.4-12.8,25.2-34.7,34-68c5.8-22,6.5-41,6-54L629.5,0.5z"/>
	
	<path class="st1" d="M561,377.9c1.5-0.1,2.5-0.2,2.8-0.4c0.2-0.2,0.6-0.8,1.2-1.8c1-2.1,2.3-5,3.9-8.8l8.8-21.1l3.6,0l10.8,26.3
	c1.4,3.3,2.3,5.1,2.6,5.5c0.3,0.3,1.4,0.5,3.1,0.7l0,2.2c-2.7-0.1-5.2-0.2-7.5-0.2c-2.8,0-5.5,0-8,0.1l0-2.2
	c1.9-0.1,3.1-0.2,3.4-0.3c0.3-0.1,0.5-0.4,0.5-0.7c0-0.3-0.3-1.3-1-3.1l-1.6-4.1c-2-0.1-4.3-0.1-6.8-0.1c-2.2,0-4.1,0-5.9,0
	l-1.1,2.7c-0.3,0.7-0.7,1.9-1.1,3.3c-0.1,0.3-0.2,0.6-0.2,0.9c0,0.4,0.2,0.6,0.5,0.8c0.3,0.2,1.5,0.3,3.4,0.5l0,2.2
	c-1.6-0.1-3.6-0.2-6-0.2c-2.3,0-4.1,0-5.4,0.1L561,377.9z M577.2,354.4l-5.3,12.5c1.5,0.1,3.1,0.2,5,0.2c1.9,0,3.7,0,5.4-0.1
	L577.2,354.4z"/>
	
	<path class="st1" d="M604.2,381.1l-1.2-0.5c0.3-3.9,0.5-9.4,0.6-16.3c0-3.1,0-5.6,0-7.3l-0.1-6.3c0-1-0.1-1.6-0.2-1.9
	c-0.1-0.2-0.3-0.4-0.6-0.4c-0.2-0.1-1.2-0.1-2.9-0.2l0-1.8c0.9,0,2.3-0.2,4.3-0.5c2-0.4,3.4-0.7,4.4-1.1l1.1-0.4
	c0.3,0,0.5,0.2,0.5,0.6l-0.1,2.6c0,0.9-0.1,5.5-0.3,13.8l3-2.4c0.9-0.8,1.8-1.3,2.5-1.5c0.7-0.3,1.6-0.4,2.7-0.4
	c2.7,0,4.9,0.9,6.6,2.7c1.6,1.8,2.4,4,2.4,6.9c0,1.4-0.3,2.8-0.7,4.3c-0.5,1.5-1,2.7-1.7,3.6c-0.7,0.9-1.6,1.7-2.6,2.5
	c-1.4,0.9-2.5,1.6-3.5,2.3c-1.1,0.8-2.1,1.4-2.8,1.6c-0.8,0.3-1.7,0.4-2.8,0.4c-1.1,0-2.1-0.2-3-0.4c-0.9-0.3-2-0.8-3.2-1.5
	C605.9,379.5,605.2,380.1,604.2,381.1z M609.6,363.9l-0.1,11.2c0.6,0.9,1.3,1.6,2.2,2c0.8,0.5,1.8,0.7,2.9,0.7
	c1.7,0,3.2-0.7,4.2-2c1.1-1.4,1.6-3.5,1.7-6.3c0-2.7-0.5-4.7-1.6-6.1c-1.1-1.4-2.5-2.1-4.3-2.1c-0.9,0-1.8,0.2-2.7,0.6
	C611.1,362.4,610.3,363,609.6,363.9z"/>
	
	<path class="st1" d="M630.9,369.2c0-3.9,1-6.8,2.8-8.7c2.2-2.3,5.3-3.4,9.4-3.4c4.1,0,7,1,8.9,2.8c1.9,1.9,2.8,4.8,2.7,8.8
	c0,4.1-1.1,7.2-3.3,9.4c-2.2,2.2-5.2,3.3-9,3.2c-3.8,0-6.6-1.1-8.6-3.2C631.9,376.2,630.9,373.2,630.9,369.2z M637.7,367.6
	c0,4.3,0.5,7.4,1.6,9.3c0.8,1.4,2.1,2.2,3.9,2.2c1.5,0,2.7-0.6,3.5-1.8c0.8-1.2,1.3-3.4,1.3-6.6c0-4.4-0.4-7.4-1.4-9.1
	c-0.8-1.3-2.1-2-3.9-2c-1.5,0-2.7,0.6-3.6,1.8C638.2,362.6,637.7,364.7,637.7,367.6z"/>
		
	<path class="st1" d="M657.8,361.3l0-1.9c2.6-0.2,5-0.7,7.3-1.3l2.4-0.8c0.3,0,0.4,0.2,0.4,0.6l-0.1,1.4c-0.3,3.7-0.5,7.4-0.5,10.8
	c0,2.3,0.1,3.7,0.3,4.5c0.2,0.7,0.6,1.3,1.2,1.7c0.6,0.4,1.4,0.6,2.4,0.6c1.2,0,2.2-0.3,3-0.9c0.9-0.6,1.4-1.3,1.6-2.1
	c0.2-0.8,0.3-2.9,0.4-6.5c0-2.9,0-4.6-0.1-5.1c-0.1-0.3-0.2-0.4-0.3-0.5c-0.2-0.1-1.3-0.3-3.3-0.4l0-1.9c3.3-0.3,5.8-0.8,7.3-1.2
	l2.6-0.9c0.3,0,0.4,0.2,0.4,0.5l-0.1,0.7c-0.3,2.8-0.5,8-0.5,15.4c0,2.3,0,3.7,0.2,4.3c0.1,0.3,0.2,0.5,0.4,0.6
	c0.3,0.1,1.3,0.3,3.1,0.4l0,2c-1.9-0.1-3.7-0.2-5.5-0.2c-1.5,0-2.9,0-4.2,0.1l-0.2-0.4c0.1-0.8,0.2-2.1,0.2-3.8
	c-1.5,1.2-3,2.5-4.4,4c-1.2,0.5-2.3,0.7-3.4,0.7c-1.5,0-2.8-0.3-3.9-0.9c-1.1-0.6-1.9-1.4-2.4-2.4c-0.5-1-0.8-2.3-0.8-4.1l0.1-2.7
	c0.1-1.6,0.1-3,0.1-4c0-2.9,0-4.6-0.1-5.2c-0.1-0.4-0.2-0.6-0.5-0.8C660.5,361.5,659.5,361.4,657.8,361.3z"/>
	
	<path class="st1" d="M687.9,361.8l3.3-2.1c0-2.9-0.1-5.4-0.2-7.6c2.2-0.7,4.3-1.5,6.3-2.4l0.7,0.6c-0.4,2.4-0.7,5.5-0.8,9.5
	c0.7,0.1,1.5,0.2,2.2,0.2c1.7,0,3.2-0.1,4.5-0.3l0.2,0.1l-0.2,0.9c-0.3,0.9-0.4,1.7-0.6,2.5c-1.9-0.1-3.3-0.2-4.2-0.2
	c-0.7,0-1.3,0-2,0.1c0,1.6-0.1,3.1-0.1,4.4c-0.1,5.5,0.1,8.6,0.4,9.3s1.1,1.1,2.3,1.1c0.4,0,0.7,0,1.2-0.1
	c0.4-0.1,0.9-0.2,1.3-0.3l0.4,0.9c-1,1.1-2,2.2-2.9,3.4c-0.6,0.1-1.2,0.2-1.7,0.2s-1,0.1-1.4,0.1c-1.4,0-2.5-0.3-3.4-0.7
	s-1.6-1.1-2-1.9c-0.4-0.8-0.6-1.9-0.6-3.4c0-0.8,0.1-2.8,0.2-6.2c0.1-2.9,0.2-5.2,0.2-6.9l-1.2-0.1c-0.5,0-1.2,0-2,0.1
	L687.9,361.8z"/>
	
</g></a>

<a href="Side Projects.html">

<g class="Side_Projects">

	<path class="SideProjects_x23_3" class="st5" d="M1366,414V0L886,1c-7.7,7.8-18.4,20.3-26,38c-34.2,79.4,30.1,176.1,78,248
	c49.5,74.4,74.3,111.6,122,136c102.8,52.5,214.1,6.5,238-4L1366,414z"/>
	
	<path class="st6" d="M997.1,151.6l2,0.8c-0.9,2.2-1.3,3.6-1.4,4c0,0.4,0.2,1.1,0.7,2c0.5,0.9,1.2,1.8,2.3,2.7c1,0.9,2.1,1.6,3.4,2
	c2.1,0.9,4.1,1,5.8,0.4c1.7-0.6,2.9-1.8,3.6-3.5c0.6-1.6,0.7-2.9,0.2-4.1c-0.5-1.2-1.9-2.4-4.2-3.7c-3.4-2-5.5-3.5-6.5-4.6
	c-1-1.1-1.6-2.4-1.8-3.9c-0.2-1.5,0-3.1,0.7-4.8c1.1-2.8,3.1-4.8,5.9-6s6.4-0.9,10.8,0.9c1.7,0.7,3.2,1.4,4.4,2.2
	c1.2,0.8,2.4,1.8,3.5,2.9l0,0.6c-0.6,0.9-1.1,1.6-1.6,2.4c-0.4,0.7-1,2-1.9,3.9l-1.9-0.8c0.9-2.3,1.3-3.7,1.2-4
	c-0.1-0.6-0.6-1.4-1.6-2.5c-0.9-1-2.2-1.8-3.7-2.4c-2.1-0.8-3.9-1-5.4-0.4c-1.5,0.5-2.6,1.6-3.3,3.2c-0.4,1-0.5,1.9-0.3,2.8
	c0.2,0.9,0.6,1.7,1.3,2.4c0.7,0.7,2.3,1.8,4.9,3.3c2.4,1.4,3.9,2.4,4.6,3.2c1.2,1.2,2,2.5,2.2,4c0.3,1.5,0,3.2-0.7,5
	c-1.3,3.2-3.6,5.4-6.9,6.5c-3.3,1.1-7.1,0.8-11.3-0.9c-1.9-0.8-3.5-1.6-4.9-2.6s-2.7-2.2-4.1-3.7c0.7-0.9,1.3-1.8,1.7-2.7
	C995.5,155.2,996.2,153.7,997.1,151.6z"/>
	
	<path class="st6" d="M1019.7,171.9l0.7-1.9c1.7,0.6,2.8,0.9,3.1,0.9s0.7-0.4,1-1.1c0.5-0.9,1.4-3,2.7-6.2c0.6-1.4,1.1-2.7,1.5-3.9
	l1-2.7c0.4-0.9,0.5-1.5,0.4-1.7c-0.1-0.3-0.6-0.6-1.4-1l-1.7-0.8l0.7-1.7c3.7,1.2,7,1.8,9.8,1.7l0.4,0.7c-1.4,2.8-3.2,7-5.4,12.5
	c-1.3,3.2-2,5.1-2.2,5.9c-0.1,0.5-0.1,0.9,0,1.1c0.1,0.2,1.1,0.8,2.8,1.6l-0.7,1.9c-2.7-1.2-4.8-2.1-6.3-2.7
	C1025.4,174,1023.2,173.2,1019.7,171.9z M1039.3,141.6c1,0.4,1.7,1.1,2.1,2s0.4,1.9,0,2.9c-0.4,1-1.1,1.7-2,2.1
	c-1,0.4-1.9,0.4-2.9,0c-1-0.4-1.7-1.1-2.1-2c-0.4-1-0.4-1.9,0-2.9c0.4-1,1.1-1.7,2-2.1C1037.3,141.2,1038.3,141.2,1039.3,141.6z"/>

	<path class="st6" d="M1060.6,163.9l1.6-3.9c1-2.4,1.5-3.9,1.5-4.3c0-0.3,0-0.6-0.2-0.8s-1.2-0.7-3-1.5l0.7-1.6
	c3.7,1.1,7.1,1.5,9.9,1.5l0.4,0.8c-1.1,2.4-2.1,4.6-3,6.8l-7.3,17.7c-1.2,3-1.9,4.8-2,5.5c-0.1,0.4-0.1,0.8,0.1,1
	c0.2,0.3,1,0.8,2.6,1.6l-0.8,1.9c-1.8-0.8-3.6-1.6-5.3-2.3c-1.3-0.5-2.5-0.9-3.6-1.3l-0.3-0.4c0.8-1.4,1.4-2.6,1.9-3.5
	c-1.3,0.4-3.5,1-6.5,2c-1,0-1.9-0.2-2.6-0.5c-2.5-1-4.2-2.8-5.1-5.3c-0.9-2.5-0.7-5.4,0.5-8.5c0.6-1.5,1.3-2.8,2.2-3.9
	c0.8-1.1,1.6-1.9,2.3-2.3c0.7-0.4,2-0.9,3.7-1.3c2.4-0.6,4.1-0.8,5.1-0.8c1,0,2,0.2,3,0.6c0.7,0.3,1.5,0.7,2.2,1.2
	C1059.3,162.7,1060,163.3,1060.6,163.9z M1058.7,168.8c-0.3-1.3-0.8-2.4-1.5-3.2c-0.7-0.9-1.6-1.5-2.7-2c-1.6-0.6-3-0.6-4.3,0.2
	c-1.3,0.8-2.4,2.5-3.5,5.1c-1.1,2.7-1.4,4.9-0.9,6.6c0.5,1.7,1.5,2.9,3.1,3.6c1.1,0.4,2.2,0.5,3.4,0.3c1.2-0.3,1.9-0.6,2.3-1.1
	c0.4-0.5,1.2-2.4,2.6-5.8L1058.7,168.8z"/>
	
	<path class="st6" d="M1084,192.8l0.4,0.9l-1.9,1.8c-1.4,0.2-2.7,0.3-4.1,0.1s-2.8-0.5-4.2-1.1c-3.3-1.3-5.5-3.3-6.6-6
	c-1.1-2.7-1-5.7,0.4-9.2c0.9-2.2,1.9-3.9,3-5.1c0.9-1,2.1-1.6,3.4-2c1.3-0.4,2.8-0.6,4.5-0.8c1.6-0.1,3.3,0.1,4.9,0.8
	c2.5,1,4.2,2.5,5.3,4.6c1.1,2,1,4.6-0.3,7.7c-0.2,0.4-0.4,0.9-0.8,1.7l-4-0.8c-1.2-0.4-2.8-1-5-1.9l-4.9-2c-0.8,2.7-0.8,5,0,6.8
	c0.8,1.9,2.2,3.2,4.3,4c0.9,0.3,1.8,0.6,2.7,0.7C1082,193,1083,192.9,1084,192.8z M1075,178.9c1.3,0.7,2.6,1.3,4,1.8
	c1.2,0.5,2.5,0.9,3.8,1.3l0.5-1.1c0.8-1.9,1-3.4,0.6-4.5s-1.1-1.9-2.2-2.4c-0.8-0.3-1.6-0.4-2.3-0.2c-0.8,0.2-1.4,0.6-2,1.2
	S1075.9,176.9,1075,178.9z"/>
	
	<path class="st6" d="M1098.6,203.7l0.8-1.9c1.9,0.6,2.9,0.9,3.2,0.8c0.2,0,0.4-0.1,0.6-0.3c0.3-0.3,1-1.8,2.2-4.6s2.3-5.4,3.3-8
	c1.9-4.8,3.3-8.3,4-10.4c0.7-2.1,1-3.3,0.9-3.7c-0.1-0.3-0.7-0.8-1.8-1.3l-1.3-0.6l0.8-1.9l2.5,1.1c1.6,0.7,2.8,1.2,3.8,1.6
	c1.3,0.5,3.4,1.3,6.2,2.4c1.6,0.6,2.7,1,3.4,1.3c2.7,1.1,4.6,2.2,5.7,3.2c1.1,1,1.8,2.2,2,3.5c0.3,1.3,0.1,2.7-0.6,4.3
	c-1.1,2.8-3.1,4.7-5.8,5.8c-2.7,1.1-5.7,1-8.7-0.2c-0.4-0.2-0.8-0.4-1.2-0.6c-0.4-0.2-0.8-0.5-1.3-0.8c0-0.6-0.1-1.3-0.2-1.9
	l0.7-0.4c0.3,0.2,0.6,0.4,0.9,0.5c0.3,0.2,0.5,0.3,0.7,0.4c1.5,0.6,3,0.6,4.4-0.1c1.4-0.7,2.5-1.9,3.2-3.8c0.8-2.1,1-3.9,0.4-5.3
	c-0.6-1.4-1.8-2.5-3.8-3.3c-0.8-0.3-1.8-0.6-2.9-0.8c-2,4.6-3.7,8.5-5,11.7c-0.4,1.1-1.8,4.6-4,10.5c-0.9,2.3-1.3,3.7-1.4,4.1
	c0,0.3,0,0.5,0.2,0.7c0.3,0.3,1.5,1,3.7,2l-0.8,1.9c-2.6-1.2-4.9-2.1-6.7-2.9C1106.1,206.6,1103.3,205.5,1098.6,203.7z"/>
	
	<path class="st6" d="M1125.6,214.7l0.8-1.9c1.6,0.5,2.5,0.8,2.7,0.8c0.2,0,0.4-0.1,0.6-0.3c0.3-0.3,0.7-1.1,1.3-2.3
	c1-2.2,1.8-4.2,2.5-6c1.4-3.5,2.2-5.6,2.4-6.3c0.1-0.4,0.1-0.7-0.1-1c-0.2-0.3-1.1-0.8-2.8-1.5l0.7-1.7c3.2,0.9,5.5,1.5,7,1.6
	l2.7,0.1c0.2,0.1,0.3,0.3,0.1,0.6l-0.1,0.3c-0.4,0.9-1,2.3-1.7,4.1c1.1-0.4,2.3-1,3.7-1.8c1-0.6,1.9-0.9,2.5-0.9
	c0.6,0,1.4,0.1,2.2,0.4c0.5,0.2,0.9,0.5,1.4,0.8c-0.7,1.5-1.7,3.5-2.8,6.1l-1.2,0c-0.1-0.7-0.3-1.3-0.6-1.7s-0.8-0.7-1.5-1
	c-0.9-0.4-1.8-0.4-2.6-0.2c-0.8,0.2-1.5,0.6-1.9,1.1c-0.3,0.4-1,1.9-2.1,4.6c-1.5,3.8-2.4,6.1-2.5,6.8c-0.1,0.4-0.1,0.8,0.1,1
	c0.3,0.4,1.3,1,3.2,1.9l-0.8,1.9l-2.5-1.1c-1.6-0.7-3-1.3-4.2-1.8c-1.1-0.5-2.4-1-3.9-1.5L1125.6,214.7z"/>
		
	<path class="st6" d="M1149.4,211.7c1.4-3.6,3.4-5.9,5.8-7.1c2.9-1.3,6.2-1.2,10,0.3c3.8,1.5,6.2,3.5,7.2,5.9
	c1,2.4,0.8,5.5-0.7,9.1c-1.5,3.8-3.7,6.3-6.5,7.6c-2.8,1.2-6,1.2-9.6-0.3c-3.5-1.4-5.8-3.4-6.8-6.1S1147.9,215.4,1149.4,211.7z
	M1156.3,212.7c-1.6,4-2.3,7.1-1.9,9.2c0.3,1.6,1.2,2.8,2.8,3.4c1.4,0.6,2.7,0.4,3.9-0.4c1.2-0.8,2.4-2.7,3.6-5.6
	c1.6-4.1,2.3-7.1,2-9c-0.3-1.6-1.2-2.7-2.8-3.3c-1.4-0.6-2.7-0.4-4,0.4C1158.6,208.2,1157.4,210,1156.3,212.7z"/>
	
	<path class="st6" d="M1164.7,244.3l0.1-1.9l0.3-0.1c0.6,0.3,1,0.5,1.2,0.6c0.7,0.3,1.4,0.2,2.1-0.2c1-0.5,2-1.7,3.1-3.6
	c1-1.9,2.7-5.8,5.1-11.6c1.1-2.7,2.2-5.6,3.4-8.7c0.5-1.4,0.8-2.3,0.8-2.6c0-0.2-0.1-0.4-0.3-0.5s-1.1-0.6-2.8-1.4l0.7-1.7
	c3.1,0.9,5.6,1.4,7.7,1.6l2.5,0.2c0.2,0.1,0.3,0.2,0.2,0.4l-0.3,0.6c-1.6,3.4-3.4,7.5-5.3,12.3c-2,4.9-3.2,7.8-3.7,8.8
	c-1.2,2.5-2.5,4.4-4,5.8c-1.5,1.4-3.1,2.3-4.8,2.8c-1.7,0.4-3.3,0.4-4.6-0.2C1165.7,244.8,1165.2,244.6,1164.7,244.3z M1190,202.4
	c1,0.4,1.7,1.1,2.1,2s0.4,1.9,0,2.9c-0.4,1-1.1,1.7-2,2.1c-1,0.4-1.9,0.4-2.9,0c-1-0.4-1.7-1.1-2.1-2c-0.4-1-0.4-1.9,0-2.9
	s1.1-1.7,2-2.1C1188,202,1189,202,1190,202.4z"/>
	
	<path class="st6" d="M1206.4,242.2l0.4,0.9l-1.9,1.8c-1.4,0.2-2.7,0.3-4.1,0.1c-1.4-0.2-2.8-0.5-4.2-1.1c-3.3-1.3-5.5-3.3-6.6-6
	c-1.1-2.7-1-5.7,0.4-9.2c0.9-2.2,1.9-3.9,3-5.1c0.9-1,2.1-1.6,3.4-2c1.3-0.4,2.8-0.6,4.5-0.8c1.6-0.1,3.3,0.1,4.9,0.8
	c2.5,1,4.2,2.5,5.3,4.6c1.1,2,1,4.6-0.3,7.7c-0.2,0.4-0.4,0.9-0.8,1.7l-4-0.8c-1.2-0.4-2.8-1-5-1.9l-4.9-2c-0.8,2.7-0.8,5,0,6.8
	c0.8,1.9,2.2,3.2,4.3,4c0.9,0.3,1.8,0.6,2.7,0.7C1204.4,242.4,1205.4,242.3,1206.4,242.2z M1197.3,228.3c1.3,0.7,2.6,1.3,4,1.8
	c1.2,0.5,2.5,0.9,3.8,1.3l0.5-1.1c0.8-1.9,1-3.4,0.6-4.5s-1.1-1.9-2.2-2.4c-0.8-0.3-1.6-0.4-2.3-0.2c-0.8,0.2-1.4,0.6-2,1.2
	C1199.1,225,1198.3,226.3,1197.3,228.3z"/>
	
	<path class="st6" d="M1231,241.1l-1.9-0.8c0.6-1.8,0.9-2.9,0.9-3.3c0-0.5-0.3-1.1-0.9-1.7c-0.5-0.6-1.3-1.1-2.4-1.6
	c-1.6-0.6-3-0.7-4.1,0c-1.1,0.6-2.1,2.1-3.1,4.5c-1.2,3-1.5,5.6-0.8,7.8c0.7,2.2,2.1,3.7,4.3,4.6c0.8,0.3,1.5,0.5,2.2,0.7
	c0.7,0.1,1.4,0.2,2,0.1l0.2,0.7c-0.6,0.6-1.2,1.2-1.8,1.8c-1.2,0.1-2.4,0.1-3.5-0.1c-1.1-0.2-2.2-0.5-3.3-0.9
	c-3.3-1.3-5.5-3.3-6.6-5.8c-1.1-2.6-1-5.5,0.4-8.9c0.5-1.2,1.1-2.3,1.7-3.2c0.6-0.9,1.3-1.6,2-2.2c0.7-0.5,1.4-0.9,2.1-1.2
	c0.4-0.1,2-0.4,4.9-0.9c1.7-0.3,2.9-0.4,3.6-0.4c0.7,0.1,1.5,0.3,2.6,0.7c0.9,0.4,1.8,0.8,2.6,1.3c0.8,0.5,1.6,1,2.3,1.6l0.2,0.6
	C1233.2,236.8,1231.9,239,1231,241.1z"/>
	
	<path class="st6" d="M1236.1,238.1l3.8-0.8c1-2.7,1.9-5.1,2.6-7.1c2.3,0.2,4.6,0.2,6.8,0l0.5,0.8c-1.2,2.1-2.6,4.9-4.2,8.5
	c0.6,0.4,1.3,0.7,2,1c1.5,0.6,3,1.1,4.3,1.4l0.1,0.2l-0.5,0.7c-0.6,0.8-1,1.5-1.4,2.1c-1.7-0.8-3-1.4-3.8-1.8
	c-0.6-0.3-1.2-0.5-1.8-0.6c-0.6,1.5-1.2,2.9-1.7,4c-2.1,5.1-3.1,8-3,8.8c0,0.8,0.6,1.5,1.7,1.9c0.3,0.1,0.7,0.2,1.1,0.3
	c0.4,0.1,0.9,0.1,1.4,0.2l0,1c-1.3,0.6-2.6,1.3-3.9,2.1c-0.6-0.1-1.1-0.3-1.6-0.4c-0.5-0.1-0.9-0.3-1.3-0.5
	c-1.3-0.5-2.2-1.2-2.9-1.9c-0.7-0.8-1.1-1.6-1.2-2.4c-0.1-0.9,0.1-2,0.7-3.3c0.3-0.7,1.1-2.6,2.4-5.7c1.2-2.7,2.1-4.8,2.7-6.4
	l-1.1-0.5c-0.5-0.2-1.1-0.4-1.9-0.6L1236.1,238.1z"/>
	
	<path class="st6" d="M1250.7,256.6c-0.7,2-1.1,3.1-1,3.4c0.1,0.8,0.5,1.5,1.2,2.4c0.7,0.8,1.7,1.5,2.9,2c1.5,0.6,2.7,0.7,3.7,0.4
	c1-0.3,1.7-1,2.1-2c0.3-0.9,0.4-1.7,0-2.4c-0.3-0.7-1.3-1.6-2.9-2.7c-2.4-1.6-3.9-2.8-4.5-3.6c-0.6-0.8-1-1.6-1.1-2.7
	c-0.1-1,0-2.1,0.5-3.3c0.6-1.4,1.4-2.5,2.5-3.3s2.5-1.2,4-1.3c1.5-0.1,3.4,0.3,5.5,1.2c2.2,0.9,4.2,2.1,5.8,3.6
	c-0.7,1.1-1.6,3-2.7,5.6l-1.8-0.7c0.6-1.7,0.8-2.7,0.8-3c0-0.5-0.3-1.1-0.8-1.6c-0.7-0.8-1.6-1.3-2.6-1.7
	c-1.3-0.5-2.4-0.6-3.3-0.3c-0.9,0.3-1.6,0.9-1.9,1.7c-0.3,0.8-0.3,1.6,0.2,2.3c0.4,0.7,1.8,1.8,4,3.2c1.5,1,2.5,1.7,3.1,2.2
	c0.9,0.9,1.4,1.9,1.6,3c0.2,1.1,0,2.3-0.5,3.6c-1,2.6-2.8,4.1-5.3,4.7c-2.5,0.6-5.1,0.3-7.9-0.8c-0.9-0.4-1.9-0.9-2.9-1.5
	c-1-0.7-2.1-1.4-3.2-2.4l-0.2-0.5c0.7-1.2,1.7-3.3,2.8-6.1L1250.7,256.6z"/>
	
</g></a>
</svg>
