<div class="svgclass">
<svg  x="0px" y="0px"
	 viewBox="0 0 1366 768" style="enable-background:new 0 0 1366 768;"--> xml:space="preserve">
	 
<style type="text/css">
	.st0{fill:#D3FF6A;}
	.st1{fill:#BFFFE8;}
</style>

<g class="Week_01">

	<circle class="st0" cx="179.6" cy="131.6" r="108.6"/>

		<path d="M115.4,124.6v-1.4c1.9,0.1,3.6,0.1,5,0.1c1.5,0,3.3,0,5.3-0.1v1.4c-1.2,0-1.9,0.1-2.2,0.3c-0.3,0.1-0.4,0.4-0.4,0.7
		c0,0.4,0.4,2.2,1.1,5.6l1.9,8.9l4.4-9.1c1.7-3.5,2.9-6.2,3.7-7.8h1.5l7.1,17.7l2.9-10.6c0.6-2.3,0.9-3.9,0.9-4.7
		c0-0.4-0.1-0.6-0.4-0.7c-0.2-0.1-1-0.2-2.4-0.2v-1.4c2.1,0.1,3.4,0.1,4,0.1c0.7,0,1.9,0,3.7-0.1v1.4c-0.9,0.1-1.5,0.2-1.8,0.4
		c-0.3,0.2-0.5,0.7-0.8,1.5c-0.4,1.2-1.4,4.8-3.1,10.7l-2.7,10H140l-6.8-17.3l-4.4,9.2c-1.4,2.9-2.6,5.6-3.6,8h-2.4
		c-0.3-1.4-1.2-5.7-2.9-12.8l-1.8-8c-0.2-0.8-0.4-1.3-0.6-1.4C117.2,124.8,116.5,124.7,115.4,124.6z"/>
		
		<path d="M166.3,143.8l0.5,0.5L166,146c-0.8,0.5-1.7,0.9-2.6,1.1c-0.9,0.3-1.9,0.4-3,0.4c-2.5,0-4.4-0.7-5.9-2.2s-2.1-3.5-2.1-6.1
		c0-1.7,0.2-3,0.6-4.1c0.3-0.9,0.9-1.6,1.7-2.2c0.8-0.6,1.7-1.1,2.7-1.7s2.1-0.8,3.4-0.8c1.9,0,3.4,0.5,4.6,1.6
		c1.2,1,1.8,2.7,1.8,5c0,0.3,0,0.7-0.1,1.3l-2.8,0.5c-0.9,0.1-2.1,0.1-3.8,0.1h-3.7c0.2,2,0.8,3.4,1.8,4.4c1,1,2.3,1.5,3.8,1.5
		c0.6,0,1.3-0.1,1.9-0.3S165.6,144.2,166.3,143.8z M156.7,137.2c1,0.1,2.1,0.1,3.1,0.1c0.9,0,1.8,0,2.8-0.1l0-0.8
		c0-1.4-0.3-2.4-0.8-3.1c-0.5-0.6-1.2-1-2.1-1c-0.6,0-1.1,0.2-1.6,0.5c-0.4,0.3-0.8,0.7-1,1.3C157,134.6,156.9,135.7,156.7,137.2z"/>

		<path d="M183.8,143.8l0.5,0.5l-0.8,1.6c-0.8,0.5-1.7,0.9-2.6,1.1c-0.9,0.3-1.9,0.4-3,0.4c-2.5,0-4.4-0.7-5.9-2.2s-2.1-3.5-2.1-6.1
		c0-1.7,0.2-3,0.6-4.1c0.3-0.9,0.9-1.6,1.7-2.2c0.8-0.6,1.7-1.1,2.7-1.7s2.1-0.8,3.4-0.8c1.9,0,3.4,0.5,4.6,1.6
		c1.2,1,1.8,2.7,1.8,5c0,0.3,0,0.7-0.1,1.3l-2.8,0.5c-0.9,0.1-2.1,0.1-3.8,0.1h-3.7c0.2,2,0.8,3.4,1.8,4.4c1,1,2.3,1.5,3.8,1.5
		c0.6,0,1.3-0.1,1.9-0.3S183.1,144.2,183.8,143.8z M174.2,137.2c1,0.1,2.1,0.1,3.1,0.1c0.9,0,1.8,0,2.8-0.1l0-0.8
		c0-1.4-0.3-2.4-0.8-3.1c-0.5-0.6-1.2-1-2.1-1c-0.6,0-1.1,0.2-1.6,0.5c-0.4,0.3-0.8,0.7-1,1.3C174.5,134.6,174.4,135.7,174.2,137.2
		z"/>
		
		<path d="M186.8,147.1v-1.4c1.2,0,1.9-0.1,2.1-0.2c0.1-0.1,0.2-0.2,0.2-0.3c0.1-0.3,0.2-1.4,0.2-3.4s0.1-4.2,0.1-6.4
		c0-1.8,0-4.1-0.1-6.9c0-2-0.1-3.2-0.2-3.4s-0.2-0.4-0.4-0.5c-0.2-0.1-0.8-0.2-2-0.2v-1.2c1.5-0.1,2.8-0.3,3.7-0.5
		c0.9-0.2,1.8-0.5,2.6-0.8c0.2-0.1,0.4-0.1,0.5-0.1c0.2,0,0.3,0.2,0.3,0.5l0,0.7c0,0.8-0.1,4.1-0.1,9.6l0,4.8l0,0.9
		c2.4-2,4.9-4.5,7.5-7.4c0.8,0.1,1.5,0.1,2.2,0.1c0.8,0,1.6,0,2.4-0.1v1.4c-1.3,0.1-2,0.1-2.3,0.2c-0.3,0.1-0.6,0.3-1.2,0.7
		s-1.9,1.6-4.3,3.7l2.5,2.8c2.8,3.2,4.5,5,5,5.5c0.3,0.3,0.8,0.5,1.4,0.5v1.4c-1.3-0.1-2.4-0.1-3.5-0.1c-0.8,0-1.7,0-2.5,0.1
		c-1.1-1.5-2.3-2.9-3.4-4.2c-1.5-1.7-2.8-3.1-3.8-4v2.8c0,1.6,0.1,2.7,0.2,3.3c0.1,0.3,0.2,0.4,0.3,0.5c0.2,0.1,0.9,0.2,2.1,0.2
		v1.4c-2.2-0.1-3.7-0.1-4.4-0.1C191.2,147,189.5,147.1,186.8,147.1z"/>
		
		<path d="M217.1,135.5c0-3.3,0.3-5.8,1-7.5c0.7-1.7,1.6-3,2.8-3.9c1.2-0.8,2.7-1.3,4.4-1.3c1.7,0,3,0.4,4.1,1.1
		c1.1,0.7,1.9,1.9,2.4,3.4c0.6,1.6,0.8,3.9,0.8,7.2c0,3.3-0.3,5.9-1,7.7c-0.7,1.8-1.6,3.1-2.8,4c-1.2,0.9-2.6,1.3-4.3,1.3
		c-1.6,0-3-0.4-4.2-1.2c-1.2-0.8-2-2-2.6-3.5C217.3,141.3,217.1,138.8,217.1,135.5z M221.3,133.3c0,3.6,0.2,6.3,0.5,8.1
		c0.3,1.7,0.8,2.9,1.4,3.6c0.5,0.5,1.1,0.7,1.8,0.7c1.1,0,1.9-0.5,2.4-1.5c0.7-1.2,1-3.6,1-7.2c0-4.4-0.3-7.6-1-9.7
		c-0.5-1.7-1.4-2.5-2.8-2.5c-1.1,0-1.9,0.5-2.5,1.6C221.6,127.4,221.3,129.7,221.3,133.3z"/>
		
		<path d="M235.7,147.1l-0.2-0.2v-1l0.2-0.2c2.2-0.2,3.4-0.3,3.7-0.5c0.2-0.1,0.4-0.2,0.5-0.4c0.1-0.3,0.3-1.4,0.3-3.4
		c0.1-3.3,0.1-6.2,0.1-8.8c0-3.3,0-5.2-0.1-5.6c0-0.2-0.2-0.3-0.3-0.3c-0.1,0-0.3,0-0.5,0.1l-4.7,2.2l-0.2-0.1
		c-0.1-0.8-0.2-1.5-0.4-2.1l0.1-0.3c4.3-1.2,7.8-2.4,10.7-3.6l0.4,0.3c-0.1,1.6-0.3,3.7-0.3,6.5s-0.1,6-0.1,9.9
		c0,2.7,0.1,4.3,0.2,5c0.1,0.3,0.2,0.5,0.4,0.6c0.3,0.2,1.4,0.3,3.5,0.4l0.2,0.2v1l-0.2,0.2l-2.1-0.1c-2.1,0-3.6-0.1-4.3-0.1
		C240.5,147,238.2,147.1,235.7,147.1z"/>
	
</g>

<g class="Week_02">

<g class="_x32_.2">
		
	<circle class="st1" cx="511.5" cy="131.6" r="108.6"/>
	
<g class="_x32_.1">

	<path d="M441.4,124.6v-1.4c1.9,0.1,3.6,0.1,5,0.1c1.5,0,3.3,0,5.3-0.1v1.4c-1.2,0-1.9,0.1-2.2,0.3c-0.3,0.1-0.4,0.4-0.4,0.7
	c0,0.4,0.4,2.2,1.1,5.6l1.9,8.9l4.4-9.1c1.7-3.5,2.9-6.2,3.7-7.8h1.5l7.1,17.7l2.9-10.6c0.6-2.3,0.9-3.9,0.9-4.7
	c0-0.4-0.1-0.6-0.4-0.7c-0.2-0.1-1-0.2-2.4-0.2v-1.4c2.1,0.1,3.4,0.1,4,0.1c0.7,0,1.9,0,3.7-0.1v1.4c-0.9,0.1-1.5,0.2-1.8,0.4
	c-0.3,0.2-0.5,0.7-0.8,1.5c-0.4,1.2-1.4,4.8-3.1,10.7l-2.7,10H466l-6.8-17.3l-4.4,9.2c-1.4,2.9-2.6,5.6-3.6,8h-2.4
	c-0.3-1.4-1.2-5.7-2.9-12.8l-1.8-8c-0.2-0.8-0.4-1.3-0.6-1.4C443.2,124.8,442.5,124.7,441.4,124.6z"/>
	
	<path d="M492.3,143.8l0.5,0.5L492,146c-0.8,0.5-1.7,0.9-2.6,1.1c-0.9,0.3-1.9,0.4-3,0.4c-2.5,0-4.4-0.7-5.9-2.2s-2.1-3.5-2.1-6.1
	c0-1.7,0.2-3,0.6-4.1c0.3-0.9,0.9-1.6,1.7-2.2c0.8-0.6,1.7-1.1,2.7-1.7s2.1-0.8,3.4-0.8c1.9,0,3.4,0.5,4.6,1.6
	c1.2,1,1.8,2.7,1.8,5c0,0.3,0,0.7-0.1,1.3l-2.8,0.5c-0.9,0.1-2.1,0.1-3.8,0.1h-3.7c0.2,2,0.8,3.4,1.8,4.4c1,1,2.3,1.5,3.8,1.5
	c0.6,0,1.3-0.1,1.9-0.3S491.6,144.2,492.3,143.8z M482.7,137.2c1,0.1,2.1,0.1,3.1,0.1c0.9,0,1.8,0,2.8-0.1l0-0.8
	c0-1.4-0.3-2.4-0.8-3.1c-0.5-0.6-1.2-1-2.1-1c-0.6,0-1.1,0.2-1.6,0.5c-0.4,0.3-0.8,0.7-1,1.3C483,134.6,482.9,135.7,482.7,137.2z"/>

	<path d="M509.8,143.8l0.5,0.5l-0.8,1.6c-0.8,0.5-1.7,0.9-2.6,1.1c-0.9,0.3-1.9,0.4-3,0.4c-2.5,0-4.4-0.7-5.9-2.2s-2.1-3.5-2.1-6.1
	c0-1.7,0.2-3,0.6-4.1c0.3-0.9,0.9-1.6,1.7-2.2c0.8-0.6,1.7-1.1,2.7-1.7s2.1-0.8,3.4-0.8c1.9,0,3.4,0.5,4.6,1.6
	c1.2,1,1.8,2.7,1.8,5c0,0.3,0,0.7-0.1,1.3l-2.8,0.5c-0.9,0.1-2.1,0.1-3.8,0.1h-3.7c0.2,2,0.8,3.4,1.8,4.4c1,1,2.3,1.5,3.8,1.5
	c0.6,0,1.3-0.1,1.9-0.3S509.1,144.2,509.8,143.8z M500.2,137.2c1,0.1,2.1,0.1,3.1,0.1c0.9,0,1.8,0,2.8-0.1l0-0.8
	c0-1.4-0.3-2.4-0.8-3.1c-0.5-0.6-1.2-1-2.1-1c-0.6,0-1.1,0.2-1.6,0.5c-0.4,0.3-0.8,0.7-1,1.3C500.5,134.6,500.4,135.7,500.2,137.2
	z"/>
	
	<path d="M512.8,147.1v-1.4c1.2,0,1.9-0.1,2.1-0.2c0.1-0.1,0.2-0.2,0.2-0.3c0.1-0.3,0.2-1.4,0.2-3.4s0.1-4.2,0.1-6.4
	c0-1.8,0-4.1-0.1-6.9c0-2-0.1-3.2-0.2-3.4s-0.2-0.4-0.4-0.5c-0.2-0.1-0.8-0.2-2-0.2v-1.2c1.5-0.1,2.8-0.3,3.7-0.5
	c0.9-0.2,1.8-0.5,2.6-0.8c0.2-0.1,0.4-0.1,0.5-0.1c0.2,0,0.3,0.2,0.3,0.5l0,0.7c0,0.8-0.1,4.1-0.1,9.6l0,4.8l0,0.9
	c2.4-2,4.9-4.5,7.5-7.4c0.8,0.1,1.5,0.1,2.2,0.1c0.8,0,1.6,0,2.4-0.1v1.4c-1.3,0.1-2,0.1-2.3,0.2c-0.3,0.1-0.6,0.3-1.2,0.7
	s-1.9,1.6-4.3,3.7l2.5,2.8c2.8,3.2,4.5,5,5,5.5c0.3,0.3,0.8,0.5,1.4,0.5v1.4c-1.3-0.1-2.4-0.1-3.5-0.1c-0.8,0-1.7,0-2.5,0.1
	c-1.1-1.5-2.3-2.9-3.4-4.2c-1.5-1.7-2.8-3.1-3.8-4v2.8c0,1.6,0.1,2.7,0.2,3.3c0.1,0.3,0.2,0.4,0.3,0.5c0.2,0.1,0.9,0.2,2.1,0.2
	v1.4c-2.2-0.1-3.7-0.1-4.4-0.1C517.2,147,515.5,147.1,512.8,147.1z"/>
	
	<path d="M543.1,135.5c0-3.3,0.3-5.8,1-7.5c0.7-1.7,1.6-3,2.8-3.9c1.2-0.8,2.7-1.3,4.4-1.3c1.7,0,3,0.4,4.1,1.1
	c1.1,0.7,1.9,1.9,2.4,3.4c0.6,1.6,0.8,3.9,0.8,7.2c0,3.3-0.3,5.9-1,7.7c-0.7,1.8-1.6,3.1-2.8,4c-1.2,0.9-2.6,1.3-4.3,1.3
	c-1.6,0-3-0.4-4.2-1.2c-1.2-0.8-2-2-2.6-3.5C543.3,141.3,543.1,138.8,543.1,135.5z M547.3,133.3c0,3.6,0.2,6.3,0.5,8.1
	c0.3,1.7,0.8,2.9,1.4,3.6c0.5,0.5,1.1,0.7,1.8,0.7c1.1,0,1.9-0.5,2.4-1.5c0.7-1.2,1-3.6,1-7.2c0-4.4-0.3-7.6-1-9.7
	c-0.5-1.7-1.4-2.5-2.8-2.5c-1.1,0-1.9,0.5-2.5,1.6C547.6,127.4,547.3,129.7,547.3,133.3z"/>
	
	<path d="M560.3,147.2v-1.9l3.5-3.4c2.9-2.8,4.8-5,5.6-6.5c0.8-1.5,1.3-2.9,1.3-4.3c0-1.4-0.3-2.5-1-3.2c-0.7-0.7-1.6-1.1-2.8-1.1
	c-0.9,0-1.6,0.2-2.3,0.6c-0.7,0.4-1.1,0.8-1.2,1.1c-0.1,0.2-0.3,1.1-0.7,2.9h-1.4c0.4-2.3,0.6-4.3,0.7-6c0.9-0.9,1.8-1.5,2.8-1.9
	c1-0.4,2.2-0.6,3.4-0.6c2.3,0,4,0.6,5.3,1.8c1.3,1.2,2,2.8,2,4.7c0,1.6-0.5,3.1-1.5,4.7s-3.9,4.5-8.5,8.7l0.1,0.2h4
	c3,0,5.3-0.1,6.9-0.2l0.2,0.2c-0.1,1-0.2,1.7-0.2,2.2c0,0.5,0.1,1.1,0.2,1.8l-0.2,0.2c-2.2-0.1-4.8-0.2-7.6-0.2
	C566.6,147,563.8,147.1,560.3,147.2z"/>
	
</g>

<g class="Week_03">

<g class="_x33_.2">
		
	<circle class="st1" cx="868.5" cy="130.6" r="108.6"/>
	
<g class="_x33_.1">

	<path d="M799.4,123.6v-1.4c1.9,0.1,3.6,0.1,5,0.1c1.5,0,3.3,0,5.3-0.1v1.4c-1.2,0-1.9,0.1-2.2,0.3c-0.3,0.1-0.4,0.4-0.4,0.7
	c0,0.4,0.4,2.2,1.1,5.6l1.9,8.9l4.4-9.1c1.7-3.5,2.9-6.2,3.7-7.8h1.5l7.1,17.7l2.9-10.6c0.6-2.3,0.9-3.9,0.9-4.7
	c0-0.4-0.1-0.6-0.4-0.7c-0.2-0.1-1-0.2-2.4-0.2v-1.4c2.1,0.1,3.4,0.1,4,0.1c0.7,0,1.9,0,3.7-0.1v1.4c-0.9,0.1-1.5,0.2-1.8,0.4
	c-0.3,0.2-0.5,0.7-0.8,1.5c-0.4,1.2-1.4,4.8-3.1,10.7l-2.7,10H824l-6.8-17.3l-4.4,9.2c-1.4,2.9-2.6,5.6-3.6,8h-2.4
	c-0.3-1.4-1.2-5.7-2.9-12.8l-1.8-8c-0.2-0.8-0.4-1.3-0.6-1.4C801.2,123.8,800.5,123.7,799.4,123.6z"/>
	
	<path d="M850.3,142.8l0.5,0.5L850,145c-0.8,0.5-1.7,0.9-2.6,1.1c-0.9,0.3-1.9,0.4-3,0.4c-2.5,0-4.4-0.7-5.9-2.2s-2.1-3.5-2.1-6.1
	c0-1.7,0.2-3,0.6-4.1c0.3-0.9,0.9-1.6,1.7-2.2c0.8-0.6,1.7-1.1,2.7-1.7s2.1-0.8,3.4-0.8c1.9,0,3.4,0.5,4.6,1.6
	c1.2,1,1.8,2.7,1.8,5c0,0.3,0,0.7-0.1,1.3l-2.8,0.5c-0.9,0.1-2.1,0.1-3.8,0.1h-3.7c0.2,2,0.8,3.4,1.8,4.4c1,1,2.3,1.5,3.8,1.5
	c0.6,0,1.3-0.1,1.9-0.3C849,143.5,849.6,143.2,850.3,142.8z M840.7,136.2c1,0.1,2.1,0.1,3.1,0.1c0.9,0,1.8,0,2.8-0.1l0-0.8
	c0-1.4-0.3-2.4-0.8-3.1c-0.5-0.6-1.2-1-2.1-1c-0.6,0-1.1,0.2-1.6,0.5c-0.4,0.3-0.8,0.7-1,1.3C841,133.6,840.9,134.7,840.7,136.2z"/>

	<path d="M867.8,142.8l0.5,0.5l-0.8,1.6c-0.8,0.5-1.7,0.9-2.6,1.1c-0.9,0.3-1.9,0.4-3,0.4c-2.5,0-4.4-0.7-5.9-2.2s-2.1-3.5-2.1-6.1
	c0-1.7,0.2-3,0.6-4.1c0.3-0.9,0.9-1.6,1.7-2.2c0.8-0.6,1.7-1.1,2.7-1.7s2.1-0.8,3.4-0.8c1.9,0,3.4,0.5,4.6,1.6
	c1.2,1,1.8,2.7,1.8,5c0,0.3,0,0.7-0.1,1.3l-2.8,0.5c-0.9,0.1-2.1,0.1-3.8,0.1h-3.7c0.2,2,0.8,3.4,1.8,4.4c1,1,2.3,1.5,3.8,1.5
	c0.6,0,1.3-0.1,1.9-0.3C866.5,143.5,867.1,143.2,867.8,142.8z M858.2,136.2c1,0.1,2.1,0.1,3.1,0.1c0.9,0,1.8,0,2.8-0.1l0-0.8
	c0-1.4-0.3-2.4-0.8-3.1c-0.5-0.6-1.2-1-2.1-1c-0.6,0-1.1,0.2-1.6,0.5c-0.4,0.3-0.8,0.7-1,1.3C858.5,133.6,858.4,134.7,858.2,136.2
	z"/>
	
	<path d="M870.8,146.1v-1.4c1.2,0,1.9-0.1,2.1-0.2c0.1-0.1,0.2-0.2,0.2-0.3c0.1-0.3,0.2-1.4,0.2-3.4c0-2,0.1-4.2,0.1-6.4
	c0-1.8,0-4.1-0.1-6.9c0-2-0.1-3.2-0.2-3.4s-0.2-0.4-0.4-0.5s-0.8-0.2-2-0.2v-1.2c1.5-0.1,2.8-0.3,3.7-0.5s1.8-0.5,2.6-0.8
	c0.2-0.1,0.4-0.1,0.5-0.1c0.2,0,0.3,0.2,0.3,0.5l0,0.7c0,0.8-0.1,4.1-0.1,9.6l0,4.8l0,0.9c2.4-2,4.9-4.5,7.5-7.4
	c0.8,0.1,1.5,0.1,2.2,0.1c0.8,0,1.6,0,2.4-0.1v1.4c-1.3,0.1-2,0.1-2.3,0.2c-0.3,0.1-0.6,0.3-1.2,0.7s-1.9,1.6-4.3,3.7l2.5,2.8
	c2.8,3.2,4.5,5,5,5.5c0.3,0.3,0.8,0.5,1.4,0.5v1.4c-1.3-0.1-2.5-0.1-3.5-0.1c-0.8,0-1.7,0-2.5,0.1c-1.1-1.5-2.3-2.9-3.4-4.2
	c-1.5-1.7-2.8-3.1-3.8-4v2.8c0,1.6,0.1,2.7,0.2,3.3c0.1,0.3,0.2,0.4,0.3,0.5c0.2,0.1,0.9,0.2,2.1,0.2v1.4
	c-2.2-0.1-3.7-0.1-4.4-0.1C875.2,146,873.5,146.1,870.8,146.1z"/>
	
	<path d="M901.1,134.5c0-3.3,0.3-5.8,1-7.5c0.7-1.7,1.6-3,2.8-3.9c1.2-0.8,2.7-1.3,4.4-1.3c1.7,0,3,0.4,4.1,1.1
	c1.1,0.7,1.9,1.9,2.4,3.4c0.6,1.6,0.8,3.9,0.8,7.2c0,3.3-0.3,5.9-1,7.7c-0.7,1.8-1.6,3.1-2.8,4s-2.6,1.3-4.3,1.3
	c-1.6,0-3-0.4-4.2-1.2c-1.2-0.8-2-2-2.6-3.5C901.3,140.3,901.1,137.8,901.1,134.5z M905.3,132.3c0,3.6,0.2,6.3,0.5,8.1
	c0.3,1.7,0.8,2.9,1.4,3.6c0.5,0.5,1.1,0.7,1.8,0.7c1.1,0,1.9-0.5,2.4-1.5c0.7-1.2,1-3.6,1-7.2c0-4.4-0.3-7.6-1-9.7
	c-0.5-1.7-1.4-2.5-2.8-2.5c-1.1,0-1.9,0.5-2.5,1.6S905.3,128.7,905.3,132.3z"/>
	
	<path d="M918.4,140.1l1.2-0.3c0.6,1.7,1.4,2.9,2.3,3.6c0.9,0.7,2,1.1,3.2,1.1c1.3,0,2.3-0.4,3.2-1.3c0.8-0.9,1.2-2,1.2-3.4
	c0-1.4-0.4-2.5-1.3-3.4c-0.8-0.8-2-1.3-3.5-1.3c-0.5,0-1.2,0.1-2,0.3l-0.2-0.2c0.2-0.7,0.5-1.6,0.7-2.7c0.5,0,0.8,0.1,1,0.1
	c1.3,0,2.3-0.4,3.1-1.1c0.8-0.7,1.2-1.6,1.2-2.7c0-1-0.3-1.7-0.9-2.3c-0.6-0.6-1.5-0.9-2.5-0.9c-0.7,0-1.4,0.1-2,0.4
	c-0.6,0.3-1,0.5-1.2,0.8c-0.2,0.3-0.5,1.1-1,2.4l-1.3-0.1c0.5-2,0.9-3.8,1.1-5.4c0.9-0.6,1.8-1.1,2.7-1.3c0.9-0.3,1.9-0.4,3-0.4
	c2,0,3.6,0.5,4.7,1.4c1.1,0.9,1.7,2.2,1.7,3.7c0,1.1-0.3,2.1-0.9,2.9c-0.6,0.8-1.6,1.6-3.1,2.4c1.4,0.2,2.4,0.5,3.1,0.9
	c0.7,0.4,1.2,1,1.6,1.8c0.4,0.8,0.6,1.7,0.6,2.7c0,2.6-1.2,4.8-3.6,6.6c-2,1.5-4.3,2.2-6.8,2.2c-0.8,0-1.5-0.1-2.2-0.3
	c-0.7-0.2-1.4-0.4-2.1-0.8C919.1,143.8,918.8,142,918.4,140.1z"/>
	
</g>

<g class="Week_04">

<g class="_x34_.2">
	
	<circle class="st0" cx="1187.4" cy="129.6" r="108.6"/>
	
<g class="_x34_.1">
		
	<path d="M1127.4,122.6v-1.4c1.9,0.1,3.6,0.1,5,0.1c1.5,0,3.3,0,5.3-0.1v1.4c-1.2,0-1.9,0.1-2.2,0.3c-0.3,0.1-0.4,0.4-0.4,0.7
	c0,0.4,0.4,2.2,1.1,5.6l1.9,8.9l4.4-9.1c1.7-3.5,2.9-6.2,3.7-7.8h1.5l7.1,17.7l2.9-10.6c0.6-2.3,0.9-3.9,0.9-4.7
	c0-0.4-0.1-0.6-0.4-0.7c-0.2-0.1-1-0.2-2.4-0.2v-1.4c2.1,0.1,3.4,0.1,4,0.1c0.7,0,1.9,0,3.7-0.1v1.4c-0.9,0.1-1.5,0.2-1.8,0.4
	c-0.3,0.2-0.5,0.7-0.8,1.5c-0.4,1.2-1.4,4.8-3.1,10.7l-2.7,10h-3.2l-6.8-17.3l-4.4,9.2c-1.4,2.9-2.6,5.6-3.6,8h-2.4
	c-0.3-1.4-1.2-5.7-2.9-12.8l-1.8-8c-0.2-0.8-0.4-1.3-0.6-1.4C1129.2,122.8,1128.5,122.7,1127.4,122.6z"/>
	
	<path d="M1178.3,141.8l0.5,0.5l-0.8,1.6c-0.8,0.5-1.7,0.9-2.6,1.1c-0.9,0.3-1.9,0.4-3,0.4c-2.5,0-4.4-0.7-5.9-2.2
	s-2.1-3.5-2.1-6.1c0-1.7,0.2-3,0.6-4.1c0.3-0.9,0.9-1.6,1.7-2.2c0.8-0.6,1.7-1.1,2.7-1.7s2.1-0.8,3.4-0.8c1.9,0,3.4,0.5,4.6,1.6
	c1.2,1,1.8,2.7,1.8,5c0,0.3,0,0.7-0.1,1.3l-2.8,0.5c-0.9,0.1-2.1,0.1-3.8,0.1h-3.7c0.2,2,0.8,3.4,1.8,4.4c1,1,2.3,1.5,3.8,1.5
	c0.6,0,1.3-0.1,1.9-0.3C1177,142.5,1177.6,142.2,1178.3,141.8z M1168.7,135.2c1,0.1,2.1,0.1,3.1,0.1c0.9,0,1.8,0,2.8-0.1l0-0.8
	c0-1.4-0.3-2.4-0.8-3.1c-0.5-0.6-1.2-1-2.1-1c-0.6,0-1.1,0.2-1.6,0.5c-0.4,0.3-0.8,0.7-1,1.3
	C1169,132.6,1168.9,133.7,1168.7,135.2z"/>
	
	<path d="M1195.8,141.8l0.5,0.5l-0.8,1.6c-0.8,0.5-1.7,0.9-2.6,1.1c-0.9,0.3-1.9,0.4-3,0.4c-2.5,0-4.4-0.7-5.9-2.2
	s-2.1-3.5-2.1-6.1c0-1.7,0.2-3,0.6-4.1c0.3-0.9,0.9-1.6,1.7-2.2c0.8-0.6,1.7-1.1,2.7-1.7s2.1-0.8,3.4-0.8c1.9,0,3.4,0.5,4.6,1.6
	c1.2,1,1.8,2.7,1.8,5c0,0.3,0,0.7-0.1,1.3l-2.8,0.5c-0.9,0.1-2.1,0.1-3.8,0.1h-3.7c0.2,2,0.8,3.4,1.8,4.4c1,1,2.3,1.5,3.8,1.5
	c0.6,0,1.3-0.1,1.9-0.3C1194.5,142.5,1195.1,142.2,1195.8,141.8z M1186.2,135.2c1,0.1,2.1,0.1,3.1,0.1c0.9,0,1.8,0,2.8-0.1l0-0.8
	c0-1.4-0.3-2.4-0.8-3.1c-0.5-0.6-1.2-1-2.1-1c-0.6,0-1.1,0.2-1.6,0.5c-0.4,0.3-0.8,0.7-1,1.3
	C1186.5,132.6,1186.4,133.7,1186.2,135.2z"/>
	
	<path d="M1198.8,145.1v-1.4c1.2,0,1.9-0.1,2.1-0.2c0.1-0.1,0.2-0.2,0.2-0.3c0.1-0.3,0.2-1.4,0.2-3.4c0-2,0.1-4.2,0.1-6.4
	c0-1.8,0-4.1-0.1-6.9c0-2-0.1-3.2-0.2-3.4s-0.2-0.4-0.4-0.5s-0.8-0.2-2-0.2v-1.2c1.5-0.1,2.8-0.3,3.7-0.5s1.8-0.5,2.6-0.8
	c0.2-0.1,0.4-0.1,0.5-0.1c0.2,0,0.3,0.2,0.3,0.5l0,0.7c0,0.8-0.1,4.1-0.1,9.6l0,4.8l0,0.9c2.4-2,4.9-4.5,7.5-7.4
	c0.8,0.1,1.5,0.1,2.2,0.1c0.8,0,1.6,0,2.4-0.1v1.4c-1.3,0.1-2,0.1-2.3,0.2c-0.3,0.1-0.6,0.3-1.2,0.7s-1.9,1.6-4.3,3.7l2.5,2.8
	c2.8,3.2,4.5,5,5,5.5c0.3,0.3,0.8,0.5,1.4,0.5v1.4c-1.3-0.1-2.5-0.1-3.5-0.1c-0.8,0-1.7,0-2.5,0.1c-1.1-1.5-2.3-2.9-3.4-4.2
	c-1.5-1.7-2.8-3.1-3.8-4v2.8c0,1.6,0.1,2.7,0.2,3.3c0.1,0.3,0.2,0.4,0.3,0.5c0.2,0.1,0.9,0.2,2.1,0.2v1.4
	c-2.2-0.1-3.7-0.1-4.4-0.1C1203.2,145,1201.5,145.1,1198.8,145.1z"/>
	
	<path d="M1229.1,133.5c0-3.3,0.3-5.8,1-7.5c0.7-1.7,1.6-3,2.8-3.9c1.2-0.8,2.7-1.3,4.4-1.3c1.7,0,3,0.4,4.1,1.1
	c1.1,0.7,1.9,1.9,2.4,3.4c0.6,1.6,0.8,3.9,0.8,7.2c0,3.3-0.3,5.9-1,7.7c-0.7,1.8-1.6,3.1-2.8,4s-2.6,1.3-4.3,1.3
	c-1.6,0-3-0.4-4.2-1.2c-1.2-0.8-2-2-2.6-3.5C1229.3,139.3,1229.1,136.8,1229.1,133.5z M1233.3,131.3c0,3.6,0.2,6.3,0.5,8.1
	c0.3,1.7,0.8,2.9,1.4,3.6c0.5,0.5,1.1,0.7,1.8,0.7c1.1,0,1.9-0.5,2.4-1.5c0.7-1.2,1-3.6,1-7.2c0-4.4-0.3-7.6-1-9.7
	c-0.5-1.7-1.4-2.5-2.8-2.5c-1.1,0-1.9,0.5-2.5,1.6S1233.3,127.7,1233.3,131.3z"/>
	
	<path d="M1254.5,139c-3.3,0-6.2,0-8.7,0.1l-0.1-0.5l-0.2-1c1-2.4,2.4-5.1,4.1-8.1c1.7-3,3.3-5.5,4.9-7.6c1.2-0.2,2.6-0.5,4.4-0.9
	l0.4,0.3c-0.1,1.6-0.2,3.3-0.2,5l-0.3,9.7c1.3,0,2.3,0,3.2-0.1l0.1,0.3l0,0.6l0,1l0,1.1l-0.1,0.1c-1-0.1-2.1-0.2-3.2-0.2l0,0.8
	c0,2,0.1,3.1,0.3,3.3c0.2,0.3,1.2,0.5,2.9,0.6l0.2,0.1v1.2l-0.2,0.1c-2.2-0.1-4.1-0.2-5.6-0.2c-0.9,0-1.6,0-2.3,0l-3.8,0.1
	l-0.2-0.2v-1.3l0.2-0.1c1.9-0.1,3-0.2,3.2-0.3c0.3-0.1,0.5-0.3,0.6-0.6C1254.3,142.4,1254.4,141.1,1254.5,139z M1254.5,136.1
	l0.3-11.6c-0.7,0.9-1.8,2.6-3.2,5.1s-2.5,4.6-3.4,6.6c1.2,0,2.2,0.1,3,0.1L1254.5,136.1z"/>
	
</g>

<g class="Week_05">

<g class="_x35_.2">
		
	<circle class="st0" cx="179.6" cy="383.6" r="108.6"/>
	
<g class="_x35_.1">
	
	<path d="M116.4,372.6v-1.4c1.9,0.1,3.6,0.1,5,0.1c1.5,0,3.3,0,5.3-0.1v1.4c-1.2,0-1.9,0.1-2.2,0.3c-0.3,0.1-0.4,0.4-0.4,0.7
	c0,0.4,0.4,2.2,1.1,5.6l1.9,8.9l4.4-9.1c1.7-3.5,2.9-6.2,3.7-7.8h1.5l7.1,17.7l2.9-10.6c0.6-2.3,0.9-3.9,0.9-4.7
	c0-0.4-0.1-0.6-0.4-0.7c-0.2-0.1-1-0.2-2.4-0.2v-1.4c2.1,0.1,3.4,0.1,4,0.1c0.7,0,1.9,0,3.7-0.1v1.4c-0.9,0.1-1.5,0.2-1.8,0.4
	c-0.3,0.2-0.5,0.7-0.8,1.5c-0.4,1.2-1.4,4.8-3.1,10.7l-2.7,10H141l-6.8-17.3l-4.4,9.2c-1.4,2.9-2.6,5.6-3.6,8h-2.4
	c-0.3-1.4-1.2-5.7-2.9-12.8l-1.8-8c-0.2-0.8-0.4-1.3-0.6-1.4C118.2,372.8,117.5,372.7,116.4,372.6z"/>
	
	<path d="M167.3,391.8l0.5,0.5L167,394c-0.8,0.5-1.7,0.9-2.6,1.1c-0.9,0.3-1.9,0.4-3,0.4c-2.5,0-4.4-0.7-5.9-2.2s-2.1-3.5-2.1-6.1
	c0-1.7,0.2-3,0.6-4.1c0.3-0.9,0.9-1.6,1.7-2.2c0.8-0.6,1.7-1.1,2.7-1.7s2.1-0.8,3.4-0.8c1.9,0,3.4,0.5,4.6,1.6
	c1.2,1,1.8,2.7,1.8,5c0,0.3,0,0.7-0.1,1.3l-2.8,0.5c-0.9,0.1-2.1,0.1-3.8,0.1h-3.7c0.2,2,0.8,3.4,1.8,4.4c1,1,2.3,1.5,3.8,1.5
	c0.6,0,1.3-0.1,1.9-0.3S166.6,392.2,167.3,391.8z M157.7,385.2c1,0.1,2.1,0.1,3.1,0.1c0.9,0,1.8,0,2.8-0.1l0-0.8
	c0-1.4-0.3-2.4-0.8-3.1c-0.5-0.6-1.2-1-2.1-1c-0.6,0-1.1,0.2-1.6,0.5c-0.4,0.3-0.8,0.7-1,1.3C158,382.6,157.9,383.7,157.7,385.2z"/>

	<path d="M184.8,391.8l0.5,0.5l-0.8,1.6c-0.8,0.5-1.7,0.9-2.6,1.1c-0.9,0.3-1.9,0.4-3,0.4c-2.5,0-4.4-0.7-5.9-2.2s-2.1-3.5-2.1-6.1
	c0-1.7,0.2-3,0.6-4.1c0.3-0.9,0.9-1.6,1.7-2.2c0.8-0.6,1.7-1.1,2.7-1.7s2.1-0.8,3.4-0.8c1.9,0,3.4,0.5,4.6,1.6
	c1.2,1,1.8,2.7,1.8,5c0,0.3,0,0.7-0.1,1.3l-2.8,0.5c-0.9,0.1-2.1,0.1-3.8,0.1h-3.7c0.2,2,0.8,3.4,1.8,4.4c1,1,2.3,1.5,3.8,1.5
	c0.6,0,1.3-0.1,1.9-0.3S184.1,392.2,184.8,391.8z M175.2,385.2c1,0.1,2.1,0.1,3.1,0.1c0.9,0,1.8,0,2.8-0.1l0-0.8
	c0-1.4-0.3-2.4-0.8-3.1c-0.5-0.6-1.2-1-2.1-1c-0.6,0-1.1,0.2-1.6,0.5c-0.4,0.3-0.8,0.7-1,1.3C175.5,382.6,175.4,383.7,175.2,385.2
	z"/>
	
	<path d="M187.8,395.1v-1.4c1.2,0,1.9-0.1,2.1-0.2c0.1-0.1,0.2-0.2,0.2-0.3c0.1-0.3,0.2-1.4,0.2-3.4s0.1-4.2,0.1-6.4
	c0-1.8,0-4.1-0.1-6.9c0-2-0.1-3.2-0.2-3.4s-0.2-0.4-0.4-0.5c-0.2-0.1-0.8-0.2-2-0.2v-1.2c1.5-0.1,2.8-0.3,3.7-0.5
	c0.9-0.2,1.8-0.5,2.6-0.8c0.2-0.1,0.4-0.1,0.5-0.1c0.2,0,0.3,0.2,0.3,0.5l0,0.7c0,0.8-0.1,4.1-0.1,9.6l0,4.8l0,0.9
	c2.4-2,4.9-4.5,7.5-7.4c0.8,0.1,1.5,0.1,2.2,0.1c0.8,0,1.6,0,2.4-0.1v1.4c-1.3,0.1-2,0.1-2.3,0.2c-0.3,0.1-0.6,0.3-1.2,0.7
	s-1.9,1.6-4.3,3.7l2.5,2.8c2.8,3.2,4.5,5,5,5.5c0.3,0.3,0.8,0.5,1.4,0.5v1.4c-1.3-0.1-2.4-0.1-3.5-0.1c-0.8,0-1.7,0-2.5,0.1
	c-1.1-1.5-2.3-2.9-3.4-4.2c-1.5-1.7-2.8-3.1-3.8-4v2.8c0,1.6,0.1,2.7,0.2,3.3c0.1,0.3,0.2,0.4,0.3,0.5c0.2,0.1,0.9,0.2,2.1,0.2
	v1.4c-2.2-0.1-3.7-0.1-4.4-0.1C192.2,395,190.5,395.1,187.8,395.1z"/>
	
	<path d="M218.1,383.5c0-3.3,0.3-5.8,1-7.5c0.7-1.7,1.6-3,2.8-3.9c1.2-0.8,2.7-1.3,4.4-1.3c1.7,0,3,0.4,4.1,1.1
	c1.1,0.7,1.9,1.9,2.4,3.4c0.6,1.6,0.8,3.9,0.8,7.2c0,3.3-0.3,5.9-1,7.7c-0.7,1.8-1.6,3.1-2.8,4c-1.2,0.9-2.6,1.3-4.3,1.3
	c-1.6,0-3-0.4-4.2-1.2c-1.2-0.8-2-2-2.6-3.5C218.3,389.3,218.1,386.8,218.1,383.5z M222.3,381.3c0,3.6,0.2,6.3,0.5,8.1
	c0.3,1.7,0.8,2.9,1.4,3.6c0.5,0.5,1.1,0.7,1.8,0.7c1.1,0,1.9-0.5,2.4-1.5c0.7-1.2,1-3.6,1-7.2c0-4.4-0.3-7.6-1-9.7
	c-0.5-1.7-1.4-2.5-2.8-2.5c-1.1,0-1.9,0.5-2.5,1.6C222.6,375.4,222.3,377.7,222.3,381.3z"/>
	
	<path d="M235.2,389.7v-0.1l1.1-0.4c0.9,1.7,1.8,2.8,2.7,3.4c0.9,0.6,1.9,0.9,3,0.9c1.3,0,2.4-0.5,3.2-1.4c0.8-0.9,1.2-2.1,1.2-3.7
	c0-1.6-0.4-2.8-1.3-3.7c-0.9-0.9-2-1.3-3.5-1.3c-0.7,0-1.3,0.1-1.9,0.3c-0.6,0.2-1.3,0.6-2.1,1.2l-0.7-0.4c0.2-2.9,0.3-5.2,0.3-7
	c0-2.3-0.1-4.3-0.3-6.1l0.2-0.2c2.5,0.1,4.9,0.2,7,0.2c2,0,3.9-0.1,5.5-0.2l0.2,0.4c-0.1,0.8-0.2,1.4-0.2,1.9c0,0.3,0,0.9,0.1,1.7
	l-0.3,0.2c-2.1-0.1-4.2-0.1-6.2-0.1c-1.4,0-2.8,0-4.1,0.1l-0.2,5.7c0.8-0.5,1.6-0.8,2.2-1c0.7-0.2,1.4-0.3,2.3-0.3
	c2.3,0,4.1,0.6,5.3,1.8c1.2,1.2,1.9,2.8,1.9,4.8c0,2.5-1,4.7-2.9,6.5c-1.9,1.8-4.4,2.7-7.3,2.7c-0.8,0-1.5-0.1-2.2-0.2
	c-0.7-0.1-1.4-0.4-2-0.6C236,393.1,235.6,391.5,235.2,389.7z"/>
	
</g>

<g class="Week_06">

<g class="_x36_.2">
	
	<circle class="st1" cx="522.5" cy="386.6" r="108.6"/>
	
<g class="_x36_.1">
	
	<path d="M452.4,375.6v-1.4c1.9,0.1,3.6,0.1,5,0.1c1.5,0,3.3,0,5.3-0.1v1.4c-1.2,0-1.9,0.1-2.2,0.3c-0.3,0.1-0.4,0.4-0.4,0.7
	c0,0.4,0.4,2.2,1.1,5.6l1.9,8.9l4.4-9.1c1.7-3.5,2.9-6.2,3.7-7.8h1.5l7.1,17.7l2.9-10.6c0.6-2.3,0.9-3.9,0.9-4.7
	c0-0.4-0.1-0.6-0.4-0.7c-0.2-0.1-1-0.2-2.4-0.2v-1.4c2.1,0.1,3.4,0.1,4,0.1c0.7,0,1.9,0,3.7-0.1v1.4c-0.9,0.1-1.5,0.2-1.8,0.4
	c-0.3,0.2-0.5,0.7-0.8,1.5c-0.4,1.2-1.4,4.8-3.1,10.7l-2.7,10H477l-6.8-17.3l-4.4,9.2c-1.4,2.9-2.6,5.6-3.6,8h-2.4
	c-0.3-1.4-1.2-5.7-2.9-12.8l-1.8-8c-0.2-0.8-0.4-1.3-0.6-1.4C454.2,375.8,453.5,375.7,452.4,375.6z"/>
	
	<path d="M503.3,394.8l0.5,0.5L503,397c-0.8,0.5-1.7,0.9-2.6,1.1c-0.9,0.3-1.9,0.4-3,0.4c-2.5,0-4.4-0.7-5.9-2.2s-2.1-3.5-2.1-6.1
	c0-1.7,0.2-3,0.6-4.1c0.3-0.9,0.9-1.6,1.7-2.2c0.8-0.6,1.7-1.1,2.7-1.7s2.1-0.8,3.4-0.8c1.9,0,3.4,0.5,4.6,1.6
	c1.2,1,1.8,2.7,1.8,5c0,0.3,0,0.7-0.1,1.3l-2.8,0.5c-0.9,0.1-2.1,0.1-3.8,0.1h-3.7c0.2,2,0.8,3.4,1.8,4.4c1,1,2.3,1.5,3.8,1.5
	c0.6,0,1.3-0.1,1.9-0.3S502.6,395.2,503.3,394.8z M493.7,388.2c1,0.1,2.1,0.1,3.1,0.1c0.9,0,1.8,0,2.8-0.1l0-0.8
	c0-1.4-0.3-2.4-0.8-3.1c-0.5-0.6-1.2-1-2.1-1c-0.6,0-1.1,0.2-1.6,0.5c-0.4,0.3-0.8,0.7-1,1.3C494,385.6,493.9,386.7,493.7,388.2z"
			/>
	<path d="M520.8,394.8l0.5,0.5l-0.8,1.6c-0.8,0.5-1.7,0.9-2.6,1.1c-0.9,0.3-1.9,0.4-3,0.4c-2.5,0-4.4-0.7-5.9-2.2s-2.1-3.5-2.1-6.1
	c0-1.7,0.2-3,0.6-4.1c0.3-0.9,0.9-1.6,1.7-2.2c0.8-0.6,1.7-1.1,2.7-1.7s2.1-0.8,3.4-0.8c1.9,0,3.4,0.5,4.6,1.6
	c1.2,1,1.8,2.7,1.8,5c0,0.3,0,0.7-0.1,1.3l-2.8,0.5c-0.9,0.1-2.1,0.1-3.8,0.1h-3.7c0.2,2,0.8,3.4,1.8,4.4c1,1,2.3,1.5,3.8,1.5
	c0.6,0,1.3-0.1,1.9-0.3S520.1,395.2,520.8,394.8z M511.2,388.2c1,0.1,2.1,0.1,3.1,0.1c0.9,0,1.8,0,2.8-0.1l0-0.8
	c0-1.4-0.3-2.4-0.8-3.1c-0.5-0.6-1.2-1-2.1-1c-0.6,0-1.1,0.2-1.6,0.5c-0.4,0.3-0.8,0.7-1,1.3C511.5,385.6,511.4,386.7,511.2,388.2
	z"/>
	
	<path d="M523.8,398.1v-1.4c1.2,0,1.9-0.1,2.1-0.2c0.1-0.1,0.2-0.2,0.2-0.3c0.1-0.3,0.2-1.4,0.2-3.4s0.1-4.2,0.1-6.4
	c0-1.8,0-4.1-0.1-6.9c0-2-0.1-3.2-0.2-3.4s-0.2-0.4-0.4-0.5c-0.2-0.1-0.8-0.2-2-0.2v-1.2c1.5-0.1,2.8-0.3,3.7-0.5
	c0.9-0.2,1.8-0.5,2.6-0.8c0.2-0.1,0.4-0.1,0.5-0.1c0.2,0,0.3,0.2,0.3,0.5l0,0.7c0,0.8-0.1,4.1-0.1,9.6l0,4.8l0,0.9
	c2.4-2,4.9-4.5,7.5-7.4c0.8,0.1,1.5,0.1,2.2,0.1c0.8,0,1.6,0,2.4-0.1v1.4c-1.3,0.1-2,0.1-2.3,0.2c-0.3,0.1-0.6,0.3-1.2,0.7
	s-1.9,1.6-4.3,3.7l2.5,2.8c2.8,3.2,4.5,5,5,5.5c0.3,0.3,0.8,0.5,1.4,0.5v1.4c-1.3-0.1-2.4-0.1-3.5-0.1c-0.8,0-1.7,0-2.5,0.1
	c-1.1-1.5-2.3-2.9-3.4-4.2c-1.5-1.7-2.8-3.1-3.8-4v2.8c0,1.6,0.1,2.7,0.2,3.3c0.1,0.3,0.2,0.4,0.3,0.5c0.2,0.1,0.9,0.2,2.1,0.2
	v1.4c-2.2-0.1-3.7-0.1-4.4-0.1C528.2,398,526.5,398.1,523.8,398.1z"/>
	
	<path d="M554.1,386.5c0-3.3,0.3-5.8,1-7.5c0.7-1.7,1.6-3,2.8-3.9c1.2-0.8,2.7-1.3,4.4-1.3c1.7,0,3,0.4,4.1,1.1
	c1.1,0.7,1.9,1.9,2.4,3.4c0.6,1.6,0.8,3.9,0.8,7.2c0,3.3-0.3,5.9-1,7.7c-0.7,1.8-1.6,3.1-2.8,4c-1.2,0.9-2.6,1.3-4.3,1.3
	c-1.6,0-3-0.4-4.2-1.2c-1.2-0.8-2-2-2.6-3.5C554.3,392.3,554.1,389.8,554.1,386.5z M558.3,384.3c0,3.6,0.2,6.3,0.5,8.1
	c0.3,1.7,0.8,2.9,1.4,3.6c0.5,0.5,1.1,0.7,1.8,0.7c1.1,0,1.9-0.5,2.4-1.5c0.7-1.2,1-3.6,1-7.2c0-4.4-0.3-7.6-1-9.7
	c-0.5-1.7-1.4-2.5-2.8-2.5c-1.1,0-1.9,0.5-2.5,1.6C558.6,378.4,558.3,380.7,558.3,384.3z"/>
	
	<path d="M576.3,385.9c1.3-1.3,2.2-2.1,2.7-2.4c0.7-0.3,1.5-0.5,2.6-0.5c1.6,0,3,0.6,4,1.8c1,1.2,1.5,2.8,1.5,4.9
	c0,2.6-0.8,4.7-2.3,6.4c-1.4,1.5-3.2,2.3-5.5,2.3c-1.5,0-2.9-0.4-4-1.1c-1.2-0.8-2.1-1.8-2.7-3.3c-0.6-1.4-1-3.3-1-5.6
	c0-3.1,0.5-5.7,1.6-7.7c1.1-2.1,2.6-3.7,4.7-5c2-1.3,4.2-1.9,6.6-1.9l1.5,1.3l-0.5,0.6c-0.7-0.1-1.2-0.2-1.5-0.2
	c-1.1,0-2.3,0.4-3.5,1.2c-1.2,0.8-2.1,1.9-2.8,3.3C577,381.4,576.5,383.4,576.3,385.9z M579.4,386.1c-1,0-1.8,0.3-2.4,1
	c-0.6,0.6-0.8,1.6-0.8,3c0,2.4,0.3,4,1,5c0.7,1,1.5,1.5,2.6,1.5c0.9,0,1.7-0.4,2.3-1.2s0.9-2,0.9-3.7c0-2-0.3-3.5-1-4.4
	C581.3,386.5,580.5,386.1,579.4,386.1z"/>
	
</g>

<g class="Week_07">

<g class="_x37_.2">
	
	<circle class="st1" cx="870.5" cy="389.6" r="108.6"/>
	
<g class="_x37_.1">
		
	<path d="M801.4,378.6v-1.4c1.9,0.1,3.6,0.1,5,0.1c1.5,0,3.3,0,5.3-0.1v1.4c-1.2,0-1.9,0.1-2.2,0.3c-0.3,0.1-0.4,0.4-0.4,0.7
	c0,0.4,0.4,2.2,1.1,5.6l1.9,8.9l4.4-9.1c1.7-3.5,2.9-6.2,3.7-7.8h1.5l7.1,17.7l2.9-10.6c0.6-2.3,0.9-3.9,0.9-4.7
	c0-0.4-0.1-0.6-0.4-0.7c-0.2-0.1-1-0.2-2.4-0.2v-1.4c2.1,0.1,3.4,0.1,4,0.1c0.7,0,1.9,0,3.7-0.1v1.4c-0.9,0.1-1.5,0.2-1.8,0.4
	c-0.3,0.2-0.5,0.7-0.8,1.5c-0.4,1.2-1.4,4.8-3.1,10.7l-2.7,10H826l-6.8-17.3l-4.4,9.2c-1.4,2.9-2.6,5.6-3.6,8h-2.4
	c-0.3-1.4-1.2-5.7-2.9-12.8l-1.8-8c-0.2-0.8-0.4-1.3-0.6-1.4C803.2,378.8,802.5,378.7,801.4,378.6z"/>
	
	<path d="M852.3,397.8l0.5,0.5L852,400c-0.8,0.5-1.7,0.9-2.6,1.1c-0.9,0.3-1.9,0.4-3,0.4c-2.5,0-4.4-0.7-5.9-2.2s-2.1-3.5-2.1-6.1
	c0-1.7,0.2-3,0.6-4.1c0.3-0.9,0.9-1.6,1.7-2.2c0.8-0.6,1.7-1.1,2.7-1.7s2.1-0.8,3.4-0.8c1.9,0,3.4,0.5,4.6,1.6
	c1.2,1,1.8,2.7,1.8,5c0,0.3,0,0.7-0.1,1.3l-2.8,0.5c-0.9,0.1-2.1,0.1-3.8,0.1h-3.7c0.2,2,0.8,3.4,1.8,4.4c1,1,2.3,1.5,3.8,1.5
	c0.6,0,1.3-0.1,1.9-0.3C851,398.5,851.6,398.2,852.3,397.8z M842.7,391.2c1,0.1,2.1,0.1,3.1,0.1c0.9,0,1.8,0,2.8-0.1l0-0.8
	c0-1.4-0.3-2.4-0.8-3.1c-0.5-0.6-1.2-1-2.1-1c-0.6,0-1.1,0.2-1.6,0.5c-0.4,0.3-0.8,0.7-1,1.3C843,388.6,842.9,389.7,842.7,391.2z"/>

	<path d="M869.8,397.8l0.5,0.5l-0.8,1.6c-0.8,0.5-1.7,0.9-2.6,1.1c-0.9,0.3-1.9,0.4-3,0.4c-2.5,0-4.4-0.7-5.9-2.2s-2.1-3.5-2.1-6.1
	c0-1.7,0.2-3,0.6-4.1c0.3-0.9,0.9-1.6,1.7-2.2c0.8-0.6,1.7-1.1,2.7-1.7s2.1-0.8,3.4-0.8c1.9,0,3.4,0.5,4.6,1.6
	c1.2,1,1.8,2.7,1.8,5c0,0.3,0,0.7-0.1,1.3l-2.8,0.5c-0.9,0.1-2.1,0.1-3.8,0.1h-3.7c0.2,2,0.8,3.4,1.8,4.4c1,1,2.3,1.5,3.8,1.5
	c0.6,0,1.3-0.1,1.9-0.3C868.5,398.5,869.1,398.2,869.8,397.8z M860.2,391.2c1,0.1,2.1,0.1,3.1,0.1c0.9,0,1.8,0,2.8-0.1l0-0.8
	c0-1.4-0.3-2.4-0.8-3.1c-0.5-0.6-1.2-1-2.1-1c-0.6,0-1.1,0.2-1.6,0.5c-0.4,0.3-0.8,0.7-1,1.3C860.5,388.6,860.4,389.7,860.2,391.2
	z"/>
	
	<path d="M872.8,401.1v-1.4c1.2,0,1.9-0.1,2.1-0.2c0.1-0.1,0.2-0.2,0.2-0.3c0.1-0.3,0.2-1.4,0.2-3.4c0-2,0.1-4.2,0.1-6.4
	c0-1.8,0-4.1-0.1-6.9c0-2-0.1-3.2-0.2-3.4s-0.2-0.4-0.4-0.5s-0.8-0.2-2-0.2v-1.2c1.5-0.1,2.8-0.3,3.7-0.5s1.8-0.5,2.6-0.8
	c0.2-0.1,0.4-0.1,0.5-0.1c0.2,0,0.3,0.2,0.3,0.5l0,0.7c0,0.8-0.1,4.1-0.1,9.6l0,4.8l0,0.9c2.4-2,4.9-4.5,7.5-7.4
	c0.8,0.1,1.5,0.1,2.2,0.1c0.8,0,1.6,0,2.4-0.1v1.4c-1.3,0.1-2,0.1-2.3,0.2c-0.3,0.1-0.6,0.3-1.2,0.7s-1.9,1.6-4.3,3.7l2.5,2.8
	c2.8,3.2,4.5,5,5,5.5c0.3,0.3,0.8,0.5,1.4,0.5v1.4c-1.3-0.1-2.5-0.1-3.5-0.1c-0.8,0-1.7,0-2.5,0.1c-1.1-1.5-2.3-2.9-3.4-4.2
	c-1.5-1.7-2.8-3.1-3.8-4v2.8c0,1.6,0.1,2.7,0.2,3.3c0.1,0.3,0.2,0.4,0.3,0.5c0.2,0.1,0.9,0.2,2.1,0.2v1.4
	c-2.2-0.1-3.7-0.1-4.4-0.1C877.2,401,875.5,401.1,872.8,401.1z"/>
	
	<path d="M903.1,389.5c0-3.3,0.3-5.8,1-7.5c0.7-1.7,1.6-3,2.8-3.9c1.2-0.8,2.7-1.3,4.4-1.3c1.7,0,3,0.4,4.1,1.1
	c1.1,0.7,1.9,1.9,2.4,3.4c0.6,1.6,0.8,3.9,0.8,7.2c0,3.3-0.3,5.9-1,7.7c-0.7,1.8-1.6,3.1-2.8,4s-2.6,1.3-4.3,1.3
	c-1.6,0-3-0.4-4.2-1.2c-1.2-0.8-2-2-2.6-3.5C903.3,395.3,903.1,392.8,903.1,389.5z M907.3,387.3c0,3.6,0.2,6.3,0.5,8.1
	c0.3,1.7,0.8,2.9,1.4,3.6c0.5,0.5,1.1,0.7,1.8,0.7c1.1,0,1.9-0.5,2.4-1.5c0.7-1.2,1-3.6,1-7.2c0-4.4-0.3-7.6-1-9.7
	c-0.5-1.7-1.4-2.5-2.8-2.5c-1.1,0-1.9,0.5-2.5,1.6S907.3,383.7,907.3,387.3z"/>
	
	<path d="M937.3,377.2v1.6c-2.3,4-4.5,8.2-6.5,12.5c-2,4.3-3.4,7.6-4.2,9.8c-0.9-0.1-1.6-0.1-2.1-0.1c-0.5,0-1.2,0-2,0.1l-0.2-0.5
	c1.2-1.9,2.3-3.7,3.3-5.4c1-1.7,2.6-4.4,4.6-8l3.1-5.5l-0.2-0.3l-3.5,0l-3.1,0c-1.8,0-2.8,0.1-3.2,0.2c-0.2,0.1-0.4,0.2-0.5,0.5
	c-0.2,0.4-0.4,1.6-0.5,3.4l-0.1,0.2l-1.4-0.1c0.1-1.3,0.1-2.8,0.1-4.5c0-1.1,0-2.4-0.1-3.8l0.3-0.3c3.3,0.2,6.8,0.3,10.3,0.3
	C933.1,377.3,935,377.2,937.3,377.2z"/>
	
</g>

<g class="Week_08">

<g class="_x38_.2">
	
	<circle class="st0" cx="1196.4" cy="388.6" r="108.6"/>
	
<g class="_x38_.1">
	
	<path d="M1137.4,377.6v-1.4c1.9,0.1,3.6,0.1,5,0.1c1.5,0,3.3,0,5.3-0.1v1.4c-1.2,0-1.9,0.1-2.2,0.3c-0.3,0.1-0.4,0.4-0.4,0.7
	c0,0.4,0.4,2.2,1.1,5.6l1.9,8.9l4.4-9.1c1.7-3.5,2.9-6.2,3.7-7.8h1.5l7.1,17.7l2.9-10.6c0.6-2.3,0.9-3.9,0.9-4.7
	c0-0.4-0.1-0.6-0.4-0.7c-0.2-0.1-1-0.2-2.4-0.2v-1.4c2.1,0.1,3.4,0.1,4,0.1c0.7,0,1.9,0,3.7-0.1v1.4c-0.9,0.1-1.5,0.2-1.8,0.4
	c-0.3,0.2-0.5,0.7-0.8,1.5c-0.4,1.2-1.4,4.8-3.1,10.7l-2.7,10h-3.2l-6.8-17.3l-4.4,9.2c-1.4,2.9-2.6,5.6-3.6,8h-2.4
	c-0.3-1.4-1.2-5.7-2.9-12.8l-1.8-8c-0.2-0.8-0.4-1.3-0.6-1.4C1139.2,377.8,1138.5,377.7,1137.4,377.6z"/>
	
	<path d="M1188.3,396.8l0.5,0.5l-0.8,1.6c-0.8,0.5-1.7,0.9-2.6,1.1c-0.9,0.3-1.9,0.4-3,0.4c-2.5,0-4.4-0.7-5.9-2.2
	s-2.1-3.5-2.1-6.1c0-1.7,0.2-3,0.6-4.1c0.3-0.9,0.9-1.6,1.7-2.2c0.8-0.6,1.7-1.1,2.7-1.7s2.1-0.8,3.4-0.8c1.9,0,3.4,0.5,4.6,1.6
	c1.2,1,1.8,2.7,1.8,5c0,0.3,0,0.7-0.1,1.3l-2.8,0.5c-0.9,0.1-2.1,0.1-3.8,0.1h-3.7c0.2,2,0.8,3.4,1.8,4.4c1,1,2.3,1.5,3.8,1.5
	c0.6,0,1.3-0.1,1.9-0.3C1187,397.5,1187.6,397.2,1188.3,396.8z M1178.7,390.2c1,0.1,2.1,0.1,3.1,0.1c0.9,0,1.8,0,2.8-0.1l0-0.8
	c0-1.4-0.3-2.4-0.8-3.1c-0.5-0.6-1.2-1-2.1-1c-0.6,0-1.1,0.2-1.6,0.5c-0.4,0.3-0.8,0.7-1,1.3
	C1179,387.6,1178.9,388.7,1178.7,390.2z"/>
	
	<path d="M1205.8,396.8l0.5,0.5l-0.8,1.6c-0.8,0.5-1.7,0.9-2.6,1.1c-0.9,0.3-1.9,0.4-3,0.4c-2.5,0-4.4-0.7-5.9-2.2
	s-2.1-3.5-2.1-6.1c0-1.7,0.2-3,0.6-4.1c0.3-0.9,0.9-1.6,1.7-2.2c0.8-0.6,1.7-1.1,2.7-1.7s2.1-0.8,3.4-0.8c1.9,0,3.4,0.5,4.6,1.6
	c1.2,1,1.8,2.7,1.8,5c0,0.3,0,0.7-0.1,1.3l-2.8,0.5c-0.9,0.1-2.1,0.1-3.8,0.1h-3.7c0.2,2,0.8,3.4,1.8,4.4c1,1,2.3,1.5,3.8,1.5
	c0.6,0,1.3-0.1,1.9-0.3C1204.5,397.5,1205.1,397.2,1205.8,396.8z M1196.2,390.2c1,0.1,2.1,0.1,3.1,0.1c0.9,0,1.8,0,2.8-0.1l0-0.8
	c0-1.4-0.3-2.4-0.8-3.1c-0.5-0.6-1.2-1-2.1-1c-0.6,0-1.1,0.2-1.6,0.5c-0.4,0.3-0.8,0.7-1,1.3
	C1196.5,387.6,1196.4,388.7,1196.2,390.2z"/>
	
	<path d="M1208.8,400.1v-1.4c1.2,0,1.9-0.1,2.1-0.2c0.1-0.1,0.2-0.2,0.2-0.3c0.1-0.3,0.2-1.4,0.2-3.4c0-2,0.1-4.2,0.1-6.4
	c0-1.8,0-4.1-0.1-6.9c0-2-0.1-3.2-0.2-3.4s-0.2-0.4-0.4-0.5s-0.8-0.2-2-0.2v-1.2c1.5-0.1,2.8-0.3,3.7-0.5s1.8-0.5,2.6-0.8
	c0.2-0.1,0.4-0.1,0.5-0.1c0.2,0,0.3,0.2,0.3,0.5l0,0.7c0,0.8-0.1,4.1-0.1,9.6l0,4.8l0,0.9c2.4-2,4.9-4.5,7.5-7.4
	c0.8,0.1,1.5,0.1,2.2,0.1c0.8,0,1.6,0,2.4-0.1v1.4c-1.3,0.1-2,0.1-2.3,0.2c-0.3,0.1-0.6,0.3-1.2,0.7s-1.9,1.6-4.3,3.7l2.5,2.8
	c2.8,3.2,4.5,5,5,5.5c0.3,0.3,0.8,0.5,1.4,0.5v1.4c-1.3-0.1-2.5-0.1-3.5-0.1c-0.8,0-1.7,0-2.5,0.1c-1.1-1.5-2.3-2.9-3.4-4.2
	c-1.5-1.7-2.8-3.1-3.8-4v2.8c0,1.6,0.1,2.7,0.2,3.3c0.1,0.3,0.2,0.4,0.3,0.5c0.2,0.1,0.9,0.2,2.1,0.2v1.4
	c-2.2-0.1-3.7-0.1-4.4-0.1C1213.2,400,1211.5,400.1,1208.8,400.1z"/>
	
	<path d="M1239.1,388.5c0-3.3,0.3-5.8,1-7.5c0.7-1.7,1.6-3,2.8-3.9c1.2-0.8,2.7-1.3,4.4-1.3c1.7,0,3,0.4,4.1,1.1
	c1.1,0.7,1.9,1.9,2.4,3.4c0.6,1.6,0.8,3.9,0.8,7.2c0,3.3-0.3,5.9-1,7.7c-0.7,1.8-1.6,3.1-2.8,4s-2.6,1.3-4.3,1.3
	c-1.6,0-3-0.4-4.2-1.2c-1.2-0.8-2-2-2.6-3.5C1239.3,394.3,1239.1,391.8,1239.1,388.5z M1243.3,386.3c0,3.6,0.2,6.3,0.5,8.1
	c0.3,1.7,0.8,2.9,1.4,3.6c0.5,0.5,1.1,0.7,1.8,0.7c1.1,0,1.9-0.5,2.4-1.5c0.7-1.2,1-3.6,1-7.2c0-4.4-0.3-7.6-1-9.7
	c-0.5-1.7-1.4-2.5-2.8-2.5c-1.1,0-1.9,0.5-2.5,1.6S1243.3,382.7,1243.3,386.3z"/>
	
	<path d="M1260.6,388.2c-1.3-0.7-2.2-1.4-2.7-2.3c-0.6-0.9-0.8-2-0.8-3.2c0-2,0.7-3.6,2.1-4.9s3.3-1.9,5.6-1.9c2,0,3.5,0.5,4.6,1.4
	s1.6,2.3,1.6,3.9c0,1-0.2,1.9-0.7,2.7c-0.5,0.8-1.4,1.6-2.7,2.4c1.5,0.6,2.5,1.3,3.2,2.1c0.9,1.1,1.3,2.4,1.3,4.1
	c0,2.3-0.8,4.2-2.4,5.8c-1.6,1.5-3.6,2.3-6.1,2.3c-2.1,0-3.8-0.6-5.1-1.8c-1.3-1.2-1.9-2.7-1.9-4.6c0-1.4,0.3-2.5,0.9-3.4
	C1257.9,389.8,1259,388.9,1260.6,388.2z M1262.1,388.9c-0.9,0.7-1.5,1.5-1.9,2.3c-0.4,0.8-0.6,1.6-0.6,2.6c0,1.4,0.4,2.6,1.3,3.5
	c0.9,0.9,1.9,1.4,3.1,1.4c1.1,0,2-0.4,2.8-1.2c0.7-0.8,1.1-1.8,1.1-3c0-0.7-0.2-1.4-0.5-2c-0.3-0.6-0.8-1.1-1.4-1.5
	S1264.2,389.8,1262.1,388.9z M1265.7,385.5c0.7-0.6,1.3-1.2,1.6-1.8c0.4-0.7,0.5-1.4,0.5-2.2c0-1.2-0.3-2.1-1-2.8
	c-0.7-0.7-1.6-1-2.8-1c-1.1,0-1.9,0.3-2.6,0.9c-0.6,0.6-0.9,1.4-0.9,2.4c0,0.9,0.3,1.7,0.9,2.3
	C1262.2,383.9,1263.6,384.7,1265.7,385.5z"/>
	
</g>

<g class="Week_09">

<g class="_x39_.2">
	
	<circle class="st0" cx="178.6" cy="636.6" r="108.6"/>
	
<g class="_x39_.1">
	
	<path d="M114.4,631.6v-1.4c1.9,0.1,3.6,0.1,5,0.1c1.5,0,3.3,0,5.3-0.1v1.4c-1.2,0-1.9,0.1-2.2,0.3c-0.3,0.1-0.4,0.4-0.4,0.7
	c0,0.4,0.4,2.2,1.1,5.6l1.9,8.9l4.4-9.1c1.7-3.5,2.9-6.2,3.7-7.8h1.5l7.1,17.7l2.9-10.6c0.6-2.3,0.9-3.9,0.9-4.7
	c0-0.4-0.1-0.6-0.4-0.7c-0.2-0.1-1-0.2-2.4-0.2v-1.4c2.1,0.1,3.4,0.1,4,0.1c0.7,0,1.9,0,3.7-0.1v1.4c-0.9,0.1-1.5,0.2-1.8,0.4
	c-0.3,0.2-0.5,0.7-0.8,1.5c-0.4,1.2-1.4,4.8-3.1,10.7l-2.7,10H139l-6.8-17.3l-4.4,9.2c-1.4,2.9-2.6,5.6-3.6,8h-2.4
	c-0.3-1.4-1.2-5.7-2.9-12.8l-1.8-8c-0.2-0.8-0.4-1.3-0.6-1.4C116.2,631.8,115.5,631.7,114.4,631.6z"/>
	
	<path d="M165.3,650.8l0.5,0.5L165,653c-0.8,0.5-1.7,0.9-2.6,1.1c-0.9,0.3-1.9,0.4-3,0.4c-2.5,0-4.4-0.7-5.9-2.2s-2.1-3.5-2.1-6.1
	c0-1.7,0.2-3,0.6-4.1c0.3-0.9,0.9-1.6,1.7-2.2c0.8-0.6,1.7-1.1,2.7-1.7s2.1-0.8,3.4-0.8c1.9,0,3.4,0.5,4.6,1.6
	c1.2,1,1.8,2.7,1.8,5c0,0.3,0,0.7-0.1,1.3l-2.8,0.5c-0.9,0.1-2.1,0.1-3.8,0.1h-3.7c0.2,2,0.8,3.4,1.8,4.4c1,1,2.3,1.5,3.8,1.5
	c0.6,0,1.3-0.1,1.9-0.3S164.6,651.2,165.3,650.8z M155.7,644.2c1,0.1,2.1,0.1,3.1,0.1c0.9,0,1.8,0,2.8-0.1l0-0.8
	c0-1.4-0.3-2.4-0.8-3.1c-0.5-0.6-1.2-1-2.1-1c-0.6,0-1.1,0.2-1.6,0.5c-0.4,0.3-0.8,0.7-1,1.3C156,641.6,155.9,642.7,155.7,644.2z"/>

	<path d="M182.8,650.8l0.5,0.5l-0.8,1.6c-0.8,0.5-1.7,0.9-2.6,1.1c-0.9,0.3-1.9,0.4-3,0.4c-2.5,0-4.4-0.7-5.9-2.2s-2.1-3.5-2.1-6.1
	c0-1.7,0.2-3,0.6-4.1c0.3-0.9,0.9-1.6,1.7-2.2c0.8-0.6,1.7-1.1,2.7-1.7s2.1-0.8,3.4-0.8c1.9,0,3.4,0.5,4.6,1.6
	c1.2,1,1.8,2.7,1.8,5c0,0.3,0,0.7-0.1,1.3l-2.8,0.5c-0.9,0.1-2.1,0.1-3.8,0.1h-3.7c0.2,2,0.8,3.4,1.8,4.4c1,1,2.3,1.5,3.8,1.5
	c0.6,0,1.3-0.1,1.9-0.3S182.1,651.2,182.8,650.8z M173.2,644.2c1,0.1,2.1,0.1,3.1,0.1c0.9,0,1.8,0,2.8-0.1l0-0.8
	c0-1.4-0.3-2.4-0.8-3.1c-0.5-0.6-1.2-1-2.1-1c-0.6,0-1.1,0.2-1.6,0.5c-0.4,0.3-0.8,0.7-1,1.3C173.5,641.6,173.4,642.7,173.2,644.2
	z"/>
	
	<path d="M185.8,654.1v-1.4c1.2,0,1.9-0.1,2.1-0.2c0.1-0.1,0.2-0.2,0.2-0.3c0.1-0.3,0.2-1.4,0.2-3.4s0.1-4.2,0.1-6.4
	c0-1.8,0-4.1-0.1-6.9c0-2-0.1-3.2-0.2-3.4s-0.2-0.4-0.4-0.5c-0.2-0.1-0.8-0.2-2-0.2v-1.2c1.5-0.1,2.8-0.3,3.7-0.5
	c0.9-0.2,1.8-0.5,2.6-0.8c0.2-0.1,0.4-0.1,0.5-0.1c0.2,0,0.3,0.2,0.3,0.5l0,0.7c0,0.8-0.1,4.1-0.1,9.6l0,4.8l0,0.9
	c2.4-2,4.9-4.5,7.5-7.4c0.8,0.1,1.5,0.1,2.2,0.1c0.8,0,1.6,0,2.4-0.1v1.4c-1.3,0.1-2,0.1-2.3,0.2c-0.3,0.1-0.6,0.3-1.2,0.7
	s-1.9,1.6-4.3,3.7l2.5,2.8c2.8,3.2,4.5,5,5,5.5c0.3,0.3,0.8,0.5,1.4,0.5v1.4c-1.3-0.1-2.4-0.1-3.5-0.1c-0.8,0-1.7,0-2.5,0.1
	c-1.1-1.5-2.3-2.9-3.4-4.2c-1.5-1.7-2.8-3.1-3.8-4v2.8c0,1.6,0.1,2.7,0.2,3.3c0.1,0.3,0.2,0.4,0.3,0.5c0.2,0.1,0.9,0.2,2.1,0.2
	v1.4c-2.2-0.1-3.7-0.1-4.4-0.1C190.2,654,188.5,654.1,185.8,654.1z"/>
	
	<path d="M216.1,642.5c0-3.3,0.3-5.8,1-7.5c0.7-1.7,1.6-3,2.8-3.9c1.2-0.8,2.7-1.3,4.4-1.3c1.7,0,3,0.4,4.1,1.1
	c1.1,0.7,1.9,1.9,2.4,3.4c0.6,1.6,0.8,3.9,0.8,7.2c0,3.3-0.3,5.9-1,7.7c-0.7,1.8-1.6,3.1-2.8,4c-1.2,0.9-2.6,1.3-4.3,1.3
	c-1.6,0-3-0.4-4.2-1.2c-1.2-0.8-2-2-2.6-3.5C216.3,648.3,216.1,645.8,216.1,642.5z M220.3,640.3c0,3.6,0.2,6.3,0.5,8.1
	c0.3,1.7,0.8,2.9,1.4,3.6c0.5,0.5,1.1,0.7,1.8,0.7c1.1,0,1.9-0.5,2.4-1.5c0.7-1.2,1-3.6,1-7.2c0-4.4-0.3-7.6-1-9.7
	c-0.5-1.7-1.4-2.5-2.8-2.5c-1.1,0-1.9,0.5-2.5,1.6C220.6,634.4,220.3,636.7,220.3,640.3z"/>
	
	<path d="M244.4,642.2c-1.3,1.3-2.2,2.1-2.7,2.4c-0.7,0.3-1.6,0.5-2.6,0.5c-1.6,0-3-0.6-4-1.8c-1-1.2-1.5-2.8-1.5-4.9
	c0-2.5,0.7-4.6,2.2-6.2c1.5-1.6,3.3-2.4,5.6-2.4c1.5,0,2.9,0.4,4.1,1.1c1.2,0.8,2.1,1.8,2.7,3.2c0.6,1.4,0.9,3.2,0.9,5.6
	c0,3.2-0.5,5.9-1.6,7.9c-1,2.1-2.5,3.8-4.5,5c-2,1.3-4.2,2-6.8,2.1l-1.5-1.1l0.4-0.6c0.7,0.1,1.2,0.1,1.5,0.1
	c1.3,0,2.5-0.4,3.7-1.2c1.2-0.8,2.1-1.9,2.8-3.4C243.8,647.2,244.2,645,244.4,642.2z M241.4,642c1,0,1.7-0.3,2.3-1
	c0.6-0.6,0.8-1.7,0.8-3.1c0-2.3-0.3-3.9-1-4.8c-0.7-1-1.5-1.4-2.6-1.4c-0.9,0-1.7,0.4-2.3,1.1c-0.6,0.8-0.9,2-0.9,3.6
	c0,2,0.3,3.4,1,4.4C239.5,641.6,240.3,642,241.4,642z"/>
	
</g>

<g class="Week_10">

<g class="_x31_0.2">
		
	<circle class="st0" cx="1195.4" cy="635.6" r="108.6"/>
	
<g class="_x31_0.1">
	
	<path d="M1135.4,630.6v-1.4c1.9,0.1,3.6,0.1,5,0.1c1.5,0,3.3,0,5.3-0.1v1.4c-1.2,0-1.9,0.1-2.2,0.3c-0.3,0.1-0.4,0.4-0.4,0.7
	c0,0.4,0.4,2.2,1.1,5.6l1.9,8.9l4.4-9.1c1.7-3.5,2.9-6.2,3.7-7.8h1.5l7.1,17.7l2.9-10.6c0.6-2.3,0.9-3.9,0.9-4.7
	c0-0.4-0.1-0.6-0.4-0.7c-0.2-0.1-1-0.2-2.4-0.2v-1.4c2.1,0.1,3.4,0.1,4,0.1c0.7,0,1.9,0,3.7-0.1v1.4c-0.9,0.1-1.5,0.2-1.8,0.4
	c-0.3,0.2-0.5,0.7-0.8,1.5c-0.4,1.2-1.4,4.8-3.1,10.7l-2.7,10h-3.2l-6.8-17.3l-4.4,9.2c-1.4,2.9-2.6,5.6-3.6,8h-2.4
	c-0.3-1.4-1.2-5.7-2.9-12.8l-1.8-8c-0.2-0.8-0.4-1.3-0.6-1.4C1137.2,630.8,1136.5,630.7,1135.4,630.6z"/>
	
	<path d="M1186.3,649.8l0.5,0.5l-0.8,1.6c-0.8,0.5-1.7,0.9-2.6,1.1c-0.9,0.3-1.9,0.4-3,0.4c-2.5,0-4.4-0.7-5.9-2.2
	s-2.1-3.5-2.1-6.1c0-1.7,0.2-3,0.6-4.1c0.3-0.9,0.9-1.6,1.7-2.2c0.8-0.6,1.7-1.1,2.7-1.7s2.1-0.8,3.4-0.8c1.9,0,3.4,0.5,4.6,1.6
	c1.2,1,1.8,2.7,1.8,5c0,0.3,0,0.7-0.1,1.3l-2.8,0.5c-0.9,0.1-2.1,0.1-3.8,0.1h-3.7c0.2,2,0.8,3.4,1.8,4.4c1,1,2.3,1.5,3.8,1.5
	c0.6,0,1.3-0.1,1.9-0.3C1185,650.5,1185.6,650.2,1186.3,649.8z M1176.7,643.2c1,0.1,2.1,0.1,3.1,0.1c0.9,0,1.8,0,2.8-0.1l0-0.8
	c0-1.4-0.3-2.4-0.8-3.1c-0.5-0.6-1.2-1-2.1-1c-0.6,0-1.1,0.2-1.6,0.5c-0.4,0.3-0.8,0.7-1,1.3
	C1177,640.6,1176.9,641.7,1176.7,643.2z"/>
	
	<path d="M1203.8,649.8l0.5,0.5l-0.8,1.6c-0.8,0.5-1.7,0.9-2.6,1.1c-0.9,0.3-1.9,0.4-3,0.4c-2.5,0-4.4-0.7-5.9-2.2
	s-2.1-3.5-2.1-6.1c0-1.7,0.2-3,0.6-4.1c0.3-0.9,0.9-1.6,1.7-2.2c0.8-0.6,1.7-1.1,2.7-1.7s2.1-0.8,3.4-0.8c1.9,0,3.4,0.5,4.6,1.6
	c1.2,1,1.8,2.7,1.8,5c0,0.3,0,0.7-0.1,1.3l-2.8,0.5c-0.9,0.1-2.1,0.1-3.8,0.1h-3.7c0.2,2,0.8,3.4,1.8,4.4c1,1,2.3,1.5,3.8,1.5
	c0.6,0,1.3-0.1,1.9-0.3C1202.5,650.5,1203.1,650.2,1203.8,649.8z M1194.2,643.2c1,0.1,2.1,0.1,3.1,0.1c0.9,0,1.8,0,2.8-0.1l0-0.8
	c0-1.4-0.3-2.4-0.8-3.1c-0.5-0.6-1.2-1-2.1-1c-0.6,0-1.1,0.2-1.6,0.5c-0.4,0.3-0.8,0.7-1,1.3
	C1194.5,640.6,1194.4,641.7,1194.2,643.2z"/>
	
	<path d="M1206.8,653.1v-1.4c1.2,0,1.9-0.1,2.1-0.2c0.1-0.1,0.2-0.2,0.2-0.3c0.1-0.3,0.2-1.4,0.2-3.4c0-2,0.1-4.2,0.1-6.4
	c0-1.8,0-4.1-0.1-6.9c0-2-0.1-3.2-0.2-3.4s-0.2-0.4-0.4-0.5s-0.8-0.2-2-0.2v-1.2c1.5-0.1,2.8-0.3,3.7-0.5s1.8-0.5,2.6-0.8
	c0.2-0.1,0.4-0.1,0.5-0.1c0.2,0,0.3,0.2,0.3,0.5l0,0.7c0,0.8-0.1,4.1-0.1,9.6l0,4.8l0,0.9c2.4-2,4.9-4.5,7.5-7.4
	c0.8,0.1,1.5,0.1,2.2,0.1c0.8,0,1.6,0,2.4-0.1v1.4c-1.3,0.1-2,0.1-2.3,0.2c-0.3,0.1-0.6,0.3-1.2,0.7s-1.9,1.6-4.3,3.7l2.5,2.8
	c2.8,3.2,4.5,5,5,5.5c0.3,0.3,0.8,0.5,1.4,0.5v1.4c-1.3-0.1-2.5-0.1-3.5-0.1c-0.8,0-1.7,0-2.5,0.1c-1.1-1.5-2.3-2.9-3.4-4.2
	c-1.5-1.7-2.8-3.1-3.8-4v2.8c0,1.6,0.1,2.7,0.2,3.3c0.1,0.3,0.2,0.4,0.3,0.5c0.2,0.1,0.9,0.2,2.1,0.2v1.4
	c-2.2-0.1-3.7-0.1-4.4-0.1C1211.2,653,1209.5,653.1,1206.8,653.1z"/>
	
	<path d="M1238.2,653.1l-0.2-0.2v-1l0.2-0.2c2.2-0.2,3.4-0.3,3.7-0.5c0.2-0.1,0.4-0.2,0.5-0.4c0.1-0.3,0.3-1.4,0.3-3.4
	c0.1-3.3,0.1-6.2,0.1-8.8c0-3.3,0-5.2-0.1-5.6c0-0.2-0.2-0.3-0.3-0.3c-0.1,0-0.3,0-0.5,0.1l-4.7,2.2l-0.2-0.1
	c-0.1-0.8-0.2-1.5-0.4-2.1l0.1-0.3c4.3-1.2,7.8-2.4,10.7-3.6l0.4,0.3c-0.1,1.6-0.3,3.7-0.3,6.5s-0.1,6-0.1,9.9
	c0,2.7,0.1,4.3,0.2,5c0.1,0.3,0.2,0.5,0.4,0.6c0.3,0.2,1.4,0.3,3.5,0.4l0.2,0.2v1l-0.2,0.2l-2.1-0.1c-2.1,0-3.6-0.1-4.3-0.1
	C1243,653,1240.7,653.1,1238.2,653.1z"/>
	
	<path d="M1254.6,641.5c0-3.3,0.3-5.8,1-7.5c0.7-1.7,1.6-3,2.8-3.9c1.2-0.8,2.7-1.3,4.4-1.3c1.7,0,3,0.4,4.1,1.1
	c1.1,0.7,1.9,1.9,2.4,3.4c0.6,1.6,0.8,3.9,0.8,7.2c0,3.3-0.3,5.9-1,7.7c-0.7,1.8-1.6,3.1-2.8,4s-2.6,1.3-4.3,1.3
	c-1.6,0-3-0.4-4.2-1.2c-1.2-0.8-2-2-2.6-3.5C1254.8,647.3,1254.6,644.8,1254.6,641.5z M1258.8,639.3c0,3.6,0.2,6.3,0.5,8.1
	c0.3,1.7,0.8,2.9,1.4,3.6c0.5,0.5,1.1,0.7,1.8,0.7c1.1,0,1.9-0.5,2.4-1.5c0.7-1.2,1-3.6,1-7.2c0-4.4-0.3-7.6-1-9.7
	c-0.5-1.7-1.4-2.5-2.8-2.5c-1.1,0-1.9,0.5-2.5,1.6S1258.8,635.7,1258.8,639.3z"/>
	
</g>
</svg>
